<svg width="70" height="70" viewBox="0 0 51 50" fill="none" xmlns="http://www.w3.org/2000/svg">
<path d="M24.4812 9.33317V18.7498C24.4812 20.6948 23.7085 22.56 22.3333 23.9353C20.958 25.3106 19.0927 26.0832 17.1478 26.0832C15.2029 26.0832 13.3376 25.3106 11.9624 23.9353C10.5871 22.56 9.81449 20.6948 9.81449 18.7498V9.33317H10.8978C11.7156 9.33317 12.4998 9.00832 13.0781 8.43008C13.6563 7.85185 13.9812 7.06759 13.9812 6.24984C13.9812 5.43209 13.6563 4.64783 13.0781 4.06959C12.4998 3.49135 11.7156 3.1665 10.8978 3.1665H8.81449C7.44421 3.1665 6.13005 3.71085 5.16111 4.67979C4.19217 5.64872 3.64783 6.96289 3.64783 8.33317L3.64783 18.7497C3.64783 18.7497 3.64783 18.7498 3.64783 18.7498C3.64737 21.9405 4.77701 25.0281 6.83636 27.4652C8.71234 29.6852 11.2494 31.2346 14.0645 31.8949V32.2915C14.0645 36.1482 15.5966 39.8469 18.3236 42.574C21.0507 45.3011 24.7495 46.8332 28.6062 46.8332C32.4629 46.8332 36.1616 45.3011 38.8887 42.574C41.6158 39.8469 43.1478 36.1482 43.1478 32.2915V29.4816C44.4678 28.8615 45.5758 27.855 46.3194 26.5876C47.1852 25.112 47.5014 23.3778 47.2122 21.6917C46.923 20.0055 46.047 18.4758 44.739 17.3731C43.431 16.2703 41.7753 15.6655 40.0645 15.6655C38.3537 15.6655 36.698 16.2703 35.39 17.3731C34.082 18.4758 33.206 20.0055 32.9168 21.6917C32.6276 23.3778 32.9438 25.112 33.8096 26.5875C34.5532 27.855 35.6612 28.8615 36.9812 29.4816V32.2915C36.9812 34.5127 36.0988 36.6429 34.5282 38.2135C32.9576 39.7841 30.8273 40.6665 28.6062 40.6665C26.385 40.6665 24.2548 39.7841 22.6841 38.2135C21.1135 36.6429 20.2312 34.5127 20.2312 32.2915V31.8949C23.0463 31.2346 25.5833 29.6852 27.4593 27.4652C29.5186 25.0281 30.6483 21.9405 30.6478 18.7498C30.6478 18.7498 30.6478 18.7497 30.6478 18.7497V8.33317C30.6478 6.96288 30.1035 5.64872 29.1345 4.67979C28.1656 3.71085 26.8514 3.1665 25.4812 3.1665H23.3978C22.5801 3.1665 21.7958 3.49135 21.2176 4.06959C20.6393 4.64783 20.3145 5.43209 20.3145 6.24984C20.3145 7.06759 20.6393 7.85185 21.2176 8.43008C21.7958 9.00832 22.5801 9.33317 23.3978 9.33317H24.4812ZM40.8305 23.6825C40.6274 23.8857 40.3518 23.9998 40.0645 23.9998C39.7772 23.9998 39.5016 23.8857 39.2985 23.6825C39.0953 23.4794 38.9812 23.2038 38.9812 22.9165C38.9812 22.6292 39.0953 22.3536 39.2985 22.1505C39.5016 21.9473 39.7772 21.8332 40.0645 21.8332C40.3518 21.8332 40.6274 21.9473 40.8305 22.1505C41.0337 22.3536 41.1478 22.6292 41.1478 22.9165C41.1478 23.2038 41.0337 23.4794 40.8305 23.6825Z" stroke="white" stroke-width="2"/>
</svg>
