<svg width="75" height="75" viewBox="0 0 51 50" fill="none" xmlns="http://www.w3.org/2000/svg">
<path d="M34.0743 6.25033C34.0743 5.69779 33.8548 5.16789 33.4641 4.77719C33.0734 4.38649 32.5435 4.16699 31.9909 4.16699H19.4909C18.9384 4.16699 18.4085 4.38649 18.0178 4.77719C17.6271 5.16789 17.4076 5.69779 17.4076 6.25033V16.667H6.99093C6.43839 16.667 5.90849 16.8865 5.51779 17.2772C5.12709 17.6679 4.90759 18.1978 4.90759 18.7503V31.2503C4.90759 31.8029 5.12709 32.3328 5.51779 32.7235C5.90849 33.1142 6.43839 33.3337 6.99093 33.3337H17.4076V43.7503C17.4076 44.3029 17.6271 44.8328 18.0178 45.2235C18.4085 45.6142 18.9384 45.8337 19.4909 45.8337H31.9909C32.5435 45.8337 33.0734 45.6142 33.4641 45.2235C33.8548 44.8328 34.0743 44.3029 34.0743 43.7503V33.3337H44.4909C45.0435 33.3337 45.5734 33.1142 45.9641 32.7235C46.3548 32.3328 46.5743 31.8029 46.5743 31.2503V18.7503C46.5743 18.1978 46.3548 17.6679 45.9641 17.2772C45.5734 16.8865 45.0435 16.667 44.4909 16.667H34.0743V6.25033Z" stroke="white" stroke-width="3" stroke-linecap="round" stroke-linejoin="round"/>
</svg>
