<svg width="60" height="70" viewBox="0 0 39 50" fill="none" xmlns="http://www.w3.org/2000/svg">
<g clip-path="url(#clip0_286_3726)">
<path d="M2.98675 24.6622C3.33137 30.3243 6.7899 34.5739 11.7131 35.5724C12.3038 41.5755 17.4486 46.2878 23.6764 46.2878C30.298 46.2878 35.6889 40.9545 35.6889 34.4035V23.615C35.6889 22.4704 34.7535 21.545 33.5965 21.545C32.4396 21.545 31.5042 22.4704 31.5042 23.615V34.4035C31.5042 38.6774 27.9964 42.1478 23.6764 42.1478C19.8363 42.1478 16.6362 39.3959 15.9839 35.7794C21.9533 35.3654 26.2118 30.4339 26.2118 23.7489V3.75495C26.2118 3.34094 25.8672 3 25.4487 3H3.71292C3.29445 3 2.94983 3.34094 2.94983 3.75495V23.7368C2.94983 23.9438 2.94983 24.1386 2.96214 24.3334C2.96214 24.3699 2.94983 24.4186 2.94983 24.4552C2.94983 24.5282 2.96214 24.5891 2.98675 24.6622ZM33.0181 23.615C33.0181 23.2984 33.2765 23.0549 33.5842 23.0549C33.8919 23.0549 34.1504 23.3106 34.1504 23.615V34.4035C34.1504 40.1265 29.4488 44.7779 23.6641 44.7779C18.347 44.7779 13.9531 40.8449 13.2639 35.7672C13.51 35.7794 13.7439 35.7916 13.99 35.7916H14.4085C15.0977 40.236 18.9747 43.6455 23.6517 43.6455C28.8088 43.6455 33.0058 39.4933 33.0058 34.3913V23.6028L33.0181 23.615ZM24.6733 15.067V23.7368C24.6733 29.8494 20.6609 34.2939 15.147 34.2939H14.0023C10.273 34.2939 7.24529 32.2726 5.66988 29.0823H10.0638C10.4823 29.0823 10.8269 28.7413 10.8269 28.3273C10.8269 27.9133 10.4823 27.5724 10.0638 27.5724H5.62065C5.42372 27.5724 5.25141 27.6454 5.11602 27.7672C4.84525 26.9757 4.66063 26.1112 4.54986 25.2223H12.4023C12.8208 25.2223 13.1654 24.8814 13.1654 24.4673C13.1654 24.0533 12.8208 23.7124 12.4023 23.7124H4.47601V20.8144H10.0638C10.4823 20.8144 10.8269 20.4734 10.8269 20.0594C10.8269 19.6454 10.4823 19.3045 10.0638 19.3045H4.47601V16.9422H12.4146C12.8331 16.9422 13.1777 16.6013 13.1777 16.1873C13.1777 15.7733 12.8331 15.4323 12.4146 15.4323H4.47601V12.5099H10.0638C10.4823 12.5099 10.8269 12.169 10.8269 11.755C10.8269 11.341 10.4823 11 10.0638 11H4.47601V8.63777H12.4146C12.8331 8.63777 13.1777 8.29682 13.1777 7.88282C13.1777 7.46881 12.8331 7.12787 12.4146 7.12787H4.47601V4.5099H24.6733V15.067Z" fill="white"/>
<path d="M4.47601 17.0031H24.6733C25.6456 17.0031 25.6456 15.5176 24.6733 15.5176H4.47601C3.50368 15.5176 3.50368 17.0031 4.47601 17.0031Z" fill="white"/>
</g>
<defs>
<clipPath id="clip0_286_3726">
<rect width="32.7391" height="43.3" fill="white" transform="translate(2.94983 3)"/>
</clipPath>
</defs>
</svg>
