<svg width="75" height="75" viewBox="0 0 51 50" fill="none" xmlns="http://www.w3.org/2000/svg">
<g clip-path="url(#clip0_3197_6221)">
<path d="M25.5515 37.3799C16.7878 37.3799 8.66242 33.0047 3.82176 25.6639L3.56909 25.2783L3.82176 24.8926C8.66242 17.5652 16.7878 13.1899 25.5515 13.1899C34.3153 13.1899 42.4406 17.5652 47.2813 24.9059L47.534 25.2916L47.2813 25.6639C42.4406 33.0047 34.3153 37.3799 25.5515 37.3799ZM25.6579 31.8079C26.509 31.8079 27.3601 31.6483 28.158 31.3158C28.956 30.9834 29.6741 30.5046 30.2725 29.9062C31.5093 28.6694 32.1875 27.0337 32.1875 25.2916C32.1875 23.5495 31.5093 21.9138 30.2725 20.677C29.6741 20.0653 28.9427 19.5865 28.158 19.2541C27.3601 18.9216 26.5223 18.762 25.6579 18.762C24.8068 18.762 23.9557 18.9216 23.1578 19.2541C22.3599 19.5865 21.6418 20.0653 21.0433 20.677C20.4316 21.2887 19.9529 22.0069 19.6337 22.7915C19.3012 23.5894 19.1417 24.4272 19.1417 25.2916C19.1417 28.8822 22.0673 31.8212 25.6579 31.8212V31.8079ZM44.8743 25.2783C41.3901 20.4376 36.2967 17.1396 30.5917 15.9028C33.9429 17.6715 36.2435 21.1956 36.2435 25.2517C36.2435 28.071 35.1398 30.7307 33.145 32.7255C32.3604 33.5101 31.4428 34.175 30.4454 34.667C36.2169 33.4569 41.3502 30.1455 44.8743 25.2783ZM21.0699 34.7601C20.0061 34.2415 19.0486 33.5633 18.2108 32.7388C17.2267 31.7547 16.4421 30.5977 15.9101 29.3077C15.3782 28.0311 15.1122 26.648 15.1122 25.265C15.1122 22.4457 16.216 19.786 18.2108 17.7912C18.9954 17.0066 19.8997 16.355 20.8971 15.8496C15.0324 17.0199 9.7928 20.3445 6.2155 25.2916C9.81939 30.2918 15.1255 33.6298 21.0566 34.7601H21.0699ZM23.3972 25.6506C23.9557 25.6374 24.4877 25.398 24.8733 24.999C25.259 24.6001 25.485 24.0548 25.485 23.4963C25.485 22.9378 25.2723 22.3925 24.8733 21.9936C24.4877 21.5946 23.9557 21.3552 23.3972 21.3419C22.8386 21.3419 22.2934 21.5813 21.8944 21.9936C21.4955 22.3925 21.2827 22.9378 21.2827 23.5096C21.2827 24.0814 21.5088 24.6134 21.8944 25.0256C22.2934 25.4246 22.8253 25.6639 23.3972 25.6772V25.6506Z" fill="white"/>
</g>
<defs>
<clipPath id="clip0_3197_6221">
<rect width="43.9649" height="24.19" fill="white" transform="translate(3.56909 13.1899)"/>
</clipPath>
</defs>
</svg>
