<svg width="100" height="82" viewBox="0 0 162 133" fill="none" xmlns="http://www.w3.org/2000/svg">
<g clip-path="url(#clip0_256_3556)">
<path d="M14.7732 79.1017H5.5004C5.53901 75.9919 5.03162 65.8775 8.9345 54.7344C13.8522 40.696 21.7333 36.9443 21.7333 36.9443C21.7333 36.9443 17.5767 44.4201 15.9645 55.4825C14.5802 64.9881 14.7089 76.1496 14.7732 79.1036V79.1017Z" fill="white"/>
<path d="M19.6265 87.3232H29.1474V93.73L19.6265 98.2518V87.3232Z" fill="white"/>
<path d="M19.6265 102.209L29.1475 97.6875V103.17H17.6833L19.6265 102.209Z" fill="white"/>
<path d="M9.27655 103.17H6.4436V87.3232H15.9646V99.9919L9.27655 103.17Z" fill="white"/>
<path d="M29.1475 106.01H0V111.707H29.1475V106.01Z" fill="white"/>
<path d="M28.9269 85.2292H2.41745C1.40634 85.2292 0.586426 84.393 0.586426 83.3607C0.586426 82.3283 1.40634 81.4922 2.41745 81.4922H28.9287V85.2292H28.9269Z" fill="white"/>
<path d="M29.0758 30.3652H25.7061V32.5326H29.0758V30.3652Z" fill="white"/>
<path d="M22.7205 27.1945C22.7205 26.5913 23.1984 26.1035 23.7886 26.1035H29.0739V28.2837H23.7886C23.1984 28.2837 22.7205 27.796 22.7205 27.1945Z" fill="white"/>
<path d="M23.1306 15.4759C23.1306 14.8745 23.6086 14.3867 24.1987 14.3867H29.0741V16.5669H24.1987C23.6086 16.5669 23.1306 16.0792 23.1306 15.4777V15.4759Z" fill="white"/>
<path d="M29.0758 18.123H25.7061V24.759H29.0758V18.123Z" fill="white"/>
<path d="M28.245 12.3273C27.6162 11.9587 27.2449 11.2564 27.2449 10.5156V1.82232C27.2449 1.03385 27.7229 0.305889 28.4582 0.0711819C28.6751 0.00150328 28.859 -0.0094986 29.041 0.00883788C29.0612 0.00883788 29.0759 0.0271744 29.0759 0.0473445V12.507C28.8259 12.5345 28.5777 12.5217 28.245 12.3273Z" fill="white"/>
<path d="M19.2681 70.9504C19.2681 66.0582 19.6413 51.4752 22.7224 44.0563C25.8035 36.6392 29.1475 35.1484 29.1475 35.1484V79.101H19.2681C19.2681 79.101 19.2681 75.8426 19.2681 70.9504Z" fill="white"/>
<path d="M7.71936 129.954C7.71936 131.978 6.58508 132.994 4.31468 133C2.05163 133 0.919189 131.984 0.919189 129.954V121.103C0.919189 119.079 2.05163 118.066 4.31468 118.066C6.57773 118.066 7.71936 119.079 7.71936 121.103V123.047H5.35337V121.103C5.35337 120.452 5.00959 120.127 4.32387 120.127H4.30733C3.62713 120.127 3.28702 120.452 3.28702 121.103V129.954C3.28702 130.605 3.6308 130.929 4.31652 130.929C5.00223 130.929 5.35337 130.605 5.35337 129.954V128.01H7.71936V129.954Z" fill="white"/>
<path d="M16.2753 129.954C16.2753 131.978 15.141 132.994 12.8706 133C10.6075 133 9.4751 131.984 9.4751 129.954V121.103C9.4751 119.079 10.6075 118.066 12.8706 118.066C15.1336 118.066 16.2753 119.079 16.2753 121.103V129.954ZM13.9074 121.103C13.9074 120.452 13.5637 120.127 12.8779 120.127H12.8614C12.1812 120.127 11.8411 120.452 11.8411 121.103V129.954C11.8411 130.605 12.1849 130.929 12.8706 130.929C13.5563 130.929 13.9074 130.605 13.9074 129.954V121.103Z" fill="white"/>
<path d="M18.2827 118.267H20.6487L22.8897 126.659V118.267H25.081V132.732H22.7151L20.5568 124.607V132.732H18.2827V118.267Z" fill="white"/>
<path d="M33.8888 129.954C33.8888 131.978 32.7545 132.994 30.4841 133C28.2211 133 27.0886 131.984 27.0886 129.954V121.103C27.0886 119.079 28.2211 118.066 30.4841 118.066C32.7472 118.066 33.8888 119.079 33.8888 121.103V123.047H31.5228V121.103C31.5228 120.452 31.179 120.127 30.4933 120.127H30.4768C29.7966 120.127 29.4565 120.452 29.4565 121.103V129.954C29.4565 130.605 29.8002 130.929 30.486 130.929C31.1717 130.929 31.5228 130.605 31.5228 129.954V126.56H30.4933V124.499H33.8888V129.954Z" fill="white"/>
<path d="M35.8962 118.267H39.3414C41.4426 118.267 42.4942 119.282 42.4942 121.312V123.481C42.4942 124.756 41.8728 125.594 40.6301 126.001L43.2902 132.732H40.6981L38.5656 126.368L38.2641 126.41V132.732H35.8981V118.267H35.8962ZM38.2622 120.318V124.464H38.8064C39.1355 124.464 39.3616 124.444 39.4848 124.406C39.9131 124.255 40.1282 123.947 40.1282 123.48V121.31C40.1282 120.649 39.7844 120.317 39.0987 120.317H38.2622V120.318Z" fill="white"/>
<path d="M44.1763 118.267H50.3146V120.318H46.5423V124.464H49.787V126.533H46.5423V130.671H50.3146V132.732H44.1763V118.267Z" fill="white"/>
<path d="M51.9031 121.103C51.9031 119.079 53.0355 118.066 55.2986 118.066C57.5616 118.066 58.7033 119.079 58.7033 121.103V123.047H56.3373V121.103C56.3373 120.452 55.9935 120.127 55.3078 120.127H55.2912C54.611 120.127 54.2709 120.452 54.2709 121.103V122.412C54.2709 123.058 55.0099 123.846 56.488 124.781C57.9661 125.709 58.7051 126.824 58.7051 128.126V129.952C58.7051 131.982 57.5726 132.998 55.3096 132.998C53.041 132.992 51.9049 131.978 51.9049 129.952V128.008H54.2709V129.952C54.2709 130.603 54.6165 130.928 55.3078 130.928C55.999 130.928 56.3373 130.603 56.3373 129.952V128.3C56.3373 127.6 55.5982 126.782 54.1202 125.847C52.6421 124.919 51.9031 123.789 51.9031 122.46V121.099V121.103Z" fill="white"/>
<path d="M67.3417 129.954C67.3417 131.978 66.2074 132.994 63.937 133C61.6739 133 60.5415 131.984 60.5415 129.954V121.103C60.5415 119.079 61.6739 118.066 63.937 118.066C66.2 118.066 67.3417 119.079 67.3417 121.103V129.954ZM64.9757 121.103C64.9757 120.452 64.6319 120.127 63.9462 120.127H63.9296C63.2494 120.127 62.9093 120.452 62.9093 121.103V129.954C62.9093 130.605 63.2531 130.929 63.9388 130.929C64.6245 130.929 64.9757 130.605 64.9757 129.954V121.103Z" fill="white"/>
<path d="M73.5977 118.267H77.245C79.3463 118.267 80.3978 119.282 80.3978 121.312V129.696C80.3978 131.715 79.2966 132.727 77.0943 132.732H73.5977V118.267ZM75.9655 120.318V130.671H77.0023C77.6881 130.671 78.0318 130.347 78.0318 129.696V121.312C78.0318 120.65 77.6881 120.318 77.0023 120.318H75.9655Z" fill="white"/>
<path d="M82.4055 118.267H88.5439V120.318H84.7715V124.464H88.0163V126.533H84.7715V130.671H88.5439V132.732H82.4055V118.267Z" fill="white"/>
<path d="M94.5479 132.732V118.267H96.9138V130.671H100.686V132.732H94.5479Z" fill="white"/>
<path d="M108.709 127.602L109.477 132.732H107.086L106.626 129.663H104.209L103.74 132.732H101.355L102.124 127.618L103.797 118.267H107.042L108.707 127.602H108.709ZM106.315 127.602L105.413 121.578L104.51 127.602H106.317H106.315Z" fill="white"/>
<path d="M115.147 118.267H117.513L119.754 126.659V118.267H121.945V132.732H119.579L117.421 124.607V132.732H115.147V118.267Z" fill="white"/>
<path d="M130.72 127.602L131.488 132.732H129.097L128.637 129.663H126.22L125.751 132.732H123.366L124.135 127.618L125.808 118.267H129.053L130.718 127.602H130.72ZM128.328 127.602L127.426 121.578L126.523 127.602H128.33H128.328Z" fill="white"/>
<path d="M139.544 129.954C139.544 131.978 138.41 132.994 136.141 133C133.876 133 132.746 131.984 132.746 129.954V121.103C132.746 119.079 133.878 118.066 136.141 118.066C138.404 118.066 139.544 119.079 139.544 121.103V123.047H137.178V121.103C137.178 120.452 136.834 120.127 136.149 120.127H136.132C135.452 120.127 135.112 120.452 135.112 121.103V129.954C135.112 130.605 135.456 130.929 136.141 130.929C136.827 130.929 137.178 130.605 137.178 129.954V128.01H139.544V129.954Z" fill="white"/>
<path d="M141.509 118.267H143.875V132.732H141.509V118.267Z" fill="white"/>
<path d="M152.808 129.954C152.808 131.978 151.674 132.994 149.403 133C147.14 133 146.008 131.984 146.008 129.954V121.103C146.008 119.079 147.14 118.066 149.403 118.066C151.666 118.066 152.808 119.079 152.808 121.103V129.954ZM149.337 117.674H148.025L149.212 115.563H151.069L149.337 117.674ZM150.442 121.103C150.442 120.452 150.098 120.127 149.412 120.127H149.396C148.716 120.127 148.376 120.452 148.376 121.103V129.954C148.376 130.605 148.719 130.929 149.405 130.929C150.091 130.929 150.442 130.605 150.442 129.954V121.103Z" fill="white"/>
<path d="M154.731 118.267H157.097L159.338 126.659V118.267H161.529V132.732H159.163L157.005 124.607V132.732H154.731V118.267Z" fill="white"/>
<path d="M35.374 35.4531H54.4307C65.4168 35.4531 70.9081 40.7579 70.9081 51.3655V95.1805C70.9081 105.731 65.1521 111.021 53.6439 111.049H35.374V35.4531ZM47.7445 46.1781V100.282H53.164C56.7489 100.282 58.5395 98.582 58.5395 95.1805V51.3655C58.5395 47.9073 56.747 46.1781 53.164 46.1781H47.7445Z" fill="white"/>
<path d="M115.886 84.2393L119.907 111.051H107.406L105.001 95.0083H92.3695L89.9207 111.051H77.4639L81.4844 84.3273L90.2259 35.4551H107.185L115.884 84.2393H115.886ZM103.385 84.2393L98.6641 52.7629L93.9431 84.2393H103.385Z" fill="white"/>
<path d="M126.464 50.2766C126.464 39.6983 132.378 34.4082 144.21 34.4082C156.042 34.4082 162 39.6983 162 50.2766V60.435H149.629V50.2766C149.629 46.8752 147.837 45.1754 144.254 45.1754H144.166C140.61 45.1754 138.834 46.8752 138.834 50.2766V57.1216C138.834 60.4937 142.695 64.6194 150.416 69.5024C158.137 74.3561 162 80.1834 162 86.9844V96.5322C162 107.142 156.084 112.445 144.254 112.445C132.394 112.415 126.464 107.112 126.464 96.5322V86.3738H138.834V96.5322C138.834 99.9336 140.641 101.633 144.254 101.633C147.866 101.633 149.629 99.9336 149.629 96.5322V87.8994C149.629 84.2376 145.769 79.9652 138.046 75.0822C130.324 70.2285 126.464 64.3297 126.464 57.382V50.2766Z" fill="white"/>
</g>
<defs>
<clipPath id="clip0_256_3556">
<rect width="162" height="133" fill="white"/>
</clipPath>
</defs>
</svg>
