<svg width="27" height="22" viewBox="0 0 27 22" fill="none" xmlns="http://www.w3.org/2000/svg">
<path d="M11.3724 14.2157L16.7115 11.1295L11.3724 8.04336V14.2157ZM23.2644 6.1608C23.3982 6.6443 23.4907 7.2924 23.5525 8.11538C23.6245 8.93835 23.6553 9.64817 23.6553 10.2654L23.7171 11.1295C23.7171 13.3824 23.5525 15.0387 23.2644 16.0983C23.0072 17.0241 22.4106 17.6208 21.4847 17.878C21.0012 18.0117 20.1165 18.1043 18.7586 18.166C17.4213 18.238 16.1971 18.2689 15.0655 18.2689L13.4298 18.3306C9.11947 18.3306 6.4345 18.166 5.37491 17.878C4.44906 17.6208 3.8524 17.0241 3.59522 16.0983C3.46148 15.6148 3.3689 14.9667 3.30717 14.1437C3.23516 13.3207 3.2043 12.6109 3.2043 11.9937L3.14258 11.1295C3.14258 8.87663 3.30717 7.22039 3.59522 6.1608C3.8524 5.23495 4.44906 4.63829 5.37491 4.38111C5.85841 4.24737 6.74311 4.15479 8.10103 4.09306C9.43837 4.02105 10.6626 3.99019 11.7942 3.99019L13.4298 3.92847C17.7402 3.92847 20.4251 4.09306 21.4847 4.38111C22.4106 4.63829 23.0072 5.23495 23.2644 6.1608Z" fill="#ffff"/>
</svg>
