<svg width="22" height="22" viewBox="0 0 22 22" fill="none" xmlns="http://www.w3.org/2000/svg">
<path d="M11.9425 1.83325C12.9738 1.836 13.4972 1.8415 13.9491 1.85434L14.1269 1.86075C14.3323 1.86809 14.5349 1.87725 14.7796 1.88825C15.7549 1.93409 16.4204 2.08809 17.0044 2.3145C17.6094 2.54734 18.119 2.86267 18.6287 3.37142C19.095 3.82951 19.4557 4.38385 19.6856 4.99575C19.912 5.57967 20.066 6.24517 20.1119 7.22142C20.1229 7.46525 20.132 7.66784 20.1394 7.87409L20.1449 8.05192C20.1586 8.50292 20.1641 9.02634 20.1659 10.0576L20.1669 10.7414V11.9423C20.1691 12.6109 20.1621 13.2795 20.1458 13.9479L20.1403 14.1258C20.1329 14.332 20.1238 14.5346 20.1128 14.7784C20.0669 15.7547 19.9111 16.4193 19.6856 17.0041C19.4557 17.616 19.095 18.1703 18.6287 18.6284C18.1706 19.0947 17.6163 19.4554 17.0044 19.6853C16.4204 19.9118 15.7549 20.0658 14.7796 20.1116L14.1269 20.1391L13.9491 20.1446C13.4972 20.1574 12.9738 20.1638 11.9425 20.1657L11.2587 20.1666H10.0588C9.38985 20.1689 8.72093 20.1619 8.0522 20.1455L7.87436 20.14C7.65675 20.1318 7.4392 20.1223 7.2217 20.1116C6.24636 20.0658 5.58086 19.9118 4.99603 19.6853C4.38446 19.4553 3.83043 19.0946 3.37261 18.6284C2.90598 18.1704 2.54496 17.6161 2.31478 17.0041C2.08836 16.4202 1.93436 15.7547 1.88853 14.7784L1.86103 14.1258L1.85645 13.9479C1.83955 13.2795 1.83191 12.6109 1.83353 11.9423V10.0576C1.83099 9.38897 1.83771 8.72035 1.8537 8.05192L1.86011 7.87409C1.86745 7.66784 1.87661 7.46525 1.88761 7.22142C1.93345 6.24517 2.08745 5.58059 2.31386 4.99575C2.54458 4.3836 2.90623 3.82924 3.37353 3.37142C3.83109 2.90534 4.38478 2.54465 4.99603 2.3145C5.58086 2.08809 6.24545 1.93409 7.2217 1.88825C7.46553 1.87725 7.66903 1.86809 7.87436 1.86075L8.0522 1.85525C8.72062 1.83897 9.38924 1.83194 10.0579 1.83417L11.9425 1.83325ZM11.0002 6.41659C9.78462 6.41659 8.61883 6.89947 7.75929 7.75901C6.89975 8.61855 6.41686 9.78434 6.41686 10.9999C6.41686 12.2155 6.89975 13.3813 7.75929 14.2408C8.61883 15.1004 9.78462 15.5833 11.0002 15.5833C12.2158 15.5833 13.3816 15.1004 14.2411 14.2408C15.1006 13.3813 15.5835 12.2155 15.5835 10.9999C15.5835 9.78434 15.1006 8.61855 14.2411 7.75901C13.3816 6.89947 12.2158 6.41659 11.0002 6.41659ZM11.0002 8.24992C11.3613 8.24986 11.7189 8.32093 12.0526 8.45907C12.3863 8.59722 12.6895 8.79973 12.9449 9.05505C13.2003 9.31037 13.4029 9.61349 13.5411 9.94712C13.6794 10.2807 13.7506 10.6383 13.7507 10.9995C13.7507 11.3606 13.6796 11.7182 13.5415 12.0519C13.4034 12.3855 13.2008 12.6887 12.9455 12.9441C12.6902 13.1995 12.3871 13.4022 12.0535 13.5404C11.7198 13.6787 11.3622 13.7499 11.0011 13.7499C10.2718 13.7499 9.57229 13.4602 9.05657 12.9445C8.54084 12.4287 8.25111 11.7293 8.25111 10.9999C8.25111 10.2706 8.54084 9.5711 9.05657 9.05537C9.57229 8.53965 10.2718 8.24992 11.0011 8.24992M15.8136 5.04159C15.5097 5.04159 15.2183 5.16231 15.0034 5.37719C14.7885 5.59208 14.6678 5.88352 14.6678 6.18742C14.6678 6.49131 14.7885 6.78276 15.0034 6.99765C15.2183 7.21253 15.5097 7.33325 15.8136 7.33325C16.1175 7.33325 16.409 7.21253 16.6238 6.99765C16.8387 6.78276 16.9594 6.49131 16.9594 6.18742C16.9594 5.88352 16.8387 5.59208 16.6238 5.37719C16.409 5.16231 16.1175 5.04159 15.8136 5.04159Z" fill="#ffff"/>
</svg>