<svg width="50" height="50" viewBox="0 0 50 50" fill="none" xmlns="http://www.w3.org/2000/svg">
<path d="M40.826 31.5001C41.6503 29.4983 42.0978 27.3552 42.0978 25.0001C42.0978 23.3044 41.8387 21.6794 41.3912 20.1722C39.8605 20.5255 38.259 20.7139 36.5869 20.7139C33.1626 20.7175 29.7875 19.8979 26.7463 18.324C23.7051 16.7501 21.0868 14.4681 19.1123 11.6704C17.002 16.7826 13.0167 20.8944 7.97277 23.1631C7.87857 23.7519 7.87857 24.3878 7.87857 25.0001C7.87857 27.2485 8.32142 29.4749 9.18185 31.5522C10.0423 33.6294 11.3034 35.5169 12.8933 37.1067C16.1042 40.3176 20.4591 42.1215 24.9999 42.1215C27.4728 42.1215 29.8514 41.5798 31.9945 40.6142C33.3369 43.1813 33.9492 44.453 33.9021 44.453C30.0398 45.7483 27.0489 46.3842 24.9999 46.3842C19.3007 46.3842 13.8605 44.1468 9.85683 40.1197C7.41944 37.6938 5.60891 34.7112 4.58147 31.4294H1.44922V20.7139H4.01625C4.79399 16.9281 6.58208 13.4235 9.19079 10.572C11.7995 7.7204 15.1315 5.62823 18.8333 4.51746C22.535 3.4067 26.4684 3.31876 30.2161 4.26299C33.9638 5.20723 37.386 7.1484 40.1195 9.88053C43.0864 12.8375 45.1106 16.6073 45.9365 20.7139H48.5507V31.4294H48.4094L40.0253 39.1305L27.5434 37.7175V33.7845H38.9184L40.826 31.5001ZM18.5706 24.4584C19.2771 24.4584 19.9601 24.741 20.4547 25.2592C20.9517 25.7602 21.2306 26.4374 21.2306 27.1432C21.2306 27.849 20.9517 28.5262 20.4547 29.0273C19.9601 29.5218 19.2771 29.8044 18.5706 29.8044C17.0869 29.8044 15.8858 28.6269 15.8858 27.1432C15.8858 25.6595 17.0869 24.4584 18.5706 24.4584ZM31.4057 24.4584C32.8894 24.4584 34.067 25.6595 34.067 27.1432C34.067 28.6269 32.8894 29.8044 31.4057 29.8044C29.922 29.8044 28.721 28.6269 28.721 27.1432C28.721 26.4312 29.0038 25.7483 29.5073 25.2448C30.0108 24.7413 30.6937 24.4584 31.4057 24.4584Z" fill="white"/>
</svg>
