<svg width="60" height="60" viewBox="0 0 60 60" fill="none" xmlns="http://www.w3.org/2000/svg">
<path fill-rule="evenodd" clip-rule="evenodd" d="M0.222855 6.02581C0.222855 5.17333 0.561502 4.35576 1.1643 3.75297C1.76709 3.15017 2.58466 2.81152 3.43714 2.81152H8.12571C8.97819 2.81152 9.79576 3.15017 10.3986 3.75297C11.0013 4.35576 11.34 5.17333 11.34 6.02581C11.34 6.87829 11.0013 7.69586 10.3986 8.29865C9.79576 8.90145 8.97819 9.24009 8.12571 9.24009H6.65143V21.4287C6.6231 22.8359 6.8758 24.2346 7.39474 25.5429C7.91368 26.8513 8.68842 28.0429 9.6736 29.0481C10.6588 30.0533 11.8346 30.8519 13.1322 31.3971C14.4299 31.9422 15.8232 32.223 17.2307 32.223C18.6382 32.223 20.0316 31.9422 21.3292 31.3971C22.6268 30.8519 23.8026 30.0533 24.7878 29.0481C25.773 28.0429 26.5477 26.8513 27.0667 25.5429C27.5856 24.2346 27.8383 22.8359 27.81 21.4287V9.24009H26.34C25.4875 9.24009 24.6699 8.90145 24.0672 8.29865C23.4644 7.69586 23.1257 6.87829 23.1257 6.02581C23.1257 5.17333 23.4644 4.35576 24.0672 3.75297C24.6699 3.15017 25.4875 2.81152 26.34 2.81152H31.0243C31.8768 2.81152 32.6943 3.15017 33.2971 3.75297C33.8999 4.35576 34.2386 5.17333 34.2386 6.02581V21.4287C34.2389 25.3356 32.8946 29.1237 30.4316 32.1564C27.9685 35.1892 24.5368 37.2819 20.7129 38.0829V40.5344C20.7129 42.1938 21.0397 43.837 21.6747 45.3701C22.3098 46.9033 23.2406 48.2963 24.414 49.4697C25.5874 50.6431 26.9804 51.5739 28.5135 52.2089C30.0467 52.844 31.6898 53.1708 33.3493 53.1708C35.0087 53.1708 36.6519 52.844 38.185 52.2089C39.7182 51.5739 41.1112 50.6431 42.2846 49.4697C43.458 48.2963 44.3888 46.9033 45.0238 45.3701C45.6589 43.837 45.9857 42.1938 45.9857 40.5344V29.0658C43.5565 28.3031 41.4803 26.6964 40.1327 24.5361C38.7851 22.3758 38.255 19.8046 38.6383 17.2875C39.0216 14.7703 40.2929 12.4734 42.2224 10.8121C44.1519 9.15083 46.6122 8.23481 49.1583 8.22971C51.7045 8.22462 54.1684 9.13079 56.1045 10.7844C58.0407 12.4379 59.3212 14.7297 59.7145 17.2453C60.1079 19.7609 59.588 22.3342 58.2491 24.4999C56.9101 26.6655 54.8404 28.2806 52.4143 29.0529V40.5344C52.4143 45.5907 50.4057 50.44 46.8303 54.0154C43.2549 57.5907 38.4056 59.5994 33.3493 59.5994C28.2929 59.5994 23.4437 57.5907 19.8683 54.0154C16.2929 50.44 14.2843 45.5907 14.2843 40.5344V38.1815C10.3451 37.4873 6.7765 35.4276 4.20502 32.3639C1.63353 29.3002 0.223615 25.4285 0.222855 21.4287V6.02581Z" fill="#00AE97"/>
</svg>
