<svg width="61" height="60" viewBox="0 0 61 60" fill="none" xmlns="http://www.w3.org/2000/svg">
<path fill-rule="evenodd" clip-rule="evenodd" d="M18.7352 40.5883V55.2942H42.2646V40.5883H56.9705V17.0589H42.2646V2.35303H18.7352V17.0589H4.0293V40.5883H18.7352ZM34.1764 17.7986H30.3087C30.1718 17.7903 30.0349 17.8139 29.9087 17.8677C28.6808 18.4663 27.9102 19.5236 27.4381 20.7766C27.3499 21.0079 27.2734 21.2408 27.2087 21.4751H24.1822C24.3028 20.906 24.4661 20.3177 24.6867 19.7368C25.3367 18.0148 26.5234 16.2471 28.619 15.2236C29.1472 14.9734 29.7258 14.8476 30.3102 14.856H34.1778C34.5679 14.856 34.9419 15.0109 35.2177 15.2867C35.4935 15.5625 35.6484 15.9365 35.6484 16.3266C35.6484 16.7166 35.4935 17.0906 35.2177 17.3664C34.9419 17.6422 34.5679 17.7971 34.1778 17.7971M21.6778 22.9442C20.8661 22.9442 20.1881 23.6148 20.4087 24.3971C21.2572 27.4251 24.7116 29.781 29.0308 30.2221V32.5133C28.0087 32.5383 26.9469 32.6207 26.0455 32.8824C25.3425 33.0883 24.5969 33.4383 24.0264 34.0795C23.4293 34.7501 23.1484 35.5971 23.1484 36.5427C23.1484 37.4883 23.4278 38.3368 24.0249 39.0089C24.5955 39.6516 25.3411 40.0045 26.0455 40.2104C26.5161 40.3471 27.0308 40.4354 27.5602 40.4913V37.531C27.3267 37.4993 27.0957 37.4511 26.869 37.3868C26.4719 37.2692 26.2969 37.1398 26.2249 37.0574C26.1778 37.0045 26.0896 36.8854 26.0896 36.5427C26.0896 36.2045 26.1778 36.0868 26.2219 36.0354C26.2955 35.953 26.469 35.8221 26.869 35.706C27.4322 35.5427 28.1587 35.481 29.0308 35.4574V43.5324H24.619V46.4736H36.3837V43.5324H31.9719V35.3898C33.5925 35.2633 34.9058 34.9074 35.894 34.2707C37.2837 33.3736 37.8543 32.0398 37.8543 30.6236C37.8659 29.8673 37.6783 29.1212 37.3102 28.4604C38.9631 27.4163 40.144 26.0016 40.594 24.3971C40.8146 23.6148 40.1381 22.9442 39.3249 22.9442H21.6778ZM31.9719 32.4369C33.1616 32.3221 33.8837 32.0663 34.2999 31.7986C34.7484 31.5089 34.9131 31.1692 34.9131 30.6236C34.9131 30.2104 34.819 29.9295 34.5764 29.6971C33.7285 29.959 32.8565 30.1348 31.9734 30.2221L31.9719 32.4369Z" fill="#00AE97"/>
</svg>
