<svg width="61" height="60" viewBox="0 0 61 60" fill="white" xmlns="http://www.w3.org/2000/svg">
<path fill-rule="evenodd" clip-rule="evenodd" d="M29.6744 12.6524C24.424 6.13582 15.0437 5.7436 9.32458 11.8015C5.31771 16.0457 4.27603 22.2411 6.19943 27.5H16.452L22.9995 14.4098L30.4995 29.4075L34.2495 21.9098L37.0446 27.5H54.7999C56.7232 22.2413 55.6815 16.0457 51.6747 11.8015C45.9555 5.74371 36.5754 6.13582 31.3248 12.6524L30.4997 13.6765L29.6744 12.6524ZM51.741 32.5H34.5446L30.4995 40.5901L22.9995 25.59L19.5446 32.5H9.25837C9.28032 32.5236 9.30239 32.5471 9.32458 32.5706L30.489 54.9887L30.4994 55H30.4995L51.6746 32.5706C51.6967 32.5472 51.7188 32.5236 51.7408 32.5" fill="#00AE97"/>
</svg>
