<svg width="50" height="50" viewBox="0 0 50 50" fill="none" xmlns="http://www.w3.org/2000/svg">
<path fill-rule="evenodd" clip-rule="evenodd" d="M16.1111 33.8889V45H33.8889V33.8889H45V16.1111H33.8889V5H16.1111V16.1111H5V33.8889H16.1111ZM27.7778 16.67H24.8556C24.7521 16.6637 24.6486 16.6816 24.5533 16.7222C23.6256 17.1744 23.0433 17.9733 22.6867 18.92C22.62 19.0948 22.5622 19.2707 22.5133 19.4478H20.2267C20.3178 19.0178 20.4411 18.5733 20.6078 18.1344C21.0989 16.8333 21.9956 15.4978 23.5789 14.7244C23.978 14.5354 24.4151 14.4404 24.8567 14.4467H27.7789C28.0736 14.4467 28.3562 14.5637 28.5646 14.7721C28.7729 14.9805 28.89 15.2631 28.89 15.5578C28.89 15.8525 28.7729 16.1351 28.5646 16.3435C28.3562 16.5518 28.0736 16.6689 27.7789 16.6689M18.3344 20.5578C17.7211 20.5578 17.2089 21.0644 17.3756 21.6556C18.0167 23.9433 20.6267 25.7233 23.89 26.0567V27.7878C23.1178 27.8067 22.3156 27.8689 21.6344 28.0667C21.1033 28.2222 20.54 28.4867 20.1089 28.9711C19.6578 29.4778 19.4456 30.1178 19.4456 30.8322C19.4456 31.5467 19.6567 32.1878 20.1078 32.6956C20.5389 33.1811 21.1022 33.4478 21.6344 33.6033C21.99 33.7067 22.3789 33.7733 22.7789 33.8156V31.5789C22.6025 31.5549 22.428 31.5186 22.2567 31.47C21.9567 31.3811 21.8244 31.2833 21.77 31.2211C21.7344 31.1811 21.6678 31.0911 21.6678 30.8322C21.6678 30.5767 21.7344 30.4878 21.7678 30.4489C21.8233 30.3867 21.9544 30.2878 22.2567 30.2C22.6822 30.0767 23.2311 30.03 23.89 30.0122V36.1133H20.5567V38.3356H29.4456V36.1133H26.1122V29.9611C27.3367 29.8656 28.3289 29.5967 29.0756 29.1156C30.1256 28.4378 30.5567 27.43 30.5567 26.36C30.5655 25.7885 30.4237 25.2248 30.1456 24.7256C31.3944 23.9367 32.2867 22.8678 32.6267 21.6556C32.7933 21.0644 32.2822 20.5578 31.6678 20.5578H18.3344ZM26.1122 27.73C27.0111 27.6433 27.5567 27.45 27.8711 27.2478C28.21 27.0289 28.3344 26.7722 28.3344 26.36C28.3344 26.0478 28.2633 25.8356 28.08 25.66C27.4394 25.8578 26.7805 25.9907 26.1133 26.0567L26.1122 27.73Z" fill="white"/>
</svg>
