<svg width="50" height="50" viewBox="0 0 50 50" fill="none" xmlns="http://www.w3.org/2000/svg">
<path fill-rule="evenodd" clip-rule="evenodd" d="M22.0154 7.05973C15.654 3.13678 6.31478 4.22552 5.149 15.5278C3.97998 26.8646 9.97447 38.8615 13.186 43.455C13.9167 44.4988 15.0987 45 16.3229 45C18.3265 45 20.119 43.6624 20.7977 41.6508L21.9342 38.2947C22.1615 37.6239 22.5777 37.044 23.126 36.6341C23.6743 36.2242 24.328 36.0042 24.998 36.0042C25.668 36.0042 26.3217 36.2242 26.87 36.6341C27.4183 37.044 27.8345 37.6239 28.0618 38.2947L29.1984 41.6508C29.8803 43.6624 31.6728 45 33.6796 45C34.9006 45 36.0826 44.4988 36.81 43.455C40.0248 38.8615 46.0226 26.8646 44.8503 15.5278C43.6845 4.22552 34.3453 3.13678 27.9807 7.05973C25.9836 8.29364 24.019 8.29364 22.0154 7.05973ZM29.7115 12.9321C29.9625 12.8311 30.2299 12.7842 30.4981 12.794C30.7663 12.8037 31.0301 12.87 31.274 12.989C31.518 13.108 31.7374 13.2773 31.9195 13.4872C32.1016 13.697 32.2428 13.9432 32.3349 14.2115C32.427 14.4798 32.4682 14.7649 32.4561 15.0502C32.444 15.3356 32.3789 15.6155 32.2645 15.8739C32.15 16.1323 31.9886 16.364 31.7895 16.5555C31.5904 16.7471 31.3576 16.8947 31.1045 16.9898C28.7827 17.8884 26.8181 18.4069 24.8243 18.4C22.8175 18.3965 20.96 17.8643 18.8396 16.9691C18.5918 16.8642 18.3659 16.7084 18.1747 16.5107C17.9834 16.3129 17.8307 16.0769 17.7252 15.8163C17.6196 15.5557 17.5634 15.2755 17.5596 14.9918C17.5558 14.708 17.6045 14.4262 17.703 14.1625C17.8015 13.8988 17.9479 13.6583 18.1337 13.4548C18.3195 13.2513 18.5412 13.0887 18.786 12.9764C19.0309 12.8641 19.2941 12.8042 19.5607 12.8001C19.8273 12.7961 20.092 12.8479 20.3398 12.9528C22.2135 13.7477 23.5384 14.0761 24.834 14.0796C26.1427 14.083 27.591 13.7547 29.7115 12.9321Z" fill="white"/>
</svg>
