<svg width="50" height="50" viewBox="0 0 50 50" fill="none" xmlns="http://www.w3.org/2000/svg">
<path d="M25.0071 37.0836C36.8257 37.0836 45 27.5221 45 24.5414C45 21.5464 36.8107 12 25.0071 12C13.2771 12 5 21.5464 5 24.5414C5 27.5221 13.3364 37.0836 25.0071 37.0836ZM25.0071 32.76C20.4036 32.76 16.7743 29.0271 16.745 24.5414C16.73 19.9386 20.4036 16.3243 25.0071 16.3243C29.5814 16.3243 33.255 19.9386 33.255 24.5421C33.255 29.0279 29.5814 32.7607 25.0071 32.7607M25.0071 27.5079C26.645 27.5079 28.0029 26.165 28.0029 24.5421C28.0029 22.9043 26.6457 21.5621 25.0071 21.5621C23.355 21.5621 21.9971 22.905 21.9971 24.5421C21.9971 26.1657 23.3543 27.5079 25.0071 27.5079Z" fill="white"/>
</svg>
