<svg width="50" height="50" viewBox="0 0 50 50" fill="none" xmlns="http://www.w3.org/2000/svg">
<path d="M23.0016 5C26.887 4.9994 30.6398 6.41261 33.5597 8.97588C36.4795 11.5391 38.3669 15.0773 38.8696 18.93L43.3696 26.008C43.6656 26.474 43.6056 27.168 42.9196 27.464L39.0016 29.14V35C39.0016 36.0609 38.5802 37.0783 37.83 37.8284C37.0799 38.5786 36.0625 39 35.0016 39H31.0036L31.0016 45H13.0016V37.612C13.0016 35.252 12.1296 33.018 10.5116 31.002C8.62702 28.6489 7.44557 25.8113 7.1034 22.816C6.76123 19.8207 7.27225 16.7897 8.5776 14.0722C9.88294 11.3547 11.9295 9.06132 14.4814 7.45623C17.0334 5.85114 19.9869 4.9997 23.0016 5ZM21.9416 16.526C21.2816 15.8883 20.3976 15.5354 19.4799 15.5431C18.5622 15.5509 17.6843 15.9188 17.0352 16.5676C16.3862 17.2164 16.0179 18.0942 16.0098 19.0119C16.0016 19.9296 16.3542 20.8138 16.9916 21.474L23.0016 27.486L29.0116 21.474C29.3458 21.1511 29.6124 20.7648 29.7957 20.3378C29.9791 19.9107 30.0755 19.4514 30.0795 18.9867C30.0834 18.522 29.9948 18.0611 29.8187 17.631C29.6426 17.2009 29.3827 16.8102 29.054 16.4816C28.7253 16.1531 28.3345 15.8932 27.9043 15.7174C27.4741 15.5415 27.0132 15.453 26.5485 15.4571C26.0838 15.4613 25.6245 15.5579 25.1975 15.7414C24.7706 15.9249 24.3844 16.1916 24.0616 16.526L23.0016 17.586L21.9416 16.526Z" fill="white"/>
</svg>
