<svg width="55" height="54" viewBox="0 0 55 54" fill="none" xmlns="http://www.w3.org/2000/svg">
<path d="M28.5804 26.4599C26.6157 28.271 16.7004 38.8799 13.4604 38.8799C9.68043 38.8799 7.40627 38.4978 5.5168 36.6084C3.62733 34.7189 2.54184 32.1719 2.4875 29.5003C2.43315 26.8288 3.41415 24.2397 5.22521 22.275L22.7752 4.72496C24.74 2.9139 27.329 1.9329 30.0006 1.98725C32.6721 2.0416 35.2191 3.12709 37.1086 5.01655C38.9981 6.90602 39.3804 9.71992 38.8404 12.4199C37.7604 17.8199 30.3915 24.4952 28.5804 26.4599ZM13.998 13.4977L28.5804 26.4599Z" fill="#D9D9D9"/>
<path d="M28.5804 26.4599C26.6157 28.271 16.7004 38.8799 13.4604 38.8799C9.68043 38.8799 7.40627 38.4978 5.5168 36.6084C3.62733 34.7189 2.54184 32.1719 2.4875 29.5003C2.43315 26.8288 3.41415 24.2397 5.22521 22.275L22.7752 4.72496C24.74 2.9139 27.329 1.9329 30.0006 1.98725C32.6721 2.0416 35.2191 3.12709 37.1086 5.01655C38.9981 6.90602 39.3804 9.71992 38.8404 12.4199C37.7604 17.8199 30.3915 24.4952 28.5804 26.4599ZM28.5804 26.4599L13.998 13.4977" stroke="#00AE97" stroke-width="2" stroke-linecap="round" stroke-linejoin="round"/>
<path d="M48.0205 32.1975C48.0277 36.127 46.6936 39.9413 44.2389 43.0097C41.7842 46.0781 38.3558 48.2169 34.5205 49.0725C30.6853 48.2169 27.2569 46.0781 24.8022 43.0097C22.3474 39.9413 21.0134 36.127 21.0205 32.1975V27.135C21.0205 26.2399 21.3761 25.3815 22.0091 24.7485C22.642 24.1156 23.5004 23.76 24.3955 23.76H44.6455C45.5406 23.76 46.3991 24.1156 47.032 24.7485C47.665 25.3815 48.0205 26.2399 48.0205 27.135V32.1975ZM34.5205 30.51V40.635ZM29.458 35.5725H39.583Z" fill="#D9D9D9"/>
<path d="M34.5205 30.51V40.635M29.458 35.5725H39.583M48.0205 32.1975C48.0277 36.127 46.6936 39.9413 44.2389 43.0097C41.7842 46.0781 38.3558 48.2169 34.5205 49.0725C30.6853 48.2169 27.2569 46.0781 24.8022 43.0097C22.3474 39.9413 21.0134 36.127 21.0205 32.1975V27.135C21.0205 26.2399 21.3761 25.3815 22.0091 24.7485C22.642 24.1156 23.5004 23.76 24.3955 23.76H44.6455C45.5406 23.76 46.3991 24.1156 47.032 24.7485C47.665 25.3815 48.0205 26.2399 48.0205 27.135V32.1975Z" stroke="#00AE97" stroke-width="2" stroke-linecap="round" stroke-linejoin="round"/>
</svg>

