<svg width="50" height="44" viewBox="0 0 50 44" fill="none" xmlns="http://www.w3.org/2000/svg">
<g clip-path="url(#clip0_3305_4078)">
<path d="M13.8785 15.1096H19.4341V20.6096C19.4341 20.9743 19.5804 21.324 19.8409 21.5819C20.1013 21.8398 20.4546 21.9846 20.823 21.9846H26.3785C26.7469 21.9846 27.1002 21.8398 27.3606 21.5819C27.6211 21.324 27.7674 20.9743 27.7674 20.6096V15.1096H33.323C33.6913 15.1096 34.0446 14.9648 34.3051 14.7069C34.5655 14.449 34.7119 14.0993 34.7119 13.7346V8.23462C34.7119 7.86995 34.5655 7.52021 34.3051 7.26235C34.0446 7.00449 33.6913 6.85962 33.323 6.85962H27.7674V1.35962C27.7674 0.994946 27.6211 0.64521 27.3606 0.387347C27.1002 0.129485 26.7469 -0.0153809 26.3785 -0.0153809H20.823C20.4546 -0.0153809 20.1013 0.129485 19.8409 0.387347C19.5804 0.64521 19.4341 0.994946 19.4341 1.35962V6.85962H13.8785C13.5102 6.85962 13.1569 7.00449 12.8964 7.26235C12.636 7.52021 12.4896 7.86995 12.4896 8.23462V13.7346C12.4896 14.0993 12.636 14.449 12.8964 14.7069C13.1569 14.9648 13.5102 15.1096 13.8785 15.1096ZM49.3117 28.8863C49.0418 28.522 48.702 28.2142 48.3116 27.9803C47.9212 27.7465 47.488 27.5913 47.0369 27.5237C46.5858 27.4561 46.1256 27.4773 45.6828 27.5862C45.24 27.6951 44.8233 27.8896 44.4567 28.1584L34.0686 35.7363H23.599C23.2307 35.7363 22.8774 35.5915 22.6169 35.3336C22.3565 35.0757 22.2101 34.726 22.2101 34.3613C22.2101 33.9967 22.3565 33.6469 22.6169 33.3891C22.8774 33.1312 23.2307 32.9863 23.599 32.9863H30.3907C31.7796 32.9863 33.0599 32.0522 33.2874 30.6995C33.3545 30.3046 33.3339 29.8998 33.2268 29.5136C33.1198 29.1273 32.929 28.7688 32.6677 28.463C32.4064 28.1572 32.0809 27.9115 31.7139 27.7429C31.3469 27.5744 30.9472 27.4871 30.5426 27.4872H16.6537C14.3112 27.4867 12.0397 28.2831 10.2197 29.7431L6.18321 32.9863H1.37766C1.01007 32.9888 0.658257 33.1345 0.39833 33.3918C0.138403 33.6491 -0.00872904 33.9974 -0.0112305 34.3613V42.6113C-0.00872904 42.9752 0.138403 43.3235 0.39833 43.5809C0.658257 43.8382 1.01007 43.9839 1.37766 43.9863H31.4992C33.4258 43.9818 35.3011 43.3718 36.8551 42.2444L48.5764 33.6876C49.3162 33.1468 49.8091 32.3376 49.947 31.4374C50.0848 30.5373 49.8563 29.6198 49.3117 28.8863Z" fill="white"/>
</g>
<defs>
<clipPath id="clip0_3305_4078">
<rect width="50" height="44" fill="white"/>
</clipPath>
</defs>
</svg>
