<svg width="51" height="50" viewBox="0 0 51 50" fill="none" xmlns="http://www.w3.org/2000/svg">
    <path d="M23.5016 5C27.387 4.9994 31.1398 6.41261 34.0597 8.97588C36.9795 11.5391 38.8669 15.0773 39.3696 18.93L43.8696 26.008C44.1656 26.474 44.1056 27.168 43.4196 27.464L39.5016 29.14V35C39.5016 36.0609 39.0802 37.0783 38.33 37.8284C37.5799 38.5786 36.5625 39 35.5016 39H31.5036L31.5016 45H13.5016V37.612C13.5016 35.252 12.6296 33.018 11.0116 31.002C9.12702 28.6489 7.94557 25.8113 7.6034 22.816C7.26123 19.8207 7.77225 16.7897 9.0776 14.0722C10.3829 11.3547 12.4295 9.06132 14.9814 7.45623C17.5334 5.85114 20.4869 4.9997 23.5016 5ZM22.4416 16.526C21.7816 15.8883 20.8976 15.5354 19.9799 15.5431C19.0622 15.5509 18.1843 15.9188 17.5352 16.5676C16.8862 17.2164 16.5179 18.0942 16.5098 19.0119C16.5016 19.9296 16.8542 20.8138 17.4916 21.474L23.5016 27.486L29.5116 21.474C29.8458 21.1511 30.1124 20.7648 30.2957 20.3378C30.4791 19.9107 30.5755 19.4514 30.5795 18.9867C30.5834 18.522 30.4948 18.0611 30.3187 17.631C30.1426 17.2009 29.8827 16.8102 29.554 16.4816C29.2253 16.1531 28.8345 15.8932 28.4043 15.7174C27.9741 15.5415 27.5132 15.453 27.0485 15.4571C26.5838 15.4613 26.1245 15.5579 25.6975 15.7414C25.2706 15.9249 24.8844 16.1916 24.5616 16.526L23.5016 17.586L22.4416 16.526Z" fill="white"/>
</svg>
