<svg width="50" height="50" viewBox="0 0 50 50" fill="none" xmlns="http://www.w3.org/2000/svg">
<path d="M38.2813 45.9895L40.6771 43.5937L31.4063 34.3228L29.0104 36.7187C27.7257 38.0034 27.0833 39.5485 27.0833 41.3541C27.0833 43.1596 27.7257 44.7048 29.0104 45.9895C30.2951 47.2742 31.8403 47.9166 33.6458 47.9166C35.4514 47.9166 36.9965 47.2742 38.2813 45.9895ZM43.5938 40.677L45.9896 38.2812C47.2743 36.9964 47.9167 35.4513 47.9167 33.6457C47.9167 31.8402 47.2743 30.2951 45.9896 29.0103C44.7049 27.7256 43.1597 27.0833 41.3542 27.0833C39.5486 27.0833 38.0035 27.7256 36.7188 29.0103L34.3229 31.4062L43.5938 40.677ZM14.5833 18.7499H35.4167V14.5833H14.5833V18.7499ZM25 8.85409C25.4514 8.85409 25.825 8.70617 26.1208 8.41034C26.4167 8.1145 26.5639 7.74159 26.5625 7.29159C26.5611 6.84159 26.4132 6.46867 26.1188 6.17284C25.8243 5.877 25.4514 5.72909 25 5.72909C24.5486 5.72909 24.1757 5.877 23.8813 6.17284C23.5868 6.46867 23.4389 6.84159 23.4375 7.29159C23.4361 7.74159 23.584 8.1152 23.8813 8.41242C24.1785 8.70964 24.5514 8.85686 25 8.85409ZM23.1771 43.7499H6.25V6.24992H19.1667C19.6181 4.99992 20.3736 3.99297 21.4333 3.22909C22.4931 2.4652 23.6819 2.08325 25 2.08325C26.3181 2.08325 27.5076 2.4652 28.5688 3.22909C29.6299 3.99297 30.3847 4.99992 30.8333 6.24992H43.75V23.177C42.2917 22.8298 40.8424 22.8034 39.4021 23.0978C37.9618 23.3923 36.6333 23.9402 35.4167 24.7416V22.9166H14.5833V27.0833H32.7604L28.5938 31.2499H14.5833V35.4166H24.7396C23.941 36.6319 23.3938 37.9603 23.0979 39.402C22.8021 40.8437 22.8292 42.293 23.1792 43.7499" fill="white"/>
</svg>
