<svg width="50" height="50" viewBox="0 0 50 50" fill="none" xmlns="http://www.w3.org/2000/svg">
<path d="M39.1667 9L47.5 17.3333ZM43.3333 13.1667L33.9583 22.5417ZM27.7083 16.2917L40.2083 28.7917ZM38.125 26.7083L24.5833 40.25H16.25V31.9167L29.7917 18.375M19.375 28.7917L22.5 31.9167ZM10 46.5L16.25 40.25Z" fill="#D9D9D9"/>
<path d="M39.1667 9L47.5 17.3333M43.3333 13.1667L33.9583 22.5417M27.7083 16.2917L40.2083 28.7917M38.125 26.7083L24.5833 40.25H16.25M16.25 40.25V31.9167L29.7917 18.375M16.25 40.25L10 46.5M19.375 28.7917L22.5 31.9167M25.625 22.5417L29.25 26.25" stroke="white" stroke-width="2" stroke-linecap="round" stroke-linejoin="round"/>
<path d="M23.9808 23L29 27.9444M20.5 26.5L24.8462 31" stroke="#00AE97" stroke-width="2.5" stroke-linecap="round" stroke-linejoin="round"/>
</svg>



