<svg width="50" height="50" viewBox="0 0 50 50" fill="none" xmlns="http://www.w3.org/2000/svg">
<path d="M20.3125 3.125C17.827 3.12789 15.4441 4.11654 13.6866 5.87407C11.929 7.6316 10.9404 10.0145 10.9375 12.5H14.0625C14.0625 10.8424 14.721 9.25268 15.8931 8.08058C17.0652 6.90848 18.6549 6.25 20.3125 6.25C21.9701 6.25 23.5598 6.90848 24.7319 8.08058C25.904 9.25268 26.5625 10.8424 26.5625 12.5H29.6875C29.6846 10.0145 28.696 7.6316 26.9384 5.87407C25.1809 4.11654 22.798 3.12789 20.3125 3.125Z" fill="white"/>
<path d="M32.8122 46.875H25.8747C24.3071 46.8746 22.7968 46.2851 21.6435 45.2234L7.26846 31.9953C6.93283 31.6885 6.66813 31.3122 6.49281 30.8926C6.31749 30.473 6.23576 30.0202 6.25331 29.5658C6.27086 29.1114 6.38727 28.6663 6.59444 28.2615C6.8016 27.8567 7.09454 27.5019 7.45283 27.2219C8.06667 26.7722 8.81918 26.5528 9.57853 26.6022C10.3379 26.6516 11.0556 26.9667 11.606 27.4922L17.1872 32.5891V12.5C17.1872 11.6712 17.5164 10.8763 18.1025 10.2903C18.6886 9.70424 19.4834 9.375 20.3122 9.375C21.141 9.375 21.9359 9.70424 22.5219 10.2903C23.108 10.8763 23.4372 11.6712 23.4372 12.5V23.4375C23.4372 22.6087 23.7664 21.8138 24.3525 21.2278C24.9386 20.6417 25.7334 20.3125 26.5622 20.3125C27.391 20.3125 28.1859 20.6417 28.7719 21.2278C29.358 21.8138 29.6872 22.6087 29.6872 23.4375V25C29.6872 24.1712 30.0164 23.3763 30.6025 22.7903C31.1886 22.2042 31.9834 21.875 32.8122 21.875C33.641 21.875 34.4359 22.2042 35.0219 22.7903C35.608 23.3763 35.9372 24.1712 35.9372 25V26.5625C35.9372 25.7337 36.2665 24.9388 36.8525 24.3528C37.4386 23.7667 38.2334 23.4375 39.0622 23.4375C39.891 23.4375 40.6859 23.7667 41.2719 24.3528C41.858 24.9388 42.1872 25.7337 42.1872 26.5625V37.5C42.1872 39.9864 41.1995 42.371 39.4413 44.1291C37.6832 45.8873 35.2986 46.875 32.8122 46.875Z" fill="white"/>
</svg>
