<svg width="50" height="50" viewBox="0 0 50 50" fill="none" xmlns="http://www.w3.org/2000/svg">
<path d="M8.99592 42.966H8.49592V43.466C8.49592 44.2516 8.808 45.0051 9.3635 45.5606C9.91901 46.1161 10.6724 46.4282 11.458 46.4282H44.0811C44.4383 46.4282 44.7808 46.57 45.0333 46.8226C45.2859 47.0751 45.4277 47.4176 45.4277 47.7747C45.4277 48.1319 45.2859 48.4744 45.0333 48.7269C44.7808 48.9795 44.4383 49.1213 44.0811 49.1213H11.458C9.95816 49.1213 8.51971 48.5255 7.45913 47.4649C6.39856 46.4044 5.80273 44.9659 5.80273 43.466V6.53421C5.80273 5.03433 6.39856 3.59588 7.45913 2.53531C8.51971 1.47473 9.95816 0.878906 11.458 0.878906H39.7724C40.5151 0.878906 41.2505 1.02519 41.9366 1.30939C42.6228 1.5936 43.2462 2.01016 43.7713 2.53531C44.2965 3.06045 44.713 3.68389 44.9972 4.37002C45.2815 5.05615 45.4277 5.79155 45.4277 6.53421V41.6194C45.4277 41.9766 45.2859 42.3191 45.0333 42.5716C44.7808 42.8242 44.4383 42.966 44.0811 42.966H8.99592ZM35.1619 33.464L35.1746 33.4766L35.1882 33.4884L35.3531 33.6312L35.3664 33.6427L35.3804 33.6532L35.4001 33.668L35.4001 33.668L35.4065 33.6727C35.8698 34.0087 36.4424 34.1584 37.0108 34.0922C37.5793 34.026 38.1021 33.7486 38.4757 33.3151C38.8494 32.8816 39.0465 32.3236 39.0281 31.7516C39.0097 31.1796 38.7771 30.6353 38.3764 30.2267L38.373 30.2233L32.5779 24.4259C33.7507 22.5005 34.2161 20.2211 33.8851 17.9824C33.534 15.6073 32.3119 13.4479 30.4565 11.9242C28.6012 10.4005 26.2453 9.62153 23.8473 9.73893C21.4493 9.85634 19.1808 10.8617 17.4832 12.5593C15.7855 14.257 14.7802 16.5255 14.6628 18.9235C14.5454 21.3215 15.3243 23.6773 16.848 25.5327C18.3717 27.3881 20.5312 28.6102 22.9062 28.9613C25.145 29.2922 27.4243 28.8269 29.3497 27.6541L35.1619 33.464ZM20.7104 15.7853C21.6677 14.8279 22.9662 14.2901 24.3202 14.2901C25.6741 14.2901 26.9726 14.8279 27.93 15.7853C28.8873 16.7427 29.4252 18.0412 29.4252 19.3951C29.4252 20.749 28.8873 22.0475 27.93 23.0049C26.9726 23.9623 25.6741 24.5001 24.3202 24.5001C22.9662 24.5001 21.6677 23.9623 20.7104 23.0049C19.753 22.0475 19.2151 20.749 19.2151 19.3951C19.2151 18.0412 19.753 16.7427 20.7104 15.7853Z" fill="white" stroke="white"/>
</svg>
