<svg width="50" height="50" viewBox="0 0 50 50" fill="none" xmlns="http://www.w3.org/2000/svg">
<g clip-path="url(#clip0_1146_1046)">
<path d="M17.438 37.3488H17.688V37.0988V34.0741V33.8241H17.438H14.4133H14.1633V34.0741V37.0988V37.3488H14.4133H17.438ZM17.438 31.2994H17.688V31.0494V28.0247V27.7747H17.438H14.4133H14.1633V28.0247V31.0494V31.2994H14.4133H17.438ZM17.438 25.25H17.688V25V21.9753V21.7253H17.438H14.4133H14.1633V21.9753V25V25.25H14.4133H17.438ZM17.438 19.2006H17.688V18.9506V15.9259V15.6759H17.438H14.4133H14.1633V15.9259V18.9506V19.2006H14.4133H17.438ZM17.438 13.1513H17.688V12.9013V9.87656V9.62656H17.438H14.4133H14.1633V9.87656V12.9013V13.1513H14.4133H17.438ZM35.5861 37.3488H35.8361V37.0988V34.0741V33.8241H35.5861H20.4627H20.2127V34.0741V37.0988V37.3488H20.4627H35.5861ZM35.5861 31.2994H35.8361V31.0494V28.0247V27.7747H35.5861H20.4627H20.2127V28.0247V31.0494V31.2994H20.4627H35.5861ZM35.5861 25.25H35.8361V25V21.9753V21.7253H35.5861H20.4627H20.2127V21.9753V25V25.25H20.4627H35.5861ZM35.5861 19.2006H35.8361V18.9506V15.9259V15.6759H35.5861H20.4627H20.2127V15.9259V18.9506V19.2006H20.4627H35.5861ZM35.5861 13.1513H35.8361V12.9013V9.87656V9.62656H35.5861H20.4627H20.2127V9.87656V12.9013V13.1513H20.4627H35.5861ZM9.87625 1.05249H40.1232C40.8591 1.05249 41.5648 1.34482 42.0852 1.86518C42.6055 2.38553 42.8979 3.09129 42.8979 3.82718V46.1729C42.8979 46.9088 42.6055 47.6145 42.0852 48.1349C41.5648 48.6552 40.8591 48.9475 40.1232 48.9475H9.87625C9.14036 48.9475 8.43461 48.6552 7.91425 48.1349C7.3939 47.6145 7.10156 46.9088 7.10156 46.1729V3.82718C7.10156 3.09129 7.3939 2.38553 7.91425 1.86518C8.43461 1.34482 9.14036 1.05249 9.87625 1.05249Z" fill="white" stroke="white" stroke-width="0.5"/>
</g>
<defs>
<clipPath id="clip0_1146_1046">
<rect width="50" height="50" fill="white"/>
</clipPath>
</defs>
</svg>
