<svg width="50" height="50" viewBox="0 0 50 50" fill="none" xmlns="http://www.w3.org/2000/svg">
<g clip-path="url(#clip0_1146_1059)">
<path d="M46.4129 46.875V46.8906H46.4286H48.6607C49.3937 46.8906 49.9844 47.4102 49.9844 48.0469V49.9844H0.015625V48.0469C0.015625 47.4102 0.60627 46.8906 1.33929 46.8906H3.57143H3.58705V46.875V2.34375C3.58705 1.05984 4.77725 0.015625 6.25 0.015625H43.75C45.2227 0.015625 46.4129 1.05984 46.4129 2.34375V46.875ZM28.5714 46.8906H28.5871V46.875V38.6719C28.5871 38.0142 27.9784 37.4844 27.2321 37.4844H22.7679C22.0216 37.4844 21.4129 38.0142 21.4129 38.6719V46.875V46.8906H21.4286H28.5714ZM15.625 6.23438C14.8788 6.23438 14.2701 6.76418 14.2701 7.42188V11.3281C14.2701 11.9858 14.8788 12.5156 15.625 12.5156H20.0893C20.8355 12.5156 21.4442 11.9858 21.4442 11.3281V7.42188C21.4442 6.76418 20.8355 6.23438 20.0893 6.23438H15.625ZM15.625 15.6094C14.8788 15.6094 14.2701 16.1392 14.2701 16.7969V20.7031C14.2701 21.3608 14.8788 21.8906 15.625 21.8906H20.0893C20.8355 21.8906 21.4442 21.3608 21.4442 20.7031V16.7969C21.4442 16.1392 20.8355 15.6094 20.0893 15.6094H15.625ZM15.625 31.2656H20.0893C20.8355 31.2656 21.4442 30.7358 21.4442 30.0781V26.1719C21.4442 25.5142 20.8355 24.9844 20.0893 24.9844H15.625C14.8788 24.9844 14.2701 25.5142 14.2701 26.1719V30.0781C14.2701 30.7358 14.8788 31.2656 15.625 31.2656ZM34.375 31.2656C35.1212 31.2656 35.7299 30.7358 35.7299 30.0781V26.1719C35.7299 25.5142 35.1212 24.9844 34.375 24.9844H29.9107C29.1645 24.9844 28.5558 25.5142 28.5558 26.1719V30.0781C28.5558 30.7358 29.1645 31.2656 29.9107 31.2656H34.375ZM34.375 21.8906C35.1212 21.8906 35.7299 21.3608 35.7299 20.7031V16.7969C35.7299 16.1392 35.1212 15.6094 34.375 15.6094H29.9107C29.1645 15.6094 28.5558 16.1392 28.5558 16.7969V20.7031C28.5558 21.3608 29.1645 21.8906 29.9107 21.8906H34.375ZM34.375 12.5156C35.1212 12.5156 35.7299 11.9858 35.7299 11.3281V7.42188C35.7299 6.76418 35.1212 6.23438 34.375 6.23438H29.9107C29.1645 6.23438 28.5558 6.76418 28.5558 7.42188V11.3281C28.5558 11.9858 29.1645 12.5156 29.9107 12.5156H34.375Z" fill="white" stroke="white" stroke-width="0.03125"/>
</g>
<defs>
<clipPath id="clip0_1146_1059">
<rect width="50" height="50" fill="white"/>
</clipPath>
</defs>
</svg>
