<svg width="22" height="22" viewBox="0 0 22 22" fill="none" xmlns="http://www.w3.org/2000/svg">
<path d="M11.0007 1.83325C16.0634 1.83325 20.1673 5.93717 20.1673 10.9999C20.1673 16.0627 16.0634 20.1666 11.0007 20.1666C9.38069 20.1694 7.7892 19.7407 6.38983 18.9245L1.83767 20.1666L3.077 15.6126C2.26021 14.2128 1.83116 12.6206 1.834 10.9999C1.834 5.93717 5.93792 1.83325 11.0007 1.83325ZM7.87667 6.69159L7.69333 6.69892C7.5748 6.70709 7.45898 6.73822 7.35233 6.79059C7.25294 6.84697 7.16218 6.91736 7.08283 6.99959C6.97283 7.10317 6.9105 7.193 6.84358 7.28009C6.50453 7.72091 6.32197 8.26212 6.32475 8.81825C6.32658 9.26742 6.44392 9.70467 6.62725 10.1135C7.00217 10.9403 7.61908 11.8158 8.43308 12.627C8.62925 12.8223 8.82175 13.0184 9.02892 13.2008C10.0404 14.0913 11.2457 14.7335 12.5489 15.0763L13.0696 15.1561C13.2392 15.1653 13.4087 15.1524 13.5792 15.1442C13.8462 15.1301 14.1068 15.0578 14.3428 14.9324C14.4628 14.8704 14.5799 14.8031 14.6939 14.7308C14.6939 14.7308 14.7327 14.7045 14.8085 14.6483C14.9323 14.5566 15.0083 14.4915 15.111 14.3843C15.188 14.3048 15.2522 14.2125 15.3035 14.1074C15.375 13.958 15.4465 13.6729 15.4758 13.4355C15.4978 13.254 15.4914 13.155 15.4887 13.0936C15.485 12.9955 15.4034 12.8938 15.3145 12.8507L14.781 12.6114C14.781 12.6114 13.9835 12.264 13.4958 12.0422C13.4448 12.0199 13.3901 12.0072 13.3345 12.0046C13.2718 11.998 13.2084 12.005 13.1486 12.0251C13.0888 12.0452 13.034 12.0779 12.988 12.121C12.9834 12.1192 12.922 12.1714 12.2592 12.9744C12.2212 13.0255 12.1688 13.0642 12.1087 13.0854C12.0487 13.1066 11.9836 13.1095 11.9219 13.0936C11.8622 13.0777 11.8037 13.0574 11.7468 13.0331C11.6332 12.9854 11.5937 12.9671 11.5158 12.9341C10.9896 12.7048 10.5024 12.3946 10.0721 12.0147C9.95658 11.9138 9.84933 11.8038 9.73933 11.6975C9.37873 11.3521 9.06444 10.9614 8.80433 10.5352L8.75025 10.4481C8.71199 10.3892 8.68062 10.3262 8.65675 10.2602C8.62192 10.1254 8.71267 10.0173 8.71267 10.0173C8.71267 10.0173 8.93542 9.77342 9.039 9.64142C9.13983 9.51309 9.22508 9.38842 9.28008 9.2995C9.38825 9.12534 9.42217 8.94659 9.36533 8.80817C9.10867 8.18117 8.84344 7.55753 8.56967 6.93725C8.51558 6.81442 8.35517 6.72642 8.20942 6.709C8.15992 6.70289 8.11041 6.698 8.06091 6.69434C7.93783 6.68728 7.81442 6.6885 7.6915 6.698L7.87667 6.69159Z" fill="#01A19A"/>
</svg>
