<svg width="129" height="100" viewBox="0 0 129 100" fill="none" xmlns="http://www.w3.org/2000/svg">
<g clip-path="url(#clip0_986_5628)">
<path d="M13.0558 59.4751H5.7292C5.7597 57.1369 5.3588 49.5321 8.44256 41.1538C12.3281 30.5986 18.5552 27.7778 18.5552 27.7778C18.5552 27.7778 15.271 33.3987 13.9971 41.7163C12.9033 48.8634 13.005 57.2554 13.0558 59.4765V59.4751Z" fill="#01A19A"/>
<path d="M16.8906 65.6572H24.4134V70.4743L16.8906 73.8742V65.6572Z" fill="#01A19A"/>
<path d="M16.8898 76.8493L24.4126 73.4495V77.5717H15.3545L16.8898 76.8493Z" fill="#01A19A"/>
<path d="M8.71299 77.5718H6.47461V65.6572H13.9974V75.1825L8.71299 77.5718Z" fill="#01A19A"/>
<path d="M24.413 79.7073H1.38281V83.9908H24.413V79.7073Z" fill="#01A19A"/>
<path d="M24.2382 64.0827H3.29244C2.49354 64.0827 1.8457 63.454 1.8457 62.6778C1.8457 61.9016 2.49354 61.2729 3.29244 61.2729H24.2396V64.0827H24.2382Z" fill="#01A19A"/>
<path d="M24.3559 22.8311H21.6934V24.4607H24.3559V22.8311Z" fill="#01A19A"/>
<path d="M19.335 20.4473C19.335 19.9937 19.7126 19.627 20.1789 19.627H24.355V21.2662H20.1789C19.7126 21.2662 19.335 20.8995 19.335 20.4473Z" fill="#01A19A"/>
<path d="M19.6582 11.6363C19.6582 11.1841 20.0359 10.8174 20.5021 10.8174H24.3543V12.4566H20.5021C20.0359 12.4566 19.6582 12.0899 19.6582 11.6377V11.6363Z" fill="#01A19A"/>
<path d="M24.3559 13.6272H21.6934V18.6167H24.3559V13.6272Z" fill="#01A19A"/>
<path d="M23.6994 9.26912C23.2026 8.99201 22.9092 8.46397 22.9092 7.90698V1.37065C22.9092 0.777815 23.2868 0.230478 23.8679 0.0540067C24.0393 0.00161673 24.1845 -0.00665536 24.3283 0.00713147C24.3443 0.00713147 24.3559 0.0209183 24.3559 0.0360838V9.40423C24.1584 9.42491 23.9623 9.41526 23.6994 9.26912Z" fill="#01A19A"/>
<path d="M16.6074 53.347C16.6074 49.6687 16.9023 38.704 19.3368 33.1259C21.7712 27.5491 24.4134 26.4282 24.4134 26.4282V59.4753H16.6074C16.6074 59.4753 16.6074 57.0253 16.6074 53.347Z" fill="#01A19A"/>
<path d="M7.48235 97.71C7.48235 99.232 6.58613 99.9958 4.79223 100C3.00414 100 2.10938 99.2362 2.10938 97.71V91.0551C2.10938 89.533 3.00414 88.772 4.79223 88.772C6.58032 88.772 7.48235 89.533 7.48235 91.0551V92.5165H5.61292V91.0551C5.61292 90.5656 5.34129 90.3216 4.79949 90.3216H4.78642C4.24898 90.3216 3.98026 90.5656 3.98026 91.0551V97.71C3.98026 98.1994 4.25188 98.4434 4.79368 98.4434C5.33548 98.4434 5.61292 98.1994 5.61292 97.71V96.2486H7.48235V97.71Z" fill="#636466"/>
<path d="M14.2421 97.71C14.2421 99.232 13.3459 99.9958 11.552 100C9.76391 100 8.86914 99.2362 8.86914 97.71V91.0551C8.86914 89.533 9.76391 88.772 11.552 88.772C13.3401 88.772 14.2421 89.533 14.2421 91.0551V97.71ZM12.3712 91.0551C12.3712 90.5656 12.0996 90.3216 11.5578 90.3216H11.5447C11.0073 90.3216 10.7386 90.5656 10.7386 91.0551V97.71C10.7386 98.1994 11.0102 98.4434 11.552 98.4434C12.0938 98.4434 12.3712 98.1994 12.3712 97.71V91.0551Z" fill="#636466"/>
<path d="M15.8291 88.9224H17.6985L19.4692 95.2326V88.9224H21.2006V99.7988H19.3312L17.6259 93.6899V99.7988H15.8291V88.9224Z" fill="#636466"/>
<path d="M28.1591 97.71C28.1591 99.232 27.2629 99.9958 25.469 100C23.6809 100 22.7861 99.2362 22.7861 97.71V91.0551C22.7861 89.533 23.6809 88.772 25.469 88.772C27.2571 88.772 28.1591 89.533 28.1591 91.0551V92.5165H26.2897V91.0551C26.2897 90.5656 26.0181 90.3216 25.4763 90.3216H25.4632C24.9257 90.3216 24.657 90.5656 24.657 91.0551V97.71C24.657 98.1994 24.9286 98.4434 25.4704 98.4434C26.0122 98.4434 26.2897 98.1994 26.2897 97.71V95.158H25.4763V93.6084H28.1591V97.71Z" fill="#636466"/>
<path d="M29.7461 88.9224H32.4682C34.1284 88.9224 34.9593 89.6862 34.9593 91.2124V92.8433C34.9593 93.8015 34.4683 94.4316 33.4864 94.7376L35.5882 99.7988H33.5401L31.8552 95.0134L31.617 95.0451V99.7988H29.7475V88.9224H29.7461ZM31.6155 90.4651V93.5823H32.0455C32.3055 93.5823 32.4841 93.5672 32.5815 93.5382C32.9199 93.4251 33.0899 93.1935 33.0899 92.842V91.211C33.0899 90.7133 32.8182 90.4637 32.2764 90.4637H31.6155V90.4651Z" fill="#636466"/>
<path d="M36.2881 88.9224H41.1381V90.4651H38.1575V93.5823H40.7213V95.1375H38.1575V98.2492H41.1381V99.7988H36.2881V88.9224Z" fill="#636466"/>
<path d="M42.3936 91.0551C42.3936 89.533 43.2883 88.772 45.0764 88.772C46.8645 88.772 47.7665 89.533 47.7665 91.0551V92.5165H45.8971V91.0551C45.8971 90.5656 45.6255 90.3216 45.0837 90.3216H45.0706C44.5332 90.3216 44.2644 90.5656 44.2644 91.0551V92.0395C44.2644 92.5247 44.8484 93.1176 46.0162 93.8207C47.1841 94.5183 47.768 95.3566 47.768 96.3354V97.7086C47.768 99.2348 46.8732 99.9986 45.0851 99.9986C43.2927 99.9944 42.395 99.232 42.395 97.7086V96.2472H44.2644V97.7086C44.2644 98.198 44.5375 98.4421 45.0837 98.4421C45.6298 98.4421 45.8971 98.198 45.8971 97.7086V96.4664C45.8971 95.9397 45.3132 95.3249 44.1453 94.6217C42.9775 93.9241 42.3936 93.0748 42.3936 92.0753V91.0523V91.0551Z" fill="#636466"/>
<path d="M54.5917 97.71C54.5917 99.232 53.6955 99.9958 51.9016 100C50.1135 100 49.2188 99.2362 49.2188 97.71V91.0551C49.2188 89.533 50.1135 88.772 51.9016 88.772C53.6897 88.772 54.5917 89.533 54.5917 91.0551V97.71ZM52.7223 91.0551C52.7223 90.5656 52.4507 90.3216 51.9089 90.3216H51.8958C51.3584 90.3216 51.0896 90.5656 51.0896 91.0551V97.71C51.0896 98.1994 51.3613 98.4434 51.9031 98.4434C52.4449 98.4434 52.7223 98.1994 52.7223 97.71V91.0551Z" fill="#636466"/>
<path d="M59.5352 88.9224H62.417C64.0773 88.9224 64.9081 89.6862 64.9081 91.2124V97.5157C64.9081 99.0336 64.0381 99.7947 62.2979 99.7988H59.5352V88.9224ZM61.406 90.4651V98.2492H62.2253C62.7671 98.2492 63.0387 98.0051 63.0387 97.5157V91.2124C63.0387 90.7147 62.7671 90.4651 62.2253 90.4651H61.406Z" fill="#636466"/>
<path d="M66.4932 88.9224H71.3432V90.4651H68.3626V93.5823H70.9263V95.1375H68.3626V98.2492H71.3432V99.7988H66.4932V88.9224Z" fill="#636466"/>
<path d="M76.0869 99.7988V88.9224H77.9563V98.2492H80.937V99.7988H76.0869Z" fill="#636466"/>
<path d="M87.276 95.9412L87.8832 99.7988H85.9934L85.6303 97.4909H83.7202L83.3498 99.7988H81.4658L82.073 95.9536L83.3948 88.9224H85.9586L87.2746 95.9412H87.276ZM85.3848 95.9412L84.6716 91.4123L83.9584 95.9412H85.3862H85.3848Z" fill="#636466"/>
<path d="M92.3633 88.9224H94.2327L96.0034 95.2326V88.9224H97.7348V99.7988H95.8654L94.1601 93.6899V99.7988H92.3633V88.9224Z" fill="#636466"/>
<path d="M104.669 95.9412L105.276 99.7988H103.386L103.023 97.4909H101.113L100.742 99.7988H98.8584L99.4656 95.9536L100.787 88.9224H103.351L104.667 95.9412H104.669ZM102.779 95.9412L102.066 91.4123L101.352 95.9412H102.78H102.779Z" fill="#636466"/>
<path d="M111.641 97.71C111.641 99.232 110.745 99.9958 108.952 100C107.163 100 106.27 99.2362 106.27 97.71V91.0551C106.27 89.533 107.164 88.772 108.952 88.772C110.74 88.772 111.641 89.533 111.641 91.0551V92.5165H109.772V91.0551C109.772 90.5656 109.5 90.3216 108.958 90.3216H108.945C108.408 90.3216 108.139 90.5656 108.139 91.0551V97.71C108.139 98.1994 108.411 98.4434 108.952 98.4434C109.494 98.4434 109.772 98.1994 109.772 97.71V96.2486H111.641V97.71Z" fill="#636466"/>
<path d="M113.192 88.9224H115.062V99.7988H113.192V88.9224Z" fill="#636466"/>
<path d="M122.121 97.71C122.121 99.2321 121.225 99.9959 119.431 100C117.643 100 116.748 99.2362 116.748 97.71V91.0551C116.748 89.5331 117.643 88.772 119.431 88.772C121.219 88.772 122.121 89.5331 122.121 91.0551V97.71ZM119.379 88.477H118.341L119.28 86.8901H120.747L119.379 88.477ZM120.252 91.0551C120.252 90.5657 119.98 90.3217 119.438 90.3217H119.425C118.888 90.3217 118.619 90.5657 118.619 91.0551V97.71C118.619 98.1995 118.891 98.4435 119.432 98.4435C119.974 98.4435 120.252 98.1995 120.252 97.71V91.0551Z" fill="#636466"/>
<path d="M123.64 88.9224H125.509L127.28 95.2326V88.9224H129.011V99.7988H127.142L125.436 93.6899V99.7988H123.64V88.9224Z" fill="#636466"/>
<path d="M29.332 26.6567H43.7834C52.1147 26.6567 56.2789 30.6453 56.2789 38.6209V71.5646C56.2789 79.4975 51.9139 83.475 43.1868 83.4957H29.332V26.6567ZM38.713 34.7207V75.4001H42.8229C45.5414 75.4001 46.8993 74.122 46.8993 71.5646V38.6209C46.8993 36.0208 45.54 34.7207 42.8229 34.7207H38.713Z" fill="#A7A9AC"/>
<path d="M90.387 63.3381L93.436 83.4972H83.956L82.1325 71.4351H72.5535L70.6965 83.4972H61.25L64.2989 63.4042L70.928 26.6582H83.7887L90.3857 63.3381H90.387ZM80.9071 63.3381L77.327 39.6716L73.7469 63.3381H80.9071Z" fill="#A7A9AC"/>
<path d="M98.4092 37.8022C98.4092 29.8486 102.894 25.8711 111.867 25.8711C120.839 25.8711 125.357 29.8486 125.357 37.8022V45.4401H115.976V37.8022C115.976 35.2448 114.617 33.9667 111.9 33.9667H111.833C109.137 33.9667 107.79 35.2448 107.79 37.8022V42.9488C107.79 45.4842 110.718 48.5863 116.573 52.2577C122.428 55.9071 125.357 60.2885 125.357 65.4021V72.5809C125.357 80.5579 120.871 84.5451 111.9 84.5451C102.907 84.523 98.4092 80.5359 98.4092 72.5809V64.943H107.79V72.5809C107.79 75.1383 109.161 76.4164 111.9 76.4164C114.639 76.4164 115.976 75.1383 115.976 72.5809V66.09C115.976 63.3368 113.049 60.1245 107.192 56.453C101.337 52.8037 98.4092 48.3684 98.4092 43.1446V37.8022Z" fill="#A7A9AC"/>
</g>
<defs>
<clipPath id="clip0_986_5628">
<rect width="128" height="100" fill="white" transform="translate(0.857422)"/>
</clipPath>
</defs>
</svg>