<svg width="50" height="51" viewBox="0 0 50 51" fill="none" xmlns="http://www.w3.org/2000/svg">
<path d="M42.1872 20.5C43.7639 21.4079 45.0424 22.7551 45.8667 24.3771C46.6909 25.9992 47.0254 27.826 46.8293 29.6349C46.6332 31.4437 45.9149 33.1564 44.7621 34.5641C43.6094 35.9718 42.0719 37.0136 40.3372 37.5625C39.7241 40.3447 38.1792 42.8342 35.9583 44.6186C33.7374 46.4031 30.9737 47.3755 28.1247 47.375H23.4372C23.0228 47.375 22.6254 47.2104 22.3323 46.9174C22.0393 46.6243 21.8747 46.2269 21.8747 45.8125C21.8747 45.3981 22.0393 45.0007 22.3323 44.7076C22.6254 44.4146 23.0228 44.25 23.4372 44.25H28.1247C30.0641 44.2506 31.9561 43.6499 33.5399 42.5305C35.1237 41.4112 36.3216 39.8284 36.9684 38H35.9372C35.5228 38 35.1254 37.8354 34.8323 37.5424C34.5393 37.2493 34.3747 36.8519 34.3747 36.4375V20.8125C34.3747 20.3981 34.5393 20.0007 34.8323 19.7076C35.1254 19.4146 35.5228 19.25 35.9372 19.25H37.4997C38.006 19.25 38.5028 19.2906 38.9903 19.3687C38.6385 15.9028 37.0128 12.6908 34.428 10.3551C31.8432 8.01935 28.4835 6.72622 24.9997 6.72622C21.5159 6.72622 18.1562 8.01935 15.5714 10.3551C12.9866 12.6908 11.3609 15.9028 11.0091 19.3687C11.502 19.2897 12.0005 19.25 12.4997 19.25H14.0622C14.4766 19.25 14.874 19.4146 15.1671 19.7076C15.4601 20.0007 15.6247 20.3981 15.6247 20.8125V36.4375C15.6247 36.8519 15.4601 37.2493 15.1671 37.5424C14.874 37.8354 14.4766 38 14.0622 38H12.4997C10.434 38.0023 8.42541 37.3223 6.78594 36.0656C5.14648 34.809 3.96797 33.046 3.4335 31.0507C2.89903 29.0553 3.03854 26.9393 3.83035 25.0314C4.62216 23.1235 6.02194 21.5305 7.8122 20.5C7.8122 15.9416 9.62302 11.5699 12.8463 8.3466C16.0696 5.12332 20.4413 3.3125 24.9997 3.3125C29.5581 3.3125 33.9298 5.12332 37.1531 8.3466C40.3764 11.5699 42.1872 15.9416 42.1872 20.5ZM12.4997 22.375C10.8421 22.375 9.25238 23.0335 8.08028 24.2056C6.90818 25.3777 6.2497 26.9674 6.2497 28.625C6.2497 30.2826 6.90818 31.8723 8.08028 33.0444C9.25238 34.2165 10.8421 34.875 12.4997 34.875V22.375ZM43.7497 28.625C43.7497 26.9674 43.0912 25.3777 41.9191 24.2056C40.747 23.0335 39.1573 22.375 37.4997 22.375V34.875C39.1573 34.875 40.747 34.2165 41.9191 33.0444C43.0912 31.8723 43.7497 30.2826 43.7497 28.625Z" fill="#01A19A"/>
</svg>
