<svg width="65" height="65" viewBox="0 0 50 51" fill="none" xmlns="http://www.w3.org/2000/svg">
<path d="M33.3337 6.75033C33.3337 6.19779 33.1142 5.66789 32.7235 5.27719C32.3328 4.88649 31.8029 4.66699 31.2503 4.66699H18.7503C18.1978 4.66699 17.6679 4.88649 17.2772 5.27719C16.8865 5.66789 16.667 6.19779 16.667 6.75033V17.167H6.25033C5.69779 17.167 5.16789 17.3865 4.77719 17.7772C4.38649 18.1679 4.16699 18.6978 4.16699 19.2503V31.7503C4.16699 32.3029 4.38649 32.8328 4.77719 33.2235C5.16789 33.6142 5.69779 33.8337 6.25033 33.8337H16.667V44.2503C16.667 44.8029 16.8865 45.3328 17.2772 45.7235C17.6679 46.1142 18.1978 46.3337 18.7503 46.3337H31.2503C31.8029 46.3337 32.3328 46.1142 32.7235 45.7235C33.1142 45.3328 33.3337 44.8029 33.3337 44.2503V33.8337H43.7503C44.3029 33.8337 44.8328 33.6142 45.2235 33.2235C45.6142 32.8328 45.8337 32.3029 45.8337 31.7503V19.2503C45.8337 18.6978 45.6142 18.1679 45.2235 17.7772C44.8328 17.3865 44.3029 17.167 43.7503 17.167H33.3337V6.75033Z" stroke="#cb2c30" stroke-width="3" stroke-linecap="round" stroke-linejoin="round"/>
</svg>
