<svg width="20" height="21" viewBox="0 0 20 21" fill="none" xmlns="http://www.w3.org/2000/svg">
<path d="M5.70472 6.29057C5.70957 6.27602 5.71499 6.26113 5.72096 6.24595C5.83358 6.49084 5.93935 6.73137 6.03128 6.94996C6.02026 6.96222 6.00896 6.97477 5.99734 6.98769C5.97722 7.01005 5.95612 7.03349 5.93378 7.05836C5.83801 7.16496 5.72314 7.2936 5.60848 7.42949C5.58574 7.45644 5.56194 7.4849 5.53727 7.51482C5.52518 7.39953 5.52051 7.30323 5.52051 7.21875C5.52051 6.9869 5.55497 6.7398 5.70472 6.29057ZM13.2809 14.9792C13.1964 14.9792 13.1001 14.9745 12.9849 14.9624C13.0148 14.9377 13.0432 14.9139 13.0702 14.8912C13.2061 14.7765 13.3347 14.6617 13.4413 14.5659C13.4661 14.5436 13.4896 14.5225 13.5119 14.5024C13.5248 14.4908 13.5374 14.4794 13.5497 14.4684C13.7683 14.5603 14.0088 14.6661 14.2537 14.7787C14.2385 14.7847 14.2237 14.7901 14.2091 14.795C13.7599 14.9447 13.5128 14.9792 13.2809 14.9792Z" stroke="white" stroke-width="5" stroke-linecap="round" stroke-linejoin="round"/>
</svg>
