<svg width="50" height="50" viewBox="0 0 50 50" fill="none" xmlns="http://www.w3.org/2000/svg">
<g clip-path="url(#clip0_3293_1176)">
<path d="M2.96867 45.8334L0.052002 42.9168L7.65617 35.3126L5.3645 29.1668C5.12145 28.5418 5.06936 27.8216 5.20825 27.0063C5.34714 26.1911 5.74645 25.4529 6.40617 24.7918L13.2812 17.9168C13.6978 17.5001 14.1492 17.1876 14.6353 16.9793C15.1214 16.7709 15.6596 16.6668 16.2499 16.6668C16.8402 16.6668 17.3784 16.7709 17.8645 16.9793C18.3506 17.1876 18.802 17.5001 19.2187 17.9168L23.3853 21.9793C24.3228 22.9168 25.4687 23.655 26.8228 24.1938C28.177 24.7327 29.6353 25.0015 31.1978 25.0001V29.1668C29.1145 29.1668 27.1701 28.8369 25.3645 28.1772C23.5589 27.5175 21.9964 26.5279 20.677 25.2084L19.2187 23.7501L14.3228 28.6459L18.6978 33.1251V45.8334H14.5312V34.8959L11.8228 32.3959V36.9793L2.96867 45.8334ZM31.1978 45.8334V31.2501L35.5728 27.0834L34.3228 19.7918C33.802 20.4168 33.2291 20.9723 32.6041 21.4584C31.9791 21.9445 31.302 22.3959 30.5728 22.8126C29.427 22.7432 28.3423 22.5001 27.3187 22.0834C26.2951 21.6668 25.4353 21.1112 24.7395 20.4168C26.302 20.139 27.6826 19.6091 28.8812 18.8272C30.0798 18.0452 31.0603 17.0473 31.8228 15.8334L33.9062 12.5001C34.4964 11.5626 35.3124 10.9286 36.3541 10.598C37.3958 10.2675 38.4201 10.3112 39.427 10.7293L49.9478 15.2084V25.0001H45.7812V17.9168L42.0312 16.4584L47.8645 45.8334H43.4895L39.7395 30.2084L35.3645 34.3751V45.8334H31.1978ZM23.9062 17.7084C22.7603 17.7084 21.7798 17.3008 20.9645 16.4855C20.1492 15.6702 19.7409 14.689 19.7395 13.5418C19.7381 12.3945 20.1464 11.414 20.9645 10.6001C21.7826 9.78621 22.7631 9.37787 23.9062 9.3751C25.0492 9.37232 26.0305 9.78065 26.8499 10.6001C27.6694 11.4195 28.077 12.4001 28.0728 13.5418C28.0687 14.6834 27.661 15.6647 26.8499 16.4855C26.0388 17.3063 25.0576 17.714 23.9062 17.7084ZM34.3228 9.3751C33.177 9.3751 32.1964 8.96746 31.3812 8.15218C30.5659 7.3369 30.1576 6.35565 30.1562 5.20843C30.1548 4.06121 30.5631 3.08065 31.3812 2.26676C32.1992 1.45287 33.1798 1.04454 34.3228 1.04176C35.4659 1.03898 36.4471 1.44732 37.2666 2.26676C38.086 3.08621 38.4937 4.06676 38.4895 5.20843C38.4853 6.3501 38.0777 7.33135 37.2666 8.15218C36.4555 8.97301 35.4742 9.38065 34.3228 9.3751Z" stroke="white" stroke-width="1.5"/>
</g>
<defs>
<clipPath id="clip0_3293_1176">
<rect width="50" height="50" fill="white"/>
</clipPath>
</defs>
</svg>
