<svg width="50" height="50" viewBox="0 0 50 50" fill="none" xmlns="http://www.w3.org/2000/svg">
<path d="M25 37.4999C25 38.9583 25.25 40.3333 25.7083 41.6666H25C18.1042 41.6666 12.5 36.0624 12.5 29.1666C12.5 20.8333 25 6.77075 25 6.77075C25 6.77075 33.9792 16.8749 36.7083 24.9999C35.2708 25.1249 33.9167 25.4583 32.6458 25.9791C31.25 22.2499 28.125 17.3541 25 13.3124C20.8333 18.6666 16.6667 25.4791 16.6667 29.1666C16.6667 33.7708 20.3958 37.4999 25 37.4999ZM39.5833 35.4166V29.1666H35.4167V35.4166H29.1667V39.5833H35.4167V45.8333H39.5833V39.5833H45.8333V35.4166H39.5833Z" fill="white"/>
</svg>
