<svg width="50" height="50" viewBox="0 0 50 50" fill="none" xmlns="http://www.w3.org/2000/svg">
<path d="M25.0002 13.5416C25.8243 13.5416 26.6298 13.2972 27.315 12.8394C28.0002 12.3815 28.5343 11.7308 28.8497 10.9694C29.165 10.2081 29.2475 9.3703 29.0868 8.56204C28.926 7.75379 28.5292 7.01136 27.9464 6.42864C27.3637 5.84592 26.6213 5.44909 25.813 5.28832C25.0048 5.12754 24.167 5.21006 23.4057 5.52542C22.6443 5.84079 21.9935 6.37484 21.5357 7.06004C21.0779 7.74525 20.8335 8.55083 20.8335 9.37492C20.8335 10.48 21.2725 11.5398 22.0539 12.3212C22.8353 13.1026 23.8951 13.5416 25.0002 13.5416ZM40.6252 42.7083H38.5418V32.2916C38.5418 31.7391 38.3223 31.2092 37.9316 30.8185C37.5409 30.4277 37.011 30.2083 36.4585 30.2083H26.0418V26.0416H36.4585C37.011 26.0416 37.5409 25.8221 37.9316 25.4314C38.3223 25.0407 38.5418 24.5108 38.5418 23.9583C38.5418 23.4057 38.3223 22.8758 37.9316 22.4851C37.5409 22.0944 37.011 21.8749 36.4585 21.8749H26.0418V17.7083C26.0418 17.1557 25.8223 16.6258 25.4316 16.2351C25.0409 15.8444 24.511 15.6249 23.9585 15.6249C23.406 15.6249 22.8761 15.8444 22.4854 16.2351C22.0947 16.6258 21.8752 17.1557 21.8752 17.7083V32.2916C21.8752 32.8441 22.0947 33.374 22.4854 33.7647C22.8761 34.1554 23.406 34.3749 23.9585 34.3749H34.3752V44.7916C34.3752 45.3441 34.5947 45.874 34.9854 46.2647C35.3761 46.6554 35.906 46.8749 36.4585 46.8749H40.6252C41.1777 46.8749 41.7076 46.6554 42.0983 46.2647C42.489 45.874 42.7085 45.3441 42.7085 44.7916C42.7085 44.2391 42.489 43.7091 42.0983 43.3184C41.7076 42.9277 41.1777 42.7083 40.6252 42.7083ZM26.4585 39.3749C25.4091 40.7741 23.946 41.8077 22.2766 42.3292C20.6071 42.8507 18.8159 42.8337 17.1566 42.2806C15.4973 41.7275 14.0542 40.6664 13.0315 39.2475C12.0088 37.8286 11.4585 36.1239 11.4585 34.3749C11.461 32.7556 11.9352 31.1721 12.8231 29.8179C13.7111 28.4638 14.9744 27.3977 16.4585 26.7499C16.9668 26.5289 17.3665 26.115 17.5697 25.5993C17.7729 25.0836 17.7628 24.5083 17.5418 23.9999C17.3208 23.4916 16.9069 23.0919 16.3912 22.8887C15.8755 22.6855 15.3002 22.6956 14.7918 22.9166C13.0387 23.6821 11.4847 24.8398 10.2494 26.3005C9.01413 27.7611 8.13059 29.4858 7.66683 31.3417C7.20307 33.1977 7.17146 35.1352 7.57444 37.0053C7.97741 38.8753 8.80422 40.6279 9.99119 42.1281C11.1782 43.6283 12.6936 44.8361 14.4208 45.6584C16.1481 46.4807 18.041 46.8955 19.9538 46.8711C21.8666 46.8466 23.7483 46.3835 25.4539 45.5173C27.1595 44.6511 28.6436 43.405 29.7918 41.8749C30.1234 41.4329 30.2657 40.8773 30.1876 40.3303C30.1094 39.7833 29.8172 39.2898 29.3752 38.9583C28.9331 38.6267 28.3775 38.4844 27.8305 38.5625C27.2836 38.6407 26.79 38.9329 26.4585 39.3749Z" fill="white"/>
</svg>
