<svg width="50" height="50" viewBox="0 0 50 50" fill="none" xmlns="http://www.w3.org/2000/svg">
<path d="M18.9585 44.6875L17.4481 41.6667C17.1356 41.0764 16.9099 40.4688 16.771 39.8438C16.6321 39.2188 16.5627 38.5764 16.5627 37.9167C16.5627 37.1181 16.6759 36.3285 16.9022 35.5479C17.1286 34.7674 17.4842 34.0292 17.9689 33.3333C18.2467 32.9514 18.455 32.5437 18.5939 32.1104C18.7328 31.6771 18.8022 31.2167 18.8022 30.7292C18.8022 30.1736 18.6981 29.6528 18.4897 29.1667L17.8647 27.7083C17.5175 27.0486 17.2307 26.3715 17.0043 25.6771C16.7779 24.9826 16.6654 24.2708 16.6668 23.5417V15.625C16.6668 14.7569 16.3634 14.0194 15.7564 13.4125C15.1495 12.8056 14.4113 12.5014 13.5418 12.5C12.8127 12.5 12.1703 12.7431 11.6147 13.2292C11.0592 13.7153 10.6946 14.3056 10.521 15C11.7016 15.4514 12.6738 16.2062 13.4377 17.2646C14.2016 18.3229 14.5835 19.5125 14.5835 20.8333C14.5835 22.5694 13.9759 24.0451 12.7606 25.2604C11.5453 26.4757 10.0696 27.0833 8.3335 27.0833C6.59738 27.0833 5.12169 26.4757 3.90641 25.2604C2.69113 24.0451 2.0835 22.5694 2.0835 20.8333C2.0835 19.4444 2.4828 18.2118 3.28141 17.1354C4.08002 16.059 5.10433 15.3125 6.35433 14.8958C6.52794 13.0208 7.30086 11.4583 8.67308 10.2083C10.0453 8.95833 11.6682 8.33333 13.5418 8.33333C13.7849 8.33333 14.0279 8.34167 14.271 8.35833C14.5141 8.375 14.7571 8.41875 15.0002 8.48958C16.5279 7.69097 18.1335 7.11806 19.8168 6.77083C21.5002 6.42361 23.2279 6.25 25.0002 6.25C26.7363 6.25 28.4467 6.42361 30.1314 6.77083C31.8161 7.11806 33.4217 7.69097 34.9481 8.48958C35.1911 8.42014 35.4342 8.37639 35.6772 8.35833C35.9203 8.34028 36.1634 8.33194 36.4064 8.33333C38.3161 8.33333 39.9571 8.95833 41.3293 10.2083C42.7015 11.4583 43.4738 13.0208 43.646 14.8958C44.896 15.3125 45.9203 16.059 46.7189 17.1354C47.5175 18.2118 47.9168 19.4444 47.9168 20.8333C47.9168 22.5694 47.3092 24.0451 46.0939 25.2604C44.8786 26.4757 43.4029 27.0833 41.6668 27.0833C39.9307 27.0833 38.455 26.4757 37.2397 25.2604C36.0245 24.0451 35.4168 22.5694 35.4168 20.8333C35.4168 19.5139 35.7988 18.3243 36.5627 17.2646C37.3265 16.2049 38.2988 15.45 39.4793 15C39.3057 14.3056 38.9411 13.7153 38.3856 13.2292C37.83 12.7431 37.1703 12.5 36.4064 12.5C35.5384 12.5 34.8092 12.8042 34.2189 13.4125C33.6286 14.0208 33.3335 14.7583 33.3335 15.625V23.5417C33.3335 24.2708 33.212 24.9826 32.9689 25.6771C32.7259 26.3715 32.4481 27.0486 32.1356 27.7083C31.8925 28.1944 31.6752 28.6806 31.4835 29.1667C31.2918 29.6528 31.1967 30.1736 31.1981 30.7292C31.1981 31.2153 31.2675 31.6757 31.4064 32.1104C31.5453 32.5451 31.7536 32.9528 32.0314 33.3333C32.4828 34.0278 32.83 34.766 33.0731 35.5479C33.3161 36.3299 33.4377 37.1194 33.4377 37.9167C33.4377 38.5764 33.3599 39.2188 33.2043 39.8438C33.0488 40.4688 32.8314 41.0764 32.5522 41.6667L31.0418 44.6875L27.2918 42.8125L28.8022 39.7917C28.9759 39.5139 29.0974 39.2187 29.1668 38.9062C29.2363 38.5937 29.271 38.2639 29.271 37.9167C29.271 37.5 29.2015 37.1007 29.0627 36.7187C28.9238 36.3368 28.7502 35.9722 28.5418 35.625C28.0557 34.9306 27.6828 34.1667 27.4231 33.3333C27.1634 32.5 27.0328 31.6493 27.0314 30.7812C27.0314 29.9826 27.1446 29.2271 27.371 28.5146C27.5974 27.8021 27.9009 27.0993 28.2814 26.4062C28.4897 25.9201 28.6897 25.4431 28.8814 24.975C29.0731 24.5069 29.1682 24.0292 29.1668 23.5417V15.625C29.1668 14.7917 29.2974 14.0021 29.5585 13.2562C29.8196 12.5104 30.1925 11.8243 30.6772 11.1979C29.7745 10.9201 28.846 10.7201 27.8918 10.5979C26.9377 10.4757 25.9738 10.4153 25.0002 10.4167C24.0266 10.4181 23.0627 10.4792 22.1085 10.6C21.1543 10.7208 20.2259 10.9201 19.3231 11.1979C19.8092 11.8229 20.1828 12.509 20.4439 13.2562C20.705 14.0035 20.8349 14.7931 20.8335 15.625V23.5417C20.8335 24.0278 20.9203 24.5139 21.0939 25C21.2675 25.4861 21.4759 25.9549 21.7189 26.4062C22.0661 27.1007 22.3613 27.8042 22.6043 28.5167C22.8474 29.2292 22.9689 29.984 22.9689 30.7812C22.9689 31.6493 22.8391 32.4917 22.5793 33.3083C22.3196 34.125 21.946 34.8972 21.4585 35.625C21.2154 35.9722 21.0335 36.3368 20.9127 36.7187C20.7918 37.1007 20.7307 37.5 20.7293 37.9167C20.7293 38.2639 20.7641 38.5937 20.8335 38.9062C20.9029 39.2187 21.0245 39.5139 21.1981 39.7917L22.7085 42.8125L18.9585 44.6875ZM8.3335 22.9167C8.92377 22.9167 9.41891 22.7167 9.81891 22.3167C10.2189 21.9167 10.4182 21.4222 10.4168 20.8333C10.4154 20.2444 10.2154 19.75 9.81683 19.35C9.41822 18.95 8.92377 18.75 8.3335 18.75C7.74322 18.75 7.24877 18.95 6.85016 19.35C6.45155 19.75 6.25155 20.2444 6.25016 20.8333C6.24877 21.4222 6.44877 21.9174 6.85016 22.3188C7.25155 22.7201 7.746 22.9194 8.3335 22.9167ZM41.6668 22.9167C42.2571 22.9167 42.7522 22.7167 43.1522 22.3167C43.5522 21.9167 43.7515 21.4222 43.7502 20.8333C43.7488 20.2444 43.5488 19.75 43.1502 19.35C42.7515 18.95 42.2571 18.75 41.6668 18.75C41.0765 18.75 40.5821 18.95 40.1835 19.35C39.7849 19.75 39.5849 20.2444 39.5835 20.8333C39.5821 21.4222 39.7821 21.9174 40.1835 22.3188C40.5849 22.7201 41.0793 22.9194 41.6668 22.9167Z" fill="white"/>
</svg>
