<svg width="50" height="50" viewBox="0 0 50 50" fill="none" xmlns="http://www.w3.org/2000/svg">
<rect x="0.5" y="0.5" width="49" height="49" stroke="black"/>
<path d="M21.5942 34.4925C19.9436 34.9234 18.5952 35.4967 17.6223 36.2603C16.5269 37.1201 15.896 38.2372 15.896 39.5834V42.6286C14.3957 41.9782 12.8094 41.2518 11.5308 40.4458C10.6872 39.914 10.0519 39.3922 9.6701 38.8957C9.31992 38.4403 9.2387 38.0874 9.29615 37.7796L13.4387 26.5118L13.4388 26.5118L13.4429 26.5001C13.8132 25.4528 14.1196 24.6096 14.6387 23.8411C15.1391 23.1001 15.8674 22.39 17.1272 21.7212C19.8833 20.3239 21.7911 19.7501 25.0001 19.7501C28.189 19.7501 30.1175 20.3242 32.873 21.7211C34.1329 22.39 34.8611 23.1001 35.3615 23.8411C35.8806 24.6096 36.1871 25.4528 36.5573 26.5001L36.5572 26.5001L36.5615 26.5118L40.6981 37.7631C40.716 37.9297 40.6565 38.2213 40.2832 38.6838C39.8815 39.1814 39.2316 39.7265 38.3916 40.289C36.7207 41.4079 34.519 42.4517 32.7104 43.2268L32.7058 43.2287C30.2961 44.2756 27.7331 44.8294 25.0297 44.8334L23.9168 44.7666V41.3342L24.9006 41.4326L24.9502 41.4376H25.0001C27.6906 41.4376 30.4825 40.8421 33.3679 39.7008L34.2085 39.3684L33.9623 38.4986C33.7319 37.6843 33.2571 36.9913 32.5969 36.4055C33.5793 36.3326 34.5072 35.9099 35.2086 35.2086C35.9822 34.435 36.4168 33.3858 36.4168 32.2917C36.4168 31.1977 35.9822 30.1485 35.2086 29.3749C34.435 28.6013 33.3858 28.1667 32.2918 28.1667C31.1978 28.1667 30.1486 28.6013 29.375 29.3749C28.6014 30.1485 28.1668 31.1977 28.1668 32.2917C28.1668 32.9088 28.305 33.5115 28.5644 34.0586C27.8913 33.4267 27.3601 32.6667 26.9637 31.9677C26.6956 31.4948 26.499 31.0674 26.3688 30.7573C26.304 30.6028 26.2559 30.4781 26.2239 30.3921C26.2079 30.3491 26.1958 30.3153 26.187 30.2908L26.1747 30.2565L26.1663 30.2339C26.1646 30.2294 26.1613 30.2206 26.157 30.2101L26.1568 30.2095C26.1545 30.2038 26.1421 30.1729 26.1237 30.1362L25.7338 29.3565L24.9082 29.6364L21.2207 30.8864L20.2785 31.2058L20.5929 32.149C20.5929 32.149 20.5929 32.149 20.5929 32.1491C20.593 32.1493 20.5936 32.1512 20.595 32.1557L20.6025 32.1789C20.6088 32.1984 20.6172 32.2244 20.6275 32.2559C20.6483 32.319 20.6766 32.4029 20.7128 32.5049C20.7852 32.7087 20.8891 32.9835 21.0285 33.3097C21.1752 33.653 21.3621 34.055 21.5942 34.4925ZM25.0001 45.8334C27.8543 45.8334 30.5626 45.2501 33.1043 44.1459C36.7501 42.5834 42.1876 39.8543 41.6668 37.5001L25.0001 45.8334ZM25.0001 5.16675C26.3925 5.16675 27.7279 5.71987 28.7124 6.70444C29.697 7.689 30.2501 9.02436 30.2501 10.4167C30.2501 11.8091 29.697 13.1445 28.7124 14.1291C27.7279 15.1136 26.3925 15.6667 25.0001 15.6667C23.6077 15.6667 22.2724 15.1136 21.2878 14.1291C20.3032 13.1445 19.7501 11.8091 19.7501 10.4167C19.7501 9.02436 20.3032 7.689 21.2878 6.70444C22.2724 5.71987 23.6077 5.16675 25.0001 5.16675Z" stroke="white" stroke-width="2"/>
</svg>
