<svg width="50" height="50" viewBox="0 0 50 50" fill="none" xmlns="http://www.w3.org/2000/svg">
<path d="M14.5834 4.16675C8.33342 4.16675 4.16675 10.4167 4.16675 16.6667C4.16675 21.0626 6.25008 27.0834 8.33341 29.1667C10.4167 31.2501 12.5001 45.8334 16.6667 45.8334C26.1251 45.8334 20.8334 31.2501 25.0001 31.2501C29.1667 31.2501 23.8751 45.8334 33.3334 45.8334C37.5001 45.8334 39.5834 31.2501 41.6667 29.1667C43.7501 27.0834 45.8334 21.0626 45.8334 16.6667C45.8334 10.4167 41.6667 4.16675 35.4167 4.16675C29.1667 4.16675 29.1667 6.25008 25.0001 6.25008C20.8334 6.25008 20.8334 4.16675 14.5834 4.16675ZM14.5834 8.33341C18.7501 8.33341 20.8334 10.4167 25.0001 10.4167C29.1667 10.4167 31.2501 8.33341 35.4167 8.33341C38.8959 8.33341 41.6667 12.5001 41.6667 16.6667C41.6667 20.3126 39.8751 25.2292 37.8959 27.2084C36.1042 29.0001 33.4584 41.5417 32.2917 41.5417C31.8542 41.5417 31.2501 39.3334 31.2501 36.6459C31.2501 32.3959 30.0626 27.0834 25.0001 27.0834C19.9376 27.0834 18.7501 32.3959 18.7501 36.6459C18.7501 39.3334 18.1459 41.5417 17.7084 41.5417C16.5417 41.5417 13.8959 29.0001 12.1042 27.2084C10.1251 25.2292 8.33341 20.3126 8.33341 16.6667C8.33341 12.5001 11.1042 8.33341 14.5834 8.33341Z" fill="white"/>
<path d="M19 21.1429C19 21.1429 21.25 24 25 24C28.75 24 31 21.1429 31 21.1429M20.5 14H20.515M29.5 14H29.515" stroke="white" stroke-width="2" stroke-linecap="round" stroke-linejoin="round"/>
</svg>
