<svg width="50" height="50" viewBox="0 0 50 50" fill="none" xmlns="http://www.w3.org/2000/svg">
<path d="M36.75 13V14.25H38H42.924C45.6255 14.25 47.75 16.3177 47.75 18.937V41.943C47.75 44.5948 45.5925 46.75 42.924 46.75H7.075C4.40573 46.75 2.25 44.595 2.25 41.944V18.937C2.25 16.3173 4.37289 14.25 7.075 14.25H12H13.25V13V7.774C13.25 4.70767 15.6579 2.25 18.695 2.25H31.306C34.3411 2.25 36.75 4.70767 36.75 7.774V13ZM34 14.25H35.25V13V7.774C35.25 6.69695 34.7603 5.70499 34.0787 4.99604C33.397 4.28698 32.4146 3.75 31.306 3.75H18.695C17.585 3.75 16.6022 4.28642 15.9201 4.99626C15.2382 5.7058 14.75 6.69779 14.75 7.774V13V14.25H16H34ZM36 36.25H37.25V35V27V25.75H36H30.25V20V18.75H29H21H19.75V20V25.75H14H12.75V27V35V36.25H14H19.75V42V43.25H21H29H30.25V42V36.25H36Z" stroke="white" stroke-width="2.5"/>
</svg>
