<svg width="51" height="50" viewBox="0 0 51 50" fill="none" xmlns="http://www.w3.org/2000/svg">
<path d="M23.4167 12.5H29.6667L36.5209 5.62504C36.7145 5.42977 36.9449 5.27478 37.1988 5.16901C37.4527 5.06324 37.725 5.00879 38 5.00879C38.275 5.00879 38.5474 5.06324 38.8012 5.16901C39.0551 5.27478 39.2855 5.42977 39.4792 5.62504L44.8542 11.0209C45.2422 11.4112 45.46 11.9392 45.46 12.4896C45.46 13.04 45.2422 13.568 44.8542 13.9584L40.0834 18.75H23.4167V22.9167C23.4167 23.4692 23.1972 23.9991 22.8065 24.3898C22.4158 24.7805 21.8859 25 21.3334 25C20.7808 25 20.2509 24.7805 19.8602 24.3898C19.4695 23.9991 19.25 23.4692 19.25 22.9167V16.6667C19.25 15.5616 19.689 14.5018 20.4704 13.7204C21.2518 12.939 22.3116 12.5 23.4167 12.5ZM10.9167 22.9167V31.25L6.14586 36.0209C5.75783 36.4112 5.54004 36.9392 5.54004 37.4896C5.54004 38.04 5.75783 38.568 6.14586 38.9584L11.5209 44.3542C11.7145 44.5495 11.9449 44.7045 12.1988 44.8102C12.4527 44.916 12.725 44.9704 13 44.9704C13.275 44.9704 13.5474 44.916 13.8012 44.8102C14.0551 44.7045 14.2855 44.5495 14.4792 44.3542L23.4167 35.4167H31.75C32.3026 35.4167 32.8325 35.1972 33.2232 34.8065C33.6139 34.4158 33.8334 33.8859 33.8334 33.3334V31.25H35.9167C36.4692 31.25 36.9991 31.0305 37.3898 30.6398C37.7805 30.2491 38 29.7192 38 29.1667V27.0834H40.0834C40.6359 27.0834 41.1658 26.8639 41.5565 26.4732C41.9472 26.0825 42.1667 25.5526 42.1667 25V22.9167H27.5834V25C27.5834 26.1051 27.1444 27.1649 26.363 27.9463C25.5816 28.7277 24.5218 29.1667 23.4167 29.1667H19.25C18.145 29.1667 17.0851 28.7277 16.3037 27.9463C15.5223 27.1649 15.0834 26.1051 15.0834 25V18.75L10.9167 22.9167Z" fill="#01A19A"/>
</svg>
