<svg width="51" height="50" viewBox="0 0 51 50" fill="none" xmlns="http://www.w3.org/2000/svg">
<path fill-rule="evenodd" clip-rule="evenodd" d="M22.5154 7.05973C16.154 3.13678 6.81478 4.22552 5.649 15.5278C4.47998 26.8646 10.4745 38.8615 13.686 43.455C14.4167 44.4988 15.5987 45 16.8229 45C18.8265 45 20.619 43.6624 21.2977 41.6508L22.4342 38.2947C22.6615 37.6239 23.0777 37.044 23.626 36.6341C24.1743 36.2242 24.828 36.0042 25.498 36.0042C26.168 36.0042 26.8217 36.2242 27.37 36.6341C27.9183 37.044 28.3345 37.6239 28.5618 38.2947L29.6984 41.6508C30.3803 43.6624 32.1728 45 34.1796 45C35.4006 45 36.5826 44.4988 37.31 43.455C40.5248 38.8615 46.5226 26.8646 45.3503 15.5278C44.1845 4.22552 34.8453 3.13678 28.4807 7.05973C26.4836 8.29364 24.519 8.29364 22.5154 7.05973ZM30.2115 12.9321C30.4625 12.8311 30.7299 12.7842 30.9981 12.794C31.2663 12.8037 31.53 12.87 31.774 12.989C32.018 13.108 32.2374 13.2773 32.4195 13.4872C32.6016 13.697 32.7428 13.9432 32.8349 14.2115C32.927 14.4798 32.9682 14.7649 32.9561 15.0502C32.944 15.3356 32.8789 15.6155 32.7645 15.8739C32.65 16.1323 32.4886 16.364 32.2895 16.5555C32.0904 16.7471 31.8576 16.8947 31.6045 16.9898C29.2827 17.8884 27.3181 18.4069 25.3243 18.4C23.3175 18.3965 21.46 17.8643 19.3396 16.9691C19.0918 16.8642 18.8659 16.7084 18.6747 16.5107C18.4834 16.3129 18.3307 16.0769 18.2252 15.8163C18.1196 15.5557 18.0634 15.2755 18.0596 14.9918C18.0558 14.708 18.1045 14.4262 18.203 14.1625C18.3015 13.8988 18.4479 13.6583 18.6337 13.4548C18.8195 13.2513 19.0412 13.0887 19.286 12.9764C19.5309 12.8641 19.7941 12.8042 20.0607 12.8001C20.3273 12.7961 20.592 12.8479 20.8398 12.9528C22.7135 13.7477 24.0384 14.0761 25.334 14.0796C26.6427 14.083 28.091 13.7547 30.2115 12.9321Z" fill="#01A19A"/>
</svg>
