<svg width="51" height="50" viewBox="0 0 51 50" fill="none" xmlns="http://www.w3.org/2000/svg">
<path d="M26.9625 4.57296L41.5458 10.0417C42.3402 10.3395 43.0248 10.8727 43.508 11.57C43.9912 12.2672 44.2501 13.0954 44.25 13.9438V25.1167C44.2501 28.5989 43.2805 32.0122 41.4499 34.9743C39.6192 37.9364 36.9999 40.3303 33.8854 41.8876L26.8979 45.3792C26.4639 45.5963 25.9853 45.7093 25.5 45.7093C25.0147 45.7093 24.5361 45.5963 24.1021 45.3792L17.1146 41.8855C14.0001 40.3282 11.3808 37.9344 9.55014 34.9722C7.71952 32.0101 6.74993 28.5968 6.75 25.1146V13.9459C6.74947 13.0972 7.00814 12.2685 7.49139 11.5708C7.97465 10.8731 8.65944 10.3396 9.45417 10.0417L24.0375 4.57296C24.9805 4.21949 26.0195 4.21949 26.9625 4.57296ZM25.5 16.6667C24.9897 16.6668 24.4972 16.8541 24.1159 17.1932C23.7346 17.5323 23.491 17.9995 23.4312 18.5063L23.4167 18.75V22.9167H19.25C18.719 22.9173 18.2083 23.1206 17.8221 23.4851C17.436 23.8497 17.2037 24.3479 17.1726 24.878C17.1414 25.408 17.3139 25.93 17.6547 26.3372C17.9955 26.7444 18.479 27.0061 19.0063 27.0688L19.25 27.0834H23.4167V31.25C23.4173 31.781 23.6206 32.2918 23.9851 32.6779C24.3496 33.064 24.8478 33.2964 25.3779 33.3275C25.908 33.3586 26.43 33.1861 26.8371 32.8453C27.2443 32.5045 27.506 32.0211 27.5687 31.4938L27.5833 31.25V27.0834H31.75C32.281 27.0828 32.7917 26.8795 33.1779 26.5149C33.564 26.1504 33.7963 25.6522 33.8274 25.1221C33.8586 24.5921 33.6861 24.0701 33.3453 23.6629C33.0045 23.2557 32.521 22.994 31.9937 22.9313L31.75 22.9167H27.5833V18.75C27.5833 18.1975 27.3638 17.6676 26.9731 17.2769C26.5824 16.8862 26.0525 16.6667 25.5 16.6667Z" fill="#01A19A"/>
</svg>
