<svg width="50" height="50" viewBox="0 0 50 50" fill="none" xmlns="http://www.w3.org/2000/svg">
<path d="M8.33317 41.6667C7.18734 41.6667 6.20678 41.2591 5.3915 40.4438C4.57623 39.6285 4.16789 38.6473 4.1665 37.5V12.5C4.1665 11.3542 4.57484 10.3737 5.3915 9.55837C6.20817 8.7431 7.18873 8.33476 8.33317 8.33337H41.6665C42.8123 8.33337 43.7936 8.74171 44.6103 9.55837C45.4269 10.375 45.8346 11.3556 45.8332 12.5V37.5C45.8332 38.6459 45.4255 39.6271 44.6103 40.4438C43.795 41.2605 42.8137 41.6681 41.6665 41.6667H8.33317ZM24.9998 27.0834L41.6665 16.6667V12.5L24.9998 22.9167L8.33317 12.5V16.6667L24.9998 27.0834Z" fill="#00AE97"/>
</svg>
