<svg width="50" height="50" viewBox="0 0 50 50" fill="none" xmlns="http://www.w3.org/2000/svg">
<path d="M24.9998 23.9583C23.6185 23.9583 22.2937 23.4096 21.317 22.4328C20.3402 21.4561 19.7915 20.1313 19.7915 18.75C19.7915 17.3686 20.3402 16.0439 21.317 15.0671C22.2937 14.0904 23.6185 13.5416 24.9998 13.5416C26.3812 13.5416 27.7059 14.0904 28.6827 15.0671C29.6594 16.0439 30.2082 17.3686 30.2082 18.75C30.2082 19.4339 30.0735 20.1112 29.8117 20.7431C29.55 21.375 29.1663 21.9492 28.6827 22.4328C28.199 22.9164 27.6249 23.3001 26.993 23.5618C26.3611 23.8236 25.6838 23.9583 24.9998 23.9583ZM24.9998 4.16663C21.1321 4.16663 17.4228 5.70308 14.6879 8.43799C11.953 11.1729 10.4165 14.8822 10.4165 18.75C10.4165 29.6875 24.9998 45.8333 24.9998 45.8333C24.9998 45.8333 39.5832 29.6875 39.5832 18.75C39.5832 14.8822 38.0467 11.1729 35.3118 8.43799C32.5769 5.70308 28.8676 4.16663 24.9998 4.16663Z" fill="#00AE97"/>
</svg>
