<svg width="61" height="60" viewBox="0 0 61 60" fill="none" xmlns="http://www.w3.org/2000/svg">
<path fill-rule="evenodd" clip-rule="evenodd" d="M26.5611 10.3328C18.1654 5.46849 5.83972 6.81849 4.30114 20.8328C2.75829 34.8899 10.6697 49.7656 14.9083 55.4613C15.8726 56.7556 17.4326 57.3771 19.0483 57.3771C21.6926 57.3771 24.0583 55.7185 24.954 53.2242L26.454 49.0628C26.754 48.231 27.3033 47.5119 28.0269 47.0037C28.7505 46.4954 29.6133 46.2227 30.4976 46.2227C31.3818 46.2227 32.2446 46.4954 32.9682 47.0037C33.6918 47.5119 34.2411 48.231 34.5411 49.0628L36.0411 53.2242C36.9411 55.7185 39.3069 57.3771 41.9554 57.3771C43.5669 57.3771 45.1269 56.7556 46.0869 55.4613C50.3297 49.7656 58.2454 34.8899 56.6983 20.8328C55.1597 6.81849 42.834 5.46849 34.434 10.3328C31.7983 11.8628 29.2054 11.8628 26.5611 10.3328ZM36.7183 17.6142C37.0496 17.489 37.4025 17.4308 37.7565 17.443C38.1105 17.4551 38.4585 17.5373 38.7806 17.6848C39.1026 17.8324 39.3921 18.0423 39.6324 18.3025C39.8728 18.5627 40.0591 18.868 40.1807 19.2006C40.3022 19.5333 40.3566 19.8868 40.3407 20.2406C40.3247 20.5945 40.2387 20.9416 40.0877 21.262C39.9367 21.5824 39.7236 21.8697 39.4609 22.1072C39.1981 22.3447 38.8908 22.5277 38.5569 22.6456C35.4926 23.7599 32.8997 24.4028 30.2683 24.3942C27.6197 24.3899 25.1683 23.7299 22.3697 22.6199C22.0427 22.4899 21.7445 22.2968 21.4922 22.0515C21.2398 21.8063 21.0383 21.5137 20.899 21.1906C20.7597 20.8674 20.6854 20.52 20.6804 20.1682C20.6754 19.8163 20.7397 19.4669 20.8697 19.1399C20.9997 18.8129 21.1929 18.5147 21.4381 18.2624C21.6834 18.01 21.9759 17.8085 22.2991 17.6692C22.6222 17.5299 22.9696 17.4556 23.3215 17.4506C23.6733 17.4456 24.0227 17.5099 24.3497 17.6399C26.8226 18.6256 28.5711 19.0328 30.2811 19.0371C32.0083 19.0413 33.9197 18.6342 36.7183 17.6142Z" fill="#009B81"/>
</svg>
