<svg width="50" height="50" viewBox="0 0 50 50" fill="none" xmlns="http://www.w3.org/2000/svg">
<path d="M2.44238 4.78516V9.27734H10.0586V4.78516H2.44238ZM14.9414 4.78516V9.27734H22.5586V4.78516H14.9414ZM27.4414 4.78516V9.27734H35.0586V4.78516H27.4414ZM39.9414 4.78516V9.27734H47.5586V4.78516H39.9414ZM5.37207 11.0352V17.2852H11.6211V21.7773H13.3789V17.2852H19.6289V11.0352H17.8711V15.5273H7.12988V11.0352H5.37207ZM30.3711 11.0352V17.2852H36.6211V21.7773H38.3789V17.2852H44.6289V11.0352H42.8711V15.5273H32.1289V11.0352H30.3711ZM8.69238 23.5352V28.0273H16.3086V23.5352H8.69238ZM33.6914 23.5352V28.0273H41.3086V23.5352H33.6914ZM11.6211 29.7852V34.4727H24.1211V38.9648H25.8789V34.4727H38.3789V29.7852H36.6211V32.7148H13.3789V29.7852H11.6211ZM21.1914 40.7227V45.2148H28.8086V40.7227H21.1914Z" fill="white"/>
</svg>

