<svg width="50" height="50" viewBox="0 0 50 50" fill="none" xmlns="http://www.w3.org/2000/svg">
<path d="M47.5576 45.2148V40.7227H39.9414V45.2148H47.5576ZM35.0586 45.2148V40.7227H27.4414V45.2148H35.0586ZM22.5586 45.2148V40.7227H14.9414V45.2148H22.5586ZM10.0586 45.2148V40.7227H2.44141V45.2148H10.0586ZM44.6279 38.9648V32.7148H38.3789V28.2227H36.6211V32.7148H30.3711V38.9648H32.1289V34.4727H42.8701V38.9648H44.6279ZM19.6289 38.9648V32.7148H13.3789V28.2227H11.6211V32.7148H5.37109V38.9648H7.12891V34.4727H17.8711V38.9648H19.6289ZM41.3076 26.4648V21.9727H33.6914V26.4648H41.3076ZM16.3086 26.4648V21.9727H8.69141V26.4648H16.3086ZM38.3789 20.2148V15.5273H25.8789V11.0352H24.1211V15.5273H11.6211V20.2148H13.3789V17.2852H36.6211V20.2148H38.3789ZM28.8086 9.27734V4.78516H21.1914V9.27734H28.8086Z" fill="white"/>
</svg>

