<svg width="50" height="50" viewBox="0 0 50 50" fill="none" xmlns="http://www.w3.org/2000/svg">
<path d="M8.3335 9.37508C8.3335 7.99375 8.88223 6.66899 9.85898 5.69223C10.8357 4.71548 12.1605 4.16675 13.5418 4.16675H36.4585C37.8398 4.16675 39.1646 4.71548 40.1413 5.69223C41.1181 6.66899 41.6668 7.99375 41.6668 9.37508V39.0626C41.6668 39.477 41.5022 39.8744 41.2092 40.1674C40.9162 40.4605 40.5187 40.6251 40.1043 40.6251H11.4585C11.4585 41.1776 11.678 41.7075 12.0687 42.0982C12.4594 42.4889 12.9893 42.7084 13.5418 42.7084H40.1043C40.5187 42.7084 40.9162 42.873 41.2092 43.1661C41.5022 43.4591 41.6668 43.8565 41.6668 44.2709C41.6668 44.6853 41.5022 45.0827 41.2092 45.3758C40.9162 45.6688 40.5187 45.8334 40.1043 45.8334H13.5418C12.1605 45.8334 10.8357 45.2847 9.85898 44.3079C8.88223 43.3312 8.3335 42.0064 8.3335 40.6251V9.37508ZM29.1668 16.6667C29.1668 15.5617 28.7278 14.5019 27.9464 13.7205C27.165 12.9391 26.1052 12.5001 25.0002 12.5001C23.8951 12.5001 22.8353 12.9391 22.0539 13.7205C21.2725 14.5019 20.8335 15.5617 20.8335 16.6667C20.8335 17.7718 21.2725 18.8316 22.0539 19.613C22.8353 20.3944 23.8951 20.8334 25.0002 20.8334C26.1052 20.8334 27.165 20.3944 27.9464 19.613C28.7278 18.8316 29.1668 17.7718 29.1668 16.6667ZM32.2918 26.0417C32.2918 25.2129 31.9626 24.4181 31.3765 23.832C30.7905 23.246 29.9956 22.9167 29.1668 22.9167H20.8335C20.0047 22.9167 19.2098 23.246 18.6238 23.832C18.0377 24.4181 17.7085 25.2129 17.7085 26.0417C17.7085 28.6459 19.7918 31.2501 25.0002 31.2501C30.2085 31.2501 32.2918 28.6355 32.2918 26.0417Z" fill="white"/>
</svg>
