<svg width="50" height="50" viewBox="0 0 50 50" fill="none" xmlns="http://www.w3.org/2000/svg">
<path d="M31.875 21.3542L39.2188 13.9583L37.7604 12.5L31.875 18.3854L28.9062 15.4167L27.4479 16.9271L31.875 21.3542ZM6.25 41.6667V37.5H31.25V41.6667H6.25ZM33.3333 27.0833C30.4514 27.0833 27.9951 26.0674 25.9646 24.0354C23.934 22.0035 22.9181 19.5472 22.9167 16.6667C22.9153 13.7861 23.9312 11.3299 25.9646 9.29792C27.9979 7.26597 30.4542 6.25 33.3333 6.25C36.2125 6.25 38.6694 7.26597 40.7042 9.29792C42.7389 11.3299 43.7542 13.7861 43.75 16.6667C43.7458 19.5472 42.7299 22.0042 40.7021 24.0375C38.6743 26.0708 36.2181 27.0861 33.3333 27.0833ZM6.25 25V20.8333H19.375C19.6181 21.5972 19.8958 22.3264 20.2083 23.0208C20.5208 23.7153 20.9028 24.375 21.3542 25H6.25ZM6.25 33.3333V29.1667H25.8333C26.6319 29.6528 27.4826 30.0611 28.3854 30.3917C29.2882 30.7222 30.2431 30.9563 31.25 31.0938V33.3333H6.25Z" fill="white"/>
</svg>
