<svg width="50" height="50" viewBox="0 0 50 50" fill="none" xmlns="http://www.w3.org/2000/svg">
<path fill-rule="evenodd" clip-rule="evenodd" d="M25.2141 0.0571289C25.9245 0.0571289 26.6058 0.339335 27.1082 0.841664C27.6105 1.34399 27.8927 2.0253 27.8927 2.7357V5.24284C31.3989 5.87145 34.5723 7.71315 36.8575 10.4456C39.1427 13.1781 40.3941 16.6272 40.3927 20.1893V20.4643L27.1999 12.9286C26.5923 12.5836 25.9056 12.4022 25.207 12.4022C24.5083 12.4022 23.8217 12.5836 23.2141 12.9286L10.032 20.4643V20.1893C10.032 12.7178 15.4248 6.5107 22.532 5.24284V2.7357C22.532 2.0253 22.8142 1.34399 23.3165 0.841664C23.8189 0.339335 24.5037 0.0571289 25.2141 0.0571289ZM3.05699 33.3214H4.2927V44.5643H3.93199C3.22159 44.5643 2.54028 44.8465 2.03795 45.3488C1.53562 45.8511 1.25342 46.5324 1.25342 47.2428C1.25342 47.9532 1.53562 48.6346 2.03795 49.1369C2.54028 49.6392 3.22159 49.9214 3.93199 49.9214H46.482C47.1924 49.9214 47.8737 49.6392 48.376 49.1369C48.8784 48.6346 49.1606 47.9532 49.1606 47.2428C49.1606 46.5324 48.8784 45.8511 48.376 45.3488C47.8737 44.8465 47.1924 44.5643 46.482 44.5643H46.1249V33.3214H47.3606C47.7542 33.3212 48.1367 33.1909 48.4486 32.9509C48.7606 32.7108 48.9845 32.3744 49.0855 31.994C49.1865 31.6135 49.159 31.2104 49.0072 30.8472C48.8554 30.484 48.5879 30.1812 48.2463 29.9857L26.0963 17.3321C25.8265 17.178 25.5212 17.097 25.2106 17.097C24.8999 17.097 24.5946 17.178 24.3248 17.3321L2.17128 29.9893C1.82935 30.1849 1.5617 30.4881 1.41 30.8516C1.2583 31.2151 1.23107 31.6186 1.33254 31.9993C1.43402 32.3799 1.6585 32.7163 1.97104 32.9561C2.28358 33.1959 2.66664 33.3256 3.06056 33.325L3.05699 33.3214ZM9.64985 44.5643V33.3214H13.4106V44.5643H9.64985ZM18.7677 44.5643V33.3214H22.5284V44.5643H18.7677ZM27.8856 44.5643V33.3214H31.6463V44.5643H27.8927H27.8856ZM37.0034 44.5643V33.3214H40.7641V44.5643H37.0034Z" fill="white"/>
</svg>
