<svg width="50" height="50" viewBox="0 0 50 50" fill="none" xmlns="http://www.w3.org/2000/svg">
<path d="M9.375 9.375C9.375 5.92773 12.1777 3.125 15.625 3.125H43.75C47.1973 3.125 50 5.92773 50 9.375V40.625C50 44.0723 47.1973 46.875 43.75 46.875H7.8125C3.49609 46.875 0 43.3789 0 39.0625V12.5C0 10.7715 1.39648 9.375 3.125 9.375C4.85352 9.375 6.25 10.7715 6.25 12.5V39.0625C6.25 39.9219 6.95312 40.625 7.8125 40.625C8.67188 40.625 9.375 39.9219 9.375 39.0625V9.375ZM15.625 11.7188V19.5312C15.625 20.8301 16.6699 21.875 17.9688 21.875H28.9062C30.2051 21.875 31.25 20.8301 31.25 19.5312V11.7188C31.25 10.4199 30.2051 9.375 28.9062 9.375H17.9688C16.6699 9.375 15.625 10.4199 15.625 11.7188ZM35.9375 10.9375C35.9375 11.7969 36.6406 12.5 37.5 12.5H42.1875C43.0469 12.5 43.75 11.7969 43.75 10.9375C43.75 10.0781 43.0469 9.375 42.1875 9.375H37.5C36.6406 9.375 35.9375 10.0781 35.9375 10.9375ZM35.9375 20.3125C35.9375 21.1719 36.6406 21.875 37.5 21.875H42.1875C43.0469 21.875 43.75 21.1719 43.75 20.3125C43.75 19.4531 43.0469 18.75 42.1875 18.75H37.5C36.6406 18.75 35.9375 19.4531 35.9375 20.3125ZM15.625 29.6875C15.625 30.5469 16.3281 31.25 17.1875 31.25H42.1875C43.0469 31.25 43.75 30.5469 43.75 29.6875C43.75 28.8281 43.0469 28.125 42.1875 28.125H17.1875C16.3281 28.125 15.625 28.8281 15.625 29.6875ZM15.625 39.0625C15.625 39.9219 16.3281 40.625 17.1875 40.625H42.1875C43.0469 40.625 43.75 39.9219 43.75 39.0625C43.75 38.2031 43.0469 37.5 42.1875 37.5H17.1875C16.3281 37.5 15.625 38.2031 15.625 39.0625Z" fill="white"/>
</svg>
