<svg width="80" height="80" viewBox="0 0 60 60" fill="none" xmlns="http://www.w3.org/2000/svg">
<path d="M34.5295 2.76953V7.28799H36.2873V48.7757C36.2873 51.2624 37.3181 53.6473 39.1529 55.4056C40.9877 57.164 43.4763 58.1518 46.0711 58.1518C48.666 58.1518 51.1545 57.164 52.9893 55.4056C54.8242 53.6473 55.8549 51.2624 55.8549 48.7757V7.28799H57.6128V2.76953H34.5295ZM52.9822 26.9772H39.1673V24.2911H43.9184V21.6372H39.1673V16.9641H43.9184V14.3103H39.1673V7.27184H52.9822V26.9772Z" fill="white"/>
<path d="M5.11536 2.76953V7.28799H6.87322V48.7757C6.87322 51.2624 7.90401 53.6473 9.73883 55.4056C11.5737 57.164 14.0622 58.1518 16.657 58.1518C19.2519 58.1518 21.7404 57.164 23.5752 55.4056C25.4101 53.6473 26.4408 51.2624 26.4408 48.7757V7.28799H28.1987V2.76953H5.11536ZM23.5681 21.6372H9.75322V24.2911H14.5043V21.6372H9.75322V16.9641H14.5043V14.3103H9.75322V7.27184H23.5681V21.6372Z" fill="white"/>
</svg>
