<svg width="80" height="80" viewBox="0 0 60 60" fill="none" xmlns="http://www.w3.org/2000/svg">
<g clip-path="url(#clip0_1205_362)">
<path d="M60.3589 25.3334C54.6678 14.2293 43.401 6.71631 30.5002 6.71631C17.5994 6.71631 6.32948 14.2345 0.641515 25.3344C0.401447 25.8093 0.276367 26.334 0.276367 26.8661C0.276367 27.3982 0.401447 27.9229 0.641515 28.3977C6.33263 39.5019 17.5994 47.0148 30.5002 47.0148C43.401 47.0148 54.6709 39.4966 60.3589 28.3967C60.5989 27.9218 60.724 27.3972 60.724 26.865C60.724 26.3329 60.5989 25.8083 60.3589 25.3334ZM30.5002 41.9775C27.5113 41.9775 24.5896 41.0912 22.1044 39.4307C19.6193 37.7702 17.6824 35.41 16.5386 32.6487C15.3948 29.8873 15.0955 26.8488 15.6786 23.9174C16.2617 20.9859 17.701 18.2932 19.8144 16.1798C21.9279 14.0664 24.6206 12.6271 27.552 12.044C30.4834 11.4609 33.5219 11.7602 36.2833 12.904C39.0446 14.0477 41.4048 15.9847 43.0653 18.4698C44.7258 20.955 45.6121 23.8767 45.6121 26.8656C45.6131 28.8504 45.2229 30.8159 44.4638 32.6498C43.7047 34.4837 42.5916 36.15 41.1881 37.5535C39.7846 38.9569 38.1183 40.07 36.2844 40.8291C34.4505 41.5882 32.485 41.9785 30.5002 41.9775ZM30.5002 16.7909C29.601 16.8035 28.7075 16.9373 27.8441 17.1887C28.5558 18.1559 28.8974 19.3462 28.8068 20.5437C28.7162 21.7411 28.1995 22.8665 27.3503 23.7157C26.5011 24.5648 25.3758 25.0816 24.1783 25.1721C22.9808 25.2627 21.7905 24.9212 20.8233 24.2094C20.2725 26.2386 20.3719 28.3894 21.1076 30.3591C21.8432 32.3289 23.178 34.0183 24.9241 35.1897C26.6702 36.361 28.7397 36.9554 30.8412 36.889C32.9428 36.8226 34.9706 36.0988 36.6393 34.8196C38.308 33.5404 39.5335 31.77 40.1433 29.7578C40.7532 27.7456 40.7166 25.5928 40.0389 23.6024C39.3611 21.612 38.0762 19.8843 36.3651 18.6624C34.654 17.4405 32.6028 16.786 30.5002 16.7909Z" fill="white"/>
</g>
<defs>
<clipPath id="clip0_1205_362">
<rect width="80" height="80" fill="white" transform="translate(0.5)"/>
</clipPath>
</defs>
</svg>
