<svg width="50" height="50" viewBox="0 0 50 50" fill="none" xmlns="http://www.w3.org/2000/svg">
<g clip-path="url(#clip0_3309_1096)">
<path d="M18.7864 35.9209C18.2268 33.4515 19.6896 30.9509 22.1159 30.227L27.3398 28.6701C26.9237 28.0381 26.5361 27.391 26.2108 26.7338C24.797 26.2638 23.5567 24.9577 22.9401 23.1942C22.8322 22.8843 22.7495 22.5691 22.689 22.2539L20.3263 21.5496C18.6632 23.5802 16.518 24.9956 14.0173 24.9956C11.5167 24.9956 9.37156 23.5802 7.70815 21.5496L2.08007 23.2281C0.910686 23.5767 0.108398 24.6529 0.108398 25.8728V28.1653C0.108398 35.8469 6.3348 42.0742 14.0173 42.0742C16.1439 42.0742 18.1508 41.5829 19.954 40.7295C19.799 40.2551 19.6608 39.7724 19.5479 39.2769L18.7864 35.9209Z" fill="white"/>
<path d="M47.6741 31.8808L41.8504 30.1453C40.0944 32.2516 37.8146 33.8339 35.1419 33.8339C32.4692 33.8339 30.1894 32.2516 28.4318 30.1453L22.6099 31.8808C21.0444 32.3475 20.1092 33.9477 20.4697 35.54L21.2315 38.8942C22.7075 45.3902 28.4806 49.9999 35.142 49.9999C41.8032 49.9999 47.5764 45.3902 49.0526 38.8951L49.8143 35.54C50.1748 33.9476 49.2396 32.3475 47.6741 31.8808Z" fill="white"/>
<path d="M5.28515 15.8309C5.81915 16.5035 6.49925 16.9083 7.14886 16.8961C8.61541 20.2601 11.2014 23.1486 14.1551 23.1486C17.1087 23.1486 19.6945 20.2601 21.1612 16.8961C21.8109 16.9082 22.4908 16.5034 23.0248 15.8309C23.3073 15.4759 23.5522 15.0542 23.7215 14.5673C24.039 13.656 24.0342 12.7528 23.7841 12.0595C23.5877 11.5161 23.2432 11.0985 22.7605 10.9289C22.6817 10.9546 22.6032 10.9828 22.5177 10.9895C22.4915 10.9916 22.4654 10.9922 22.439 10.9922C22.2824 10.9922 22.1371 10.9445 22.0008 10.8785C21.741 10.7528 21.5299 10.5322 21.4439 10.2431C21.4231 10.1737 20.897 8.53954 17.7901 8.53954C17.4915 8.53954 17.1754 8.55506 16.8426 8.58533C16.8426 8.58533 16.5176 8.61421 16.0167 8.61421C14.3594 8.61421 12.1273 8.32771 10.9055 6.96524C10.6471 6.6767 10.4481 6.35388 10.3105 6.0022C9.16158 6.73186 7.50992 8.1106 6.87454 10.2768C6.79362 10.5505 6.60269 10.757 6.36597 10.8841C6.21868 10.9634 6.05803 11.0186 5.88369 11.0186C5.84328 11.0186 5.80299 11.0165 5.76194 11.0112C5.67854 11.0011 5.60398 10.9688 5.52791 10.9398C5.05727 11.1147 4.71948 11.5243 4.52596 12.0597C4.27567 12.753 4.27103 13.6561 4.58835 14.5674C4.75794 15.0542 5.00275 15.4759 5.28515 15.8309Z" fill="white"/>
<path d="M11.1305 4.39965C10.8167 7.26724 14.4206 7.58122 16.0166 7.58122C16.4644 7.58122 16.7542 7.55644 16.7542 7.55644C17.1222 7.52217 17.4672 7.50666 17.79 7.50666C21.831 7.50666 22.4404 9.97278 22.4404 9.97278L22.6905 8.11597C23.2172 4.21325 20.5021 0.614699 16.6055 0.0490251C16.3783 0.0161621 16.1502 0 15.9237 0C14.6217 0 13.3655 0.535397 12.4614 1.49974L12.3928 1.57311C11.7949 1.30008 11.1566 1.16561 10.5213 1.16561C9.60667 1.16561 8.69803 1.44392 7.92516 1.9887C6.45451 3.02501 5.61861 4.74337 5.70933 6.53963L5.88281 9.98561C7.05801 5.98268 11.1305 4.39965 11.1305 4.39965Z" fill="white"/>
<path d="M45.8484 19.7608C45.634 19.1393 45.2727 18.5502 44.699 18.47C44.5745 18.4526 44.4243 18.4954 44.3294 18.4954C44.1855 18.4954 43.8553 18.3171 43.7701 18.2534C41.8677 16.8159 38.6584 15.8518 35.2377 15.8518C31.8168 15.8518 28.6111 16.8159 26.7089 18.2534C26.6236 18.3171 26.2935 18.4954 26.1499 18.4954C26.0548 18.4954 25.9046 18.4526 25.7801 18.47C25.2061 18.5502 24.8451 19.1393 24.6307 19.7608C24.3663 20.5237 24.3671 21.5066 24.7129 22.4993C24.8951 23.0224 25.1562 23.4782 25.4566 23.8647C26.0513 24.6283 26.8166 25.0902 27.5464 25.0764C29.1533 28.7616 32.0114 31.9787 35.2394 31.9787C38.4676 31.9787 41.3256 28.7617 42.9323 25.0764C43.6623 25.0902 44.4276 24.6284 45.0224 23.8647C45.3228 23.4782 45.5841 23.0224 45.7662 22.4993C46.112 21.5066 46.1127 20.5237 45.8484 19.7608Z" fill="white"/>
<path d="M28.8104 15.8569L29.2013 12.38L29.8679 15.5141C31.4798 15.0486 33.3291 14.7804 35.3008 14.7804C36.3489 14.7804 37.3584 14.8611 38.3204 15.0017L39.2564 10.4076L39.615 15.2344C41.6328 15.674 43.36 16.4039 44.5888 17.3321C44.7346 16.672 44.8161 15.989 44.8161 15.2844C44.8161 11.9336 43.081 8.9923 40.4627 7.29732C40.4718 7.1913 40.4996 7.09153 40.4996 6.98378C40.4996 6.5974 40.4226 6.22771 40.3129 5.86967C39.7358 3.98797 37.7588 2.59253 35.3854 2.59253C33.055 2.59253 31.1102 3.93948 30.4947 5.77065C30.3634 6.15865 30.2719 6.56044 30.2719 6.98378C30.2719 7.05834 30.2927 7.1273 30.2972 7.20046C27.5919 8.87927 25.7847 11.8667 25.7847 15.2843C25.7847 15.9889 25.867 16.6719 26.0129 17.332C26.7721 16.7581 27.721 16.2586 28.8104 15.8569Z" fill="white"/>
</g>
<defs>
<clipPath id="clip0_3309_1096">
<rect width="50" height="50" fill="white"/>
</clipPath>
</defs>
</svg>

