<svg width="50" height="50" viewBox="0 0 50 50" fill="none" xmlns="http://www.w3.org/2000/svg">
<mask id="mask0_3293_1154" style="mask-type:luminance" maskUnits="userSpaceOnUse" x="3" y="3" width="44" height="44">
<path d="M4.16675 34.3751C4.16675 33.8225 4.38624 33.2926 4.77694 32.9019C5.16764 32.5112 5.69755 32.2917 6.25008 32.2917H12.5001V25.0001L25.0001 16.6667L37.5001 25.0001V32.2917H43.7501C44.3026 32.2917 44.8325 32.5112 45.2232 32.9019C45.6139 33.2926 45.8334 33.8225 45.8334 34.3751V43.7501C45.8334 44.3026 45.6139 44.8325 45.2232 45.2232C44.8325 45.6139 44.3026 45.8334 43.7501 45.8334H4.16675V34.3751Z" fill="white" stroke="white" stroke-width="2" stroke-linejoin="round"/>
<path d="M25 6.25V16.6667" stroke="white" stroke-width="2" stroke-linecap="round"/>
<path d="M37.5 12.5V6.24997C37.5 6.24997 35.9375 9.37497 31.25 6.24997C26.5625 3.12497 25 6.24997 25 6.24997V12.5C25 12.5 26.5625 9.37497 31.25 12.5C35.9375 15.625 37.5 12.5 37.5 12.5Z" stroke="white" stroke-width="2" stroke-linecap="round" stroke-linejoin="round"/>
<path d="M29.1668 45.8334V32.2917H20.8335V45.8334" stroke="black" stroke-width="2" stroke-linecap="round" stroke-linejoin="round"/>
<path d="M18.75 45.8333H31.25" stroke="white" stroke-width="2" stroke-linecap="round" stroke-linejoin="round"/>
</mask>
<g mask="url(#mask0_3293_1154)">
<path d="M0 0H50V50H0V0Z" fill="white"/>
</g>
</svg>
