<svg width="50" height="50" viewBox="0 0 50 50" fill="none" xmlns="http://www.w3.org/2000/svg">
<path d="M14.5834 4.16675C8.33342 4.16675 4.16675 10.4167 4.16675 16.6667C4.16675 21.0626 6.25008 27.0834 8.33342 29.1667C10.4167 31.2501 12.5001 45.8334 16.6667 45.8334C26.1251 45.8334 20.8334 31.2501 25.0001 31.2501C29.1667 31.2501 23.8751 45.8334 33.3334 45.8334C37.5001 45.8334 39.5834 31.2501 41.6668 29.1667C43.7501 27.0834 45.8334 21.0626 45.8334 16.6667C45.8334 10.4167 41.6668 4.16675 35.4168 4.16675C29.1667 4.16675 29.1667 6.25008 25.0001 6.25008C20.8334 6.25008 20.8334 4.16675 14.5834 4.16675Z" fill="white"/>
<path d="M19 22.1429C19 22.1429 21.25 25 25 25C28.75 25 31 22.1429 31 22.1429M20.5 15H20.515M29.5 15H29.515" stroke="#cb6a28" stroke-width="2" stroke-linecap="round" stroke-linejoin="round"/>
</svg>
