<svg width="55" height="54" viewBox="0 0 55 54" fill="none" xmlns="http://www.w3.org/2000/svg">
<path d="M22.1004 32.9399C20.1357 34.751 15.2964 39.692 12.6248 39.6377C9.95328 39.5833 7.40627 38.4978 5.5168 36.6084C3.62733 34.7189 2.54184 32.1719 2.4875 29.5003C2.43315 26.8288 3.41415 24.2397 5.22521 22.275L22.7752 4.72496C24.74 2.9139 27.329 1.9329 30.0006 1.98725C32.6721 2.0416 35.2191 3.12709 37.1086 5.01655C38.9981 6.90602 40.0836 9.45304 40.1379 12.1246C40.1923 14.7962 34.7115 20.3102 32.9004 22.275M13.998 13.4977L23.5605 23.0602" stroke="white" stroke-width="2" stroke-linecap="round" stroke-linejoin="round"/>
<path d="M36.6807 29.4299V39.5549M31.6182 34.4924H41.7432M50.1807 31.1174C50.1879 35.0469 48.8538 38.8612 46.3991 41.9296C43.9443 44.9981 40.5159 47.1369 36.6807 47.9924C32.8455 47.1369 29.4171 44.9981 26.9623 41.9296C24.5076 38.8612 23.1735 35.0469 23.1807 31.1174V26.0549C23.1807 25.1598 23.5363 24.3014 24.1692 23.6684C24.8021 23.0355 25.6606 22.6799 26.5557 22.6799H46.8057C47.7008 22.6799 48.5592 23.0355 49.1922 23.6684C49.8251 24.3014 50.1807 25.1598 50.1807 26.0549V31.1174Z" stroke="white" stroke-width="2" stroke-linecap="round" stroke-linejoin="round"/>
</svg>
