<svg width="51" height="50" viewBox="0 0 51 50" fill="none" xmlns="http://www.w3.org/2000/svg">
<path d="M23.5016 5C27.387 4.9994 31.1398 6.41261 34.0597 8.97588C36.9795 11.5391 38.8669 15.0773 39.3696 18.93L43.8696 26.008C44.1656 26.474 44.1056 27.168 43.4196 27.464L39.5016 29.14V35C39.5016 36.0609 39.0802 37.0783 38.33 37.8284C37.5799 38.5786 36.5625 39 35.5016 39H31.5036L31.5016 45H13.5016V37.612C13.5016 35.252 12.6296 33.018 11.0116 31.002C9.12702 28.6489 7.94557 25.8113 7.6034 22.816C7.26123 19.8207 7.77225 16.7897 9.0776 14.0722C10.3829 11.3547 12.4295 9.06132 14.9814 7.45623C17.5334 5.85114 20.4869 4.9997 23.5016 5ZM23.5016 9C21.2408 8.99991 19.0259 9.63849 17.1121 10.8422C15.1984 12.0459 13.6636 13.7657 12.6846 15.8036C11.7056 17.8415 11.3221 20.1145 11.5785 22.3607C11.8349 24.607 12.7206 26.7351 14.1336 28.5C16.3216 31.228 17.5016 34.334 17.5016 37.612V41H27.5016L27.5056 35H35.5016V26.504L38.6016 25.176L35.5156 20.326L35.4016 19.442C35.0234 16.5536 33.6075 13.9015 31.4179 11.9802C29.2283 10.0589 26.4146 8.99962 23.5016 9ZM22.4416 16.526L23.5016 17.586L24.5616 16.526C25.2216 15.8883 26.1056 15.5354 27.0233 15.5431C27.941 15.5509 28.8189 15.9188 29.468 16.5676C30.1171 17.2164 30.4853 18.0942 30.4935 19.0119C30.5016 19.9296 30.149 20.8138 29.5116 21.474L23.5016 27.486L17.4916 21.474C17.1574 21.1511 16.8908 20.7648 16.7075 20.3378C16.5241 19.9107 16.4277 19.4514 16.4237 18.9867C16.4198 18.522 16.5084 18.0611 16.6845 17.631C16.8606 17.2009 17.1206 16.8102 17.4492 16.4816C17.7779 16.1531 18.1688 15.8932 18.5989 15.7174C19.0291 15.5415 19.49 15.453 19.9547 15.4571C20.4195 15.4613 20.8787 15.5579 21.3057 15.7414C21.7327 15.9249 22.1188 16.1916 22.4416 16.526Z" fill="white"/>
</svg>
