<svg width="50" height="50" viewBox="0 0 50 50" fill="none" xmlns="http://www.w3.org/2000/svg">
<path d="M35.3125 43.0207L37.7083 40.6249L34.375 37.2916L31.9792 39.6874C31.4931 40.1735 31.25 40.7291 31.25 41.3541C31.25 41.9791 31.4931 42.5346 31.9792 43.0207C32.4653 43.5069 33.0208 43.7499 33.6458 43.7499C34.2708 43.7499 34.8264 43.5069 35.3125 43.0207ZM40.625 37.7083L43.0208 35.3124C43.5069 34.8263 43.75 34.2707 43.75 33.6457C43.75 33.0207 43.5069 32.4652 43.0208 31.9791C42.5347 31.493 41.9792 31.2499 41.3542 31.2499C40.7292 31.2499 40.1736 31.493 39.6875 31.9791L37.2917 34.3749L40.625 37.7083ZM38.2813 45.9895C36.9965 47.2742 35.4514 47.9166 33.6458 47.9166C31.8403 47.9166 30.2951 47.2742 29.0104 45.9895C27.7257 44.7048 27.0833 43.1596 27.0833 41.3541C27.0833 39.5485 27.7257 38.0034 29.0104 36.7187L36.7188 29.0103C38.0035 27.7256 39.5486 27.0833 41.3542 27.0833C43.1597 27.0833 44.7049 27.7256 45.9896 29.0103C47.2743 30.2951 47.9167 31.8402 47.9167 33.6457C47.9167 35.4513 47.2743 36.9964 45.9896 38.2812L38.2813 45.9895ZM23.1771 43.7499H6.25V6.24992H19.1667C19.6181 4.99992 20.3736 3.99297 21.4333 3.22909C22.4931 2.4652 23.6819 2.08325 25 2.08325C26.3181 2.08325 27.5076 2.4652 28.5688 3.22909C29.6299 3.99297 30.3847 4.99992 30.8333 6.24992H43.75V23.177C43.0556 23.0034 42.3611 22.9166 41.6667 22.9166C40.9722 22.9166 40.2778 22.9687 39.5833 23.0728V10.4166H10.4167V39.5833H23.0729C22.9688 40.2777 22.9167 40.9721 22.9167 41.6666C22.9167 42.361 23.0035 43.0555 23.1771 43.7499ZM25 8.85409C25.4514 8.85409 25.825 8.70617 26.1208 8.41034C26.4167 8.1145 26.5639 7.74159 26.5625 7.29159C26.5611 6.84159 26.4132 6.46867 26.1188 6.17284C25.8243 5.877 25.4514 5.72909 25 5.72909C24.5486 5.72909 24.1757 5.877 23.8813 6.17284C23.5868 6.46867 23.4389 6.84159 23.4375 7.29159C23.4361 7.74159 23.584 8.1152 23.8813 8.41242C24.1785 8.70964 24.5514 8.85686 25 8.85409ZM14.5833 18.7499V14.5833H35.4167V18.7499H14.5833ZM14.5833 27.0833V22.9166H35.4167V24.6874C35.1389 24.861 34.8701 25.061 34.6104 25.2874C34.3507 25.5138 34.0813 25.7652 33.8021 26.0416L32.7604 27.0833H14.5833ZM14.5833 35.4166V31.2499H28.5938L26.0417 33.802C25.7639 34.0798 25.5125 34.3492 25.2875 34.6103C25.0625 34.8714 24.8625 35.1402 24.6875 35.4166H14.5833Z" fill="white"/>
</svg>

