<svg width="50" height="50" viewBox="0 0 50 50" fill="none" xmlns="http://www.w3.org/2000/svg">
<path d="M20.1 32V31.7298C22.7886 31.075 25.2096 29.5829 27.0059 27.4571C29.0043 25.0923 30.1004 22.0961 30.1 19C30.1 18.9999 30.1 18.9999 30.1 18.9998V9C30.1 7.6474 29.5627 6.35019 28.6062 5.39376C27.6498 4.43732 26.3526 3.9 25 3.9H23C22.1778 3.9 21.3893 4.22661 20.808 4.80797C20.2266 5.38933 19.9 6.17783 19.9 7C19.9 7.82217 20.2266 8.61067 20.808 9.19203C21.3893 9.77339 22.1778 10.1 23 10.1H23.9V19C23.9 20.83 23.173 22.585 21.879 23.879C20.585 25.173 18.83 25.9 17 25.9C15.17 25.9 13.415 25.173 12.121 23.879C10.827 22.585 10.1 20.83 10.1 19V10.1H11C11.8222 10.1 12.6107 9.77339 13.192 9.19203C13.7734 8.61067 14.1 7.82217 14.1 7C14.1 6.17783 13.7734 5.38933 13.192 4.80797C12.6107 4.22661 11.8222 3.9 11 3.9H9C7.6474 3.9 6.35019 4.43732 5.39376 5.39376C4.43732 6.35019 3.9 7.6474 3.9 9V18.9998C3.9 18.9999 3.9 18.9999 3.9 19C3.89957 22.0961 4.99573 25.0923 6.99406 27.4571C8.79042 29.5829 11.2114 31.075 13.9 31.7298V32C13.9 35.7396 15.3855 39.3259 18.0298 41.9702C20.6741 44.6145 24.2604 46.1 28 46.1C31.7395 46.1 35.3259 44.6145 37.9702 41.9702C40.6145 39.3259 42.1 35.7396 42.1 32V29.3907C43.3572 28.7808 44.4124 27.8104 45.1255 26.5951C45.9733 25.15 46.283 23.4518 45.9998 21.8005C45.7166 20.1492 44.8587 18.6512 43.5778 17.5713C42.2969 16.4913 40.6754 15.899 39 15.899C37.3246 15.899 35.7031 16.4913 34.4222 17.5713C33.1413 18.6512 32.2834 20.1492 32.0002 21.8005C31.717 23.4518 32.0267 25.15 32.8745 26.5951C33.5876 27.8104 34.6428 28.7808 35.9 29.3907V32C35.9 34.0952 35.0677 36.1046 33.5861 37.5861C32.1046 39.0677 30.0952 39.9 28 39.9C25.9048 39.9 23.8954 39.0677 22.4139 37.5861C20.9323 36.1046 20.1 34.0952 20.1 32ZM39.6364 23.6364C39.4676 23.8052 39.2387 23.9 39 23.9C38.7613 23.9 38.5324 23.8052 38.3636 23.6364C38.1948 23.4676 38.1 23.2387 38.1 23C38.1 22.7613 38.1948 22.5324 38.3636 22.3636C38.5324 22.1948 38.7613 22.1 39 22.1C39.2387 22.1 39.4676 22.1948 39.6364 22.3636C39.8052 22.5324 39.9 22.7613 39.9 23C39.9 23.2387 39.8052 23.4676 39.6364 23.6364Z" stroke="#01A19A" stroke-width="2.2"/>
</svg>
