<svg width="119" height="150" viewBox="0 0 119 150" fill="none" xmlns="http://www.w3.org/2000/svg">
<path d="M38.149 85.3271H44.1309L46.7269 85.6657L49.0971 86.2301L51.8059 87.133L53.2731 87.9231L53.4989 88.2617L53.7246 89.9547L53.8375 91.422V94.4694L53.7246 94.5822H52.4831L51.3544 92.4378L50.4515 91.1962L49.4357 90.0676L48.0813 89.0518L46.7269 88.2617L44.5824 87.4716L42.3251 87.0202L41.0835 86.9073H38.6005L36.6817 87.133L35.1016 87.5845L33.4086 88.2617L31.2641 89.3904L30.0226 90.2933L28.5553 91.5348L28.8939 92.5506L29.2325 93.7922L29.3454 94.5822V96.3881L29.0068 97.7425L28.5553 98.7583L27.7652 99.9998L26.1851 101.58L24.605 102.709L23.1377 103.499L23.0248 103.837L24.0406 104.063L26.1851 104.966L27.991 106.095L29.5711 107.562L30.5869 108.916L31.4898 110.609L31.9413 112.077L32.167 113.77V116.027L31.8284 117.833L31.1512 119.639L30.1354 121.332L29.1196 122.46L28.781 122.912L28.8939 123.25L30.5869 124.379L32.8442 125.395L35.1016 126.072L37.0203 126.411H40.9707L43.7923 125.959L46.0497 125.282L47.8555 124.492L49.3228 123.589L50.5643 122.573L51.5801 121.557L52.7088 120.09L53.7246 118.397L53.9503 117.946L54.7404 117.833L54.9661 117.946V118.961L53.4989 124.379L52.8217 126.411L50.1129 127.201L47.8555 127.652L44.6953 127.991L41.8736 128.104H39.6163L36.7946 127.991L33.86 127.652L31.6027 127.088L29.0068 126.185L26.4108 125.056L25.8465 125.169L24.0406 126.072L21.7833 126.749L19.9774 127.088L18.8488 127.201L11.5124 127.314L8.35214 127.426H0V125.959L3.0474 125.169L4.06321 124.718L4.51467 123.815L4.74041 121.67V113.77L4.62754 98.4197L4.51467 88.9389L4.40181 88.6003L1.693 88.2617L0 88.1488V86.5687L5.75621 86.1172L10.0451 85.8915H17.3815L19.9774 86.1172L22.2348 86.5687L23.9278 87.2459L25.395 88.036L26.298 88.7132L26.7494 88.6003L29.3454 87.2459L32.167 86.2301L34.6501 85.6657L38.149 85.3271ZM12.3025 87.4716L9.81941 87.9231L9.70655 88.036V100.113L9.93228 103.95L10.9481 104.176L12.1896 104.289H14.1084L15.6885 104.176L16.3657 103.95L16.8172 101.693L17.6072 99.4355L18.5102 97.6296L19.6388 95.7109L20.9932 93.905L22.009 92.6635L23.2506 91.422L23.0248 90.8576L22.2348 89.8418L21.3318 89.0518L19.7517 88.2617L17.7201 87.6974L16.2528 87.4716H12.3025ZM11.0609 105.869L9.93228 105.982L9.81941 106.32V114.785L9.93228 119.526L10.158 122.46L10.6095 123.476L11.3995 124.379L12.5282 125.056L14.2212 125.508L15.237 125.621H17.7201L19.6388 125.282L21.219 124.718L22.4605 124.04L23.4763 123.25L22.912 122.686L21.4447 121.332L20.6546 120.542L19.4131 118.849L18.3973 117.043L17.4944 115.011L16.8172 112.867L16.3657 110.609L16.2528 109.594L16.14 105.869H11.0609ZM22.7991 107.675L22.912 110.158L23.2506 112.867L23.9278 115.688L24.605 117.494L25.5079 119.3L25.9594 119.864L26.6366 117.833L26.8623 116.366V115.124L26.5237 113.092L26.0722 111.512L25.2822 109.932L24.4921 108.916L23.702 108.126L23.0248 107.675H22.7991Z" fill="#2D2D2E"/>
<path d="M74.9436 0H75.7336L75.9594 0.451467L76.298 3.16027L77.8781 19.6388L78.781 27.991V28.8939L79.7968 29.1196L81.1512 29.7968L82.2799 30.8126L83.07 31.8284L83.6343 33.07L83.9729 34.4244L84.0858 35.2144V37.0203L83.86 38.4876L86.0045 39.842L87.3589 40.8578L88.6004 41.8736L89.7291 42.8894L91.9864 45.1467L93.228 46.7269L94.3566 48.1941L95.7111 50.3386L97.0655 52.8217L98.307 55.5305L99.4357 58.6907L100.226 61.2867L101.016 64.6727L101.58 68.1716L101.919 71.6704L102.032 73.5892L102.935 74.3792L103.95 75.5079L104.966 77.088L105.643 78.5553L106.095 80.3612V82.3928L105.643 84.1986L104.628 86.2302L105.643 87.4718L106.772 88.7133L107.562 89.6162L108.916 91.0835L110.497 92.7765L111.287 93.5666L112.077 94.4695L112.19 94.5824V95.1467L112.077 95.2596H111.4L110.045 93.7923L109.029 92.7765L108.239 91.8736L107.449 91.0835L106.659 90.1806L105.305 88.7133L104.289 87.4718L103.499 86.456V85.8916L104.402 84.4244L104.966 82.7314L105.079 81.9413V80.8126L104.74 79.1196L104.176 77.7652L103.047 76.0722L101.806 74.7178L101.129 74.1535L101.016 73.9278L100.677 69.526L100.113 65.5756L99.2099 61.5124L98.1941 58.2393L97.2912 55.8691L96.0497 53.1603L95.0338 51.2415L93.5666 48.8713L92.0993 46.9526L90.8578 45.4853L89.5034 44.0181L88.0361 42.6637L86.1174 41.1964L84.4244 40.0677L82.9571 39.1648L82.7314 38.7133L82.8442 38.0361L82.9571 37.4718V34.763L82.5056 33.07L81.8284 31.8284L81.377 31.2641L80.2483 30.474L79.2325 30.0226L78.2167 29.684L77.8781 29.2325L77.2009 23.4763L75.7336 8.57788L75.395 4.96614L75.1693 6.65914L73.702 21.6704L72.912 28.781L72.6862 29.4582L72.3476 29.7968L70.8804 30.2483L69.7517 30.9255L68.7359 32.0542L68.0587 33.5214L67.7201 35.1016V37.1332L67.9458 38.2618V38.939L67.6072 39.2776L65.5756 40.5192L63.9955 41.6479L62.7539 42.6637L61.3995 43.9052L59.5937 45.7111L58.3521 47.2912L57.1106 48.9842L55.7562 51.1287L54.1761 54.1761L52.9345 57.1106L51.8059 60.4966L50.9029 64.1084L50.3386 67.2686L49.8871 71.3318L49.7743 73.9278L49.2099 74.2664L48.7585 73.8149V72.5734L48.9842 69.4131L49.5485 65.4628L50.4515 61.3995L51.4673 58.1264L52.4831 55.4176L53.4989 53.1603L54.8533 50.5643L56.3205 48.307L57.9007 46.1625L58.9165 45.0339L59.7065 44.1309L61.3995 42.4379L62.6411 41.4221L64.5598 39.9549L66.7043 38.6004H66.93L66.7043 37.5846L66.5914 35.7788L66.8171 34.0858L67.3815 32.3928L68.0587 31.2641L69.0745 30.1354L70.316 29.3454L71.6704 28.8939H71.8962L72.009 27.4266L72.912 18.8488L74.605 1.3544L74.8307 0.112867L74.9436 0Z" fill="#2D2D2E"/>
<path d="M0.225721 133.521H112.754V134.537H0.225721L0.112854 134.424V133.634L0.225721 133.521Z" fill="#2D2D2E"/>
<path d="M16.14 105.869H17.6072L19.526 106.208L21.5576 106.885L22.912 107.562L23.0248 110.158L23.3634 112.867L24.0406 115.689L24.7178 117.494L25.6208 119.3L25.8465 119.639L25.7336 120.316L24.7178 121.896L23.5892 123.138L23.0248 122.912L21.3318 121.332L20.5418 120.542L19.3002 118.849L18.2844 117.043L17.3815 115.011L16.7043 112.867L16.2528 110.61L16.14 109.594V105.869Z" fill="#A2A2A2"/>
<path d="M38.149 85.3271H44.1309L46.7269 85.6657L49.0971 86.2301L51.8059 87.133L53.2731 87.9231L53.4989 88.2617L53.7246 89.9547L53.8375 91.422V94.4694L53.7246 94.5822H52.4831L51.3544 92.4378L50.4515 91.1962L49.4357 90.0676L48.0813 89.0518L46.7269 88.2617L44.5824 87.4716L42.325 87.0202L41.0835 86.9073H38.6004L36.6817 87.133L35.1016 87.5845L33.4086 88.2617L31.2641 89.3904L30.0226 90.2933L28.5553 91.5348H28.3296L27.5395 90.1804L26.4108 88.9389L26.9752 88.4874L29.3454 87.2459L32.167 86.2301L34.6501 85.6657L38.149 85.3271Z" fill="#A2A2A2"/>
<path d="M54.1761 117.833L54.9661 117.946V118.962L53.4989 124.379L52.8217 126.411L50.1129 127.201L47.8555 127.652L44.6952 127.991L41.8736 128.104H39.6162L36.7946 127.991L33.86 127.652L31.6027 127.088L29.0068 126.185L26.1851 124.944L26.7494 124.492L27.7652 123.702L28.4424 123.138L28.6682 122.912L29.2325 123.476L30.8126 124.492L33.1828 125.508L35.553 126.185L37.0203 126.411H40.9706L43.7923 125.959L46.0496 125.282L47.8555 124.492L49.3228 123.589L50.5643 122.573L51.5801 121.558L52.7088 120.09L53.7246 118.397L53.9503 117.946L54.1761 117.833Z" fill="#A2A2A2"/>
<path d="M23.1377 91.4219H23.3634L23.9278 92.8891L24.1535 94.1307V96.1623L23.702 98.081L22.7991 99.8869L21.8961 101.241L21.1061 102.144L19.5259 103.16L17.4943 103.837L16.2528 104.063L16.7043 101.693L17.4943 99.4354L18.3973 97.6295L19.5259 95.7108L20.8803 93.9049L21.8961 92.6634L23.1377 91.4219Z" fill="#A2A2A2"/>
<path d="M79.0068 118.736H80.4741L81.4899 119.188L82.0542 119.526L83.9729 119.639L84.0858 119.752V120.316L83.9729 120.429H83.1829L82.2799 120.204L82.6185 121.219L82.5057 122.122L82.1671 122.8L81.2641 123.59L80.4741 123.928L79.0068 124.041L78.1039 124.38L77.8781 124.493V124.831L78.6682 125.17L80.3612 125.395L81.9413 125.508L83.07 125.96L83.5215 126.524L83.7472 127.088L83.6343 128.217L82.9571 129.12L81.9413 129.684L80.6998 130.023H78.4425L77.0881 129.572L76.4109 129.007L76.1851 128.556V127.766L76.8623 126.863L77.991 126.186H78.2167V125.96L77.6524 125.847L76.7495 125.17V124.493L77.4267 124.041L78.3296 123.702L77.4267 123.025L76.9752 122.348L76.8623 121.897V120.881L77.2009 119.978L77.6524 119.414L78.3296 118.962L79.0068 118.736ZM79.3454 119.075L78.5553 119.414L78.1039 120.316V122.348L78.6682 123.251L79.3454 123.59L80.3612 123.477L81.0384 122.912L81.377 122.122V120.655L81.0384 119.865L80.4741 119.301L80.0226 119.075H79.3454ZM79.1197 126.186L78.1039 126.524L77.4267 127.088L77.2009 127.54V128.33L77.6524 129.007L78.3296 129.459L79.2325 129.684H80.2483L81.6027 129.346L82.5057 128.781L82.9571 127.991V127.314L82.6185 126.75L81.9413 126.411L81.377 126.298L79.1197 126.186Z" fill="#2D2D2E"/>
<path d="M99.8871 100.564H100.564L100.677 110.835L101.58 111.061V111.4L99.8871 111.851H99.4357V111.061L98.1941 111.625L97.4041 111.851H96.0497L95.1467 111.4L94.5824 110.835L94.1309 110.158L93.9052 109.481V107.901L94.2438 106.885L94.8081 106.095L95.9368 105.418L96.7269 105.192H98.1941L99.3228 105.531L99.2099 101.919L98.6456 101.58L98.0813 101.355V101.016L99.8871 100.564ZM96.9526 105.531L96.0497 105.982L95.3725 106.772L95.1467 107.449V109.142L95.7111 110.271L96.2754 110.722L97.1783 111.061H98.0813L99.2099 110.722L99.3228 110.61L99.4357 109.368V107.901L99.3228 106.659L98.9842 106.095L98.1941 105.643L97.7427 105.531H96.9526Z" fill="#2D2D2E"/>
<path d="M40.2934 100.564H40.7449V105.643L41.7607 105.305L42.3251 105.192H43.9052L45.0339 105.643L45.9368 106.659L46.2754 107.788V109.029L45.8239 110.271L45.0339 111.174L43.9052 111.738L43.5666 111.851H41.9865L40.7449 111.4L40.1806 111.625L39.9548 111.851H39.6162L39.5034 101.919L38.8262 101.467L38.4876 101.355L38.6004 101.016L40.2934 100.564ZM41.9865 105.643L40.9706 105.982L40.7449 106.208V109.932L40.9706 110.722L41.535 111.174L42.0993 111.4H43.0023L43.9052 111.061L44.5824 110.497L44.921 109.707L45.0339 109.142V108.014L44.6953 106.998L44.1309 106.208L43.3409 105.756L42.8894 105.643H41.9865Z" fill="#2D2D2E"/>
<path d="M48.7585 100.564H49.4357V111.174L50.5643 111.287L50.7901 111.4L51.9187 111.061L52.0316 110.835V106.208L51.1287 105.756V105.418L52.1445 104.966L52.7088 104.515L52.8217 104.289H53.1603L53.2731 104.515V110.835L54.4018 111.4V111.738H46.9526V111.4L48.1941 111.174V101.919L47.2912 101.467L47.4041 100.903L48.7585 100.564Z" fill="#2D2D2E"/>
<path d="M14.447 140.293H17.6072L18.623 140.519L19.3002 141.083L19.526 141.647V142.55L19.1874 143.228L18.623 143.679L18.2844 143.905L19.0745 144.808L19.9774 146.275V146.614H18.5102L17.7201 145.598L16.8172 144.243L15.8014 144.018V146.501L15.6885 146.614H14.447V140.293ZM15.8014 141.535V142.776H17.833L18.1716 142.212L17.9458 141.647L17.833 141.535H15.8014Z" fill="#2D2D2E"/>
<path d="M91.9865 140.293H93.228L94.0181 141.422L95.1467 143.34L95.4853 143.905L95.5982 140.406L95.7111 140.293H96.8397L96.9526 140.406V146.501L96.8397 146.614H95.5982L94.2438 144.469L93.3409 143.002L93.228 146.614H91.9865V140.293Z" fill="#2D2D2E"/>
<path d="M55.5305 140.293H56.772L57.5621 141.422L58.6908 143.34L59.0294 143.905L59.1422 140.406L59.2551 140.293H60.3838L60.4966 140.406V146.501L60.3838 146.614H59.1422L57.7878 144.469L56.8849 143.002L56.772 146.614H55.5305V140.293Z" fill="#2D2D2E"/>
<path d="M30.5869 140.181L31.9413 140.294L32.8443 140.745L33.4086 141.422L33.6343 142.099L32.9571 142.325L32.2799 142.438L31.8285 141.761L31.4899 141.535H30.3612L29.7968 141.874L29.4582 142.438L29.3454 143.002V143.792L29.684 144.808L30.1354 145.26L30.3612 145.373H31.6027L32.1671 145.034L32.2799 144.357H30.9255V143.115H33.6343V145.824L32.7314 146.388L31.377 146.727L30.0226 146.614L28.8939 146.05L28.2167 145.147L27.8781 144.131V142.777L28.3296 141.535L29.0068 140.745L30.0226 140.294L30.5869 140.181Z" fill="#2D2D2E"/>
<path d="M69.4131 118.51H69.8646L69.9774 119.751L71.1061 119.074L72.009 118.735H73.2506L73.9278 119.074L74.4921 119.751L74.7178 121.106V124.943L75.8465 125.169V125.62H72.2348L72.3476 125.169L73.3634 124.943L73.4763 124.83V121.106L73.2506 120.203L72.912 119.864L72.3476 119.638H71.5576L70.6546 119.977L69.9774 120.429L69.8646 120.654L69.9774 124.943L71.1061 125.282L71.219 125.62H67.3815L67.4944 125.282L68.623 125.056V121.106L68.5102 120.767L67.7201 120.429V119.977L68.623 119.526L69.3002 118.735L69.4131 118.51Z" fill="#2D2D2E"/>
<path d="M42.3251 140.293H46.8397L46.9526 140.406V141.422L46.8397 141.535H43.6795V142.663H46.614L46.7269 142.776V143.792L46.614 143.905H43.6795V145.372H46.9526L47.0655 145.485V146.501L46.9526 146.614H42.3251V140.293Z" fill="#2D2D2E"/>
<path d="M107.449 140.293H108.691L109.255 141.422L111.174 146.275V146.614H109.819L109.255 145.372L106.885 145.259L106.546 146.388L106.433 146.614H105.079L105.192 145.936L106.885 141.535L107.336 140.406L107.449 140.293ZM108.014 142.099L107.336 144.018H108.804L108.126 142.099H108.014Z" fill="#2D2D2E"/>
<path d="M2.59594 140.293H3.83748L4.40181 141.422L6.32055 146.275V146.614H4.96615L4.40181 145.372L2.03161 145.259L1.69301 146.388L1.58014 146.614H0.225739L0.338605 145.936L2.03161 141.535L2.48307 140.406L2.59594 140.293ZM3.16028 142.099L2.48307 144.018H3.95034L3.27314 142.099H3.16028Z" fill="#2D2D2E"/>
<path d="M107.111 118.736H108.916L110.158 119.188L111.061 119.978L111.625 120.881L111.851 121.671V123.025L111.4 124.154L110.835 124.831L109.819 125.508L108.804 125.847H107.111L105.982 125.395L105.079 124.718L104.402 123.59L104.176 122.687V121.897L104.515 120.768L105.192 119.752L106.095 119.075L107.111 118.736ZM107.675 119.075L106.772 119.414L106.095 119.978L105.643 120.994L105.53 121.784V123.025L105.756 124.041L106.433 124.944L107.111 125.395L107.562 125.508H108.352L109.481 125.057L110.158 124.154L110.497 123.251V121.558L110.158 120.429L109.707 119.752L109.142 119.301L108.465 119.075H107.675Z" fill="#2D2D2E"/>
<path d="M61.7382 118.736H63.544L64.7856 119.188L65.6885 119.978L66.2528 120.881L66.4786 121.671V123.025L66.0271 124.154L65.4628 124.831L64.447 125.508L63.4312 125.847H61.7382L60.6095 125.395L59.7066 124.718L59.0294 123.59L58.8036 122.687V121.897L59.1422 120.768L59.8194 119.752L60.7224 119.075L61.7382 118.736ZM62.3025 119.075L61.3996 119.414L60.7224 119.978L60.2709 120.994L60.158 121.784V123.025L60.3838 124.041L61.061 124.944L61.7382 125.395L62.1896 125.508H62.9797L64.1084 125.057L64.7856 124.154L65.1242 123.251V121.558L64.7856 120.429L64.3341 119.752L63.7698 119.301L63.0926 119.075H62.3025Z" fill="#2D2D2E"/>
<path d="M58.1264 104.854H59.8194L60.9481 105.305L61.851 106.095L62.3025 106.659L62.6411 107.675V109.142L62.1896 110.158L61.3995 111.061L60.4966 111.626L59.7065 111.851H58.0135L56.6591 111.287L55.8691 110.497L55.3047 109.368L55.1919 108.917V107.788L55.6433 106.547L56.4334 105.644L56.9977 105.192L58.1264 104.854ZM58.5779 105.192L57.4492 105.644L56.772 106.659L56.5463 107.449V109.368L56.8849 110.384L57.4492 111.061L58.0135 111.4L58.465 111.513H59.2551L60.158 111.174L60.7223 110.61L61.2867 109.481L61.3995 108.24L61.0609 106.659L60.3837 105.644L59.8194 105.305L59.3679 105.192H58.5779Z" fill="#2D2D2E"/>
<path d="M85.1016 104.854H86.5688L87.1332 105.192L87.5846 105.644L87.6975 105.982L87.8104 110.835L88.3747 110.948L88.8262 110.61H89.0519L88.939 111.174L88.2618 111.851H87.246L86.6817 111.4L86.456 110.948L85.4402 111.626L84.763 111.851H83.5214L83.07 111.513L82.9571 110.723L83.4086 109.82L84.4244 108.804L86.456 107.788L86.5688 106.998L86.3431 105.756L85.7788 105.418L84.8758 105.531L84.3115 106.095L83.9729 107.224L83.5214 107.562H82.9571L82.8442 106.998L83.6343 105.756L84.5372 105.079L85.1016 104.854ZM86.456 108.127L85.3273 108.804L84.763 109.255L84.1986 110.158V110.835L84.6501 111.287L85.4402 111.174L86.1174 110.723L86.5688 110.384V108.127H86.456Z" fill="#2D2D2E"/>
<path d="M93.3409 118.736H94.921L95.8239 119.188L96.5011 119.978L96.8397 120.881V121.332L91.9865 121.445V122.687L92.5508 124.041L93.228 124.605L94.2438 124.944H95.0339L96.1625 124.493L96.8397 124.041L96.9526 124.493L96.0497 125.283L95.1467 125.734L94.6953 125.847H93.1151L92.0993 125.395L91.3093 124.718L90.8578 123.815L90.7449 123.364V121.671L91.1964 120.429L91.8736 119.526L92.6637 118.962L93.3409 118.736ZM93.6795 119.075L92.7765 119.526L92.0993 120.542V120.994H95.3725L95.5982 120.768L95.4853 119.978L95.1467 119.414L94.4695 119.075H93.6795Z" fill="#2D2D2E"/>
<path d="M104.966 104.854H106.546L107.449 105.305L108.126 106.095L108.352 106.659V107.337H103.612L103.725 108.917L104.402 110.271L105.305 110.835L105.869 110.948H106.659L107.562 110.61L108.352 110.045H108.465V110.61L107.449 111.4L106.321 111.851H104.74L103.725 111.4L102.935 110.61L102.483 109.481L102.37 108.352L102.709 106.998L103.16 106.095L103.725 105.531L104.628 104.966L104.966 104.854ZM105.305 105.192L104.402 105.644L103.837 106.434L103.725 106.998H106.885L107.111 106.885V106.095L106.659 105.418L106.095 105.192H105.305Z" fill="#2D2D2E"/>
<path d="M71.3318 104.854H72.912L73.8149 105.305L74.4921 106.095L74.7178 106.659V107.337H69.9774L70.0903 108.917L70.7675 110.271L71.6704 110.835L72.2348 110.948H73.0248L73.9278 110.61L74.7178 110.045H74.8307V110.61L73.8149 111.4L72.6862 111.851H71.1061L70.0903 111.4L69.3002 110.61L68.8488 109.481L68.7359 108.352L69.0745 106.998L69.526 106.095L70.0903 105.531L70.9932 104.966L71.3318 104.854ZM71.6704 105.192L70.7675 105.644L70.2032 106.434L70.0903 106.998H73.2506L73.4763 106.885V106.095L73.0248 105.418L72.4605 105.192H71.6704Z" fill="#2D2D2E"/>
<path d="M110.835 100.564H111.512V111.174L112.641 111.287L112.754 111.738H109.029V111.4L110.271 111.174V101.919L109.368 101.467L109.481 100.903L110.835 100.564Z" fill="#2D2D2E"/>
<path d="M86.6817 118.284H87.1332L87.2461 120.203L88.2619 119.074L88.9391 118.736H89.6163L90.0677 119.187V119.977L89.7291 120.316H89.0519L88.4876 120.09L87.9233 120.203L87.3589 121.106L87.2461 122.122L87.3589 124.943L89.1648 125.169L89.2777 125.621L86.3431 125.733H84.6501V125.395L85.8917 125.056V120.429L84.763 120.203L84.8758 119.751L86.1174 119.074L86.6817 118.284Z" fill="#2D2D2E"/>
<path d="M78.5553 104.854H80.5869L81.6027 105.305L81.7156 105.982L81.377 106.321H80.6998L79.684 105.531L78.6682 105.418L77.991 105.869L77.4266 106.772L77.3138 107.224V109.03L77.7652 110.045L78.3296 110.61L79.1196 110.948H79.9097L80.9255 110.61L81.7156 110.045H81.8285V110.61L80.8126 111.513L79.9097 111.851H78.3296L77.3138 111.4L76.5237 110.723L75.9594 109.594L75.7336 108.127L76.0722 106.772L76.7494 105.756L77.7652 105.079L78.5553 104.854Z" fill="#2D2D2E"/>
<path d="M99.8871 118.736H101.58L102.37 118.962L102.483 119.414V120.655H102.144L101.467 119.639L100.677 119.188H100L99.4357 119.639L99.3228 120.316L99.6614 120.881L101.467 121.784L102.144 122.235L102.709 122.912L102.935 123.59L102.822 124.493L102.37 125.17L101.806 125.621L101.129 125.847H99.5485L98.4199 125.508L98.1941 123.702H98.6456L99.2099 124.718L99.7743 125.17L100.339 125.395L101.354 125.283L101.919 124.718L101.806 123.702L101.242 123.138L98.8713 122.009L98.4199 121.445L98.1941 120.881L98.307 119.865L98.9842 119.075L99.8871 118.736Z" fill="#2D2D2E"/>
<path d="M68.8488 140.293H73.702L73.8149 140.406V141.422L73.702 141.535H72.009V146.614H70.6546V141.535H68.8488V140.293Z" fill="#2D2D2E"/>
<path d="M65.5756 103.16L65.9142 103.273V105.079H68.1716L68.0587 105.643L65.9142 105.756V110.497L66.14 111.174L66.93 111.287L67.7201 111.061L68.1716 110.948V111.287L67.4944 111.738L67.0429 111.851H65.6885L65.1242 111.512L64.7856 111.061L64.6727 110.497V105.643H63.6569V105.417L64.5598 104.853L65.0113 104.289L65.5756 103.16Z" fill="#2D2D2E"/>
<path d="M36.456 104.289H36.7946L36.9075 104.515V110.835L38.0361 111.4V111.738H34.3115L34.4244 111.4L35.5531 111.061L35.6659 110.835V106.208L34.763 105.756V105.418L35.7788 104.966L36.3431 104.515L36.456 104.289Z" fill="#2D2D2E"/>
<path d="M82.0542 140.293H83.2957L83.4086 140.406V146.501L83.2957 146.614H82.0542L81.9413 146.501V140.406L82.0542 140.293Z" fill="#2D2D2E"/>
<path d="M82.0542 140.293H83.2957L83.4086 140.406V146.501L83.2957 146.614H82.0542V146.388H83.1828V140.519H82.0542V140.293Z" fill="#2D2D2E"/>
<path d="M52.2573 100.79H52.9345L53.386 101.242L53.2731 101.806L52.9345 102.144H52.2573L51.8059 101.693L51.9187 101.016L52.2573 100.79Z" fill="#2D2D2E"/>
<path d="M35.8917 100.79H36.5689L37.0203 101.242L36.9075 101.806L36.5689 102.144H35.8917L35.4402 101.693L35.5531 101.016L35.8917 100.79Z" fill="#2D2D2E"/>
<path d="M19.1874 145.26L19.6388 145.711L19.9774 146.276V146.614H18.5102V146.276H19.6388L19.1874 145.485V145.26Z" fill="#2D2D2E"/>
<path d="M107.449 143.228L107.562 143.566L107.449 143.905L108.804 144.018L108.916 143.792L109.029 144.243H107.223L107.336 143.453L107.449 143.228Z" fill="#2D2D2E"/>
<path d="M2.59594 143.228L2.70881 143.566L2.59594 143.905L3.95034 144.018L4.06321 143.792L4.17608 144.243H2.37021L2.48308 143.453L2.59594 143.228Z" fill="#2D2D2E"/>
</svg>
