<svg width="142" height="78" viewBox="0 0 142 78" fill="none" xmlns="http://www.w3.org/2000/svg">
<path d="M1.16627 75.6308L3.99582 68.6406H6.03202L9.18478 75.6308H7.28962L6.70783 74.2469H3.56389L3.03207 75.6308H1.16333H1.16627ZM4.02227 73.0204H6.17602L5.04478 70.3079L4.0252 73.0204H4.02227Z" fill="#1D1D1B"/>
<path d="M18.9604 75.6308V68.6406H22.1044C22.8184 68.6406 23.3855 68.8422 23.8056 69.2393C24.2287 69.6393 24.4374 70.1122 24.4374 70.6554C24.4374 71.4292 24.0349 71.9927 23.2297 72.3548C23.6235 72.5446 23.985 73.0438 24.3169 73.8409C24.3492 73.8992 24.6255 74.498 25.1514 75.628H23.2268C23.0388 75.2132 22.7861 74.6672 22.4687 73.9782C22.2454 73.5111 22.0368 73.1899 21.8341 73.0148C21.6578 72.8628 21.4433 72.7898 21.1906 72.7898H20.7205V75.6308H18.9634H18.9604ZM20.7175 71.5051H21.6284C22.2924 71.5051 22.6245 71.2394 22.6245 70.7109C22.6245 70.1824 22.2748 69.9283 21.5726 69.9283H20.7175V71.5051Z" fill="#1D1D1B"/>
<path d="M38.9433 73.202V71.9174H41.7523V74.7991C41.5672 75.0123 41.194 75.2227 40.6357 75.43C40.0805 75.6373 39.4751 75.7422 38.8199 75.7422C37.5859 75.7422 36.5721 75.4007 35.7817 74.7173C34.9944 74.0342 34.5978 73.1817 34.5978 72.1655C34.5978 71.0617 35.0003 70.1801 35.7964 69.5171C36.5958 68.8602 37.5946 68.5303 38.8022 68.5303C39.8748 68.5303 40.8004 68.7172 41.5878 69.0909V70.6181C40.7298 70.2033 39.863 69.996 38.9785 69.996C38.1735 69.996 37.5448 70.2004 37.0893 70.6093C36.6369 71.018 36.4107 71.5581 36.4107 72.2355C36.4107 72.7903 36.6222 73.2691 37.0482 73.6721C37.4772 74.0751 38.0943 74.2737 38.8994 74.2737C39.0873 74.2737 39.2929 74.2531 39.5163 74.2094C39.7425 74.1657 39.8982 74.1042 39.9923 74.0283V73.202H38.9405H38.9433Z" fill="#1D1D1B"/>
<path d="M52.2626 75.6308V68.6406H57.4162V69.9255H54.0197V71.3971H57.2487V72.6817H54.0197V74.3431H57.4957V75.628H52.2626V75.6308Z" fill="#1D1D1B"/>
<path d="M67.7739 68.6436H69.3959L73.1921 72.9326V68.6436H74.9521V75.6335H73.4653L69.5339 71.1544V75.6335H67.7768V68.6436H67.7739Z" fill="#1D1D1B"/>
<path d="M84.8983 68.6436H91.8297V69.9282H89.2439V75.6307H87.4839V69.9282H84.8983V68.6436Z" fill="#1D1D1B"/>
<path d="M101.893 68.6436H103.653V75.6335H101.893V68.6436Z" fill="#1D1D1B"/>
<path d="M114.228 68.6436H115.85L119.643 72.9326V68.6436H121.403V75.6335H119.916L115.985 71.1544V75.6335H114.228V68.6436Z" fill="#1D1D1B"/>
<path d="M131.132 75.6308L133.961 68.6406H135.997L139.15 75.6308H137.255L136.673 74.2469H133.529L133 75.6308H131.132ZM133.988 73.0204H136.141L135.01 70.3079L133.988 73.0204Z" fill="#1D1D1B"/>
<path d="M140.675 60.8035C140.675 61.3029 140.27 61.7059 139.773 61.7059H2.06551C1.56306 61.7059 1.16052 61.3029 1.16052 60.8035C1.16052 60.3071 1.56306 59.8984 2.06551 59.8984H139.773C140.27 59.8984 140.675 60.3071 140.675 60.8035Z" fill="#1D1D1B"/>
<path d="M30.8956 6.92452C36.5461 2.59732 43.7476 0.47168 51.7955 0.47168C55.9768 0.47168 61.8592 1.30967 65.4997 2.29366C66.4281 2.51849 66.9718 2.67031 67.6652 2.59732C67.7475 4.34338 68.1295 9.12608 68.7523 13.754C68.3644 14.2825 67.2039 14.3643 66.6633 13.9059C65.5025 8.74651 62.0178 2.82215 50.7908 2.82215C38.9494 2.82215 28.8829 10.1889 28.8829 25.9006C28.8829 41.6122 39.1815 50.6403 51.8778 50.6403C61.862 50.6403 66.2754 44.2663 68.0559 39.7872C68.5996 39.4076 69.7601 39.5596 70.0686 40.0909C69.525 44.0385 67.5123 49.0461 66.3518 50.4886C65.4203 50.6403 64.4918 50.9441 63.6397 51.2506C61.9355 51.855 56.3616 52.9966 51.4077 52.9966C44.4411 52.9966 37.7858 51.6331 32.1299 47.9073C25.9388 43.735 21.1377 36.8265 21.1377 27.0335C21.1377 18.6068 25.0073 11.4006 30.8927 6.92159L30.8956 6.92452Z" fill="#636466"/>
<path d="M7.8362 11.7892C7.8362 6.17435 7.52767 4.73194 4.04289 4.42826L1.56593 4.20053C0.948893 3.74503 1.02235 2.6063 1.64232 2.30263C5.82347 1.92014 11.0859 1.69531 18.2876 1.69531C23.1651 1.69531 27.8075 2.07197 31.2924 3.82095C34.6214 5.41227 37.1776 8.45181 37.1776 13.3075C37.1776 18.7734 33.9279 21.5794 29.2796 23.7052C29.2796 24.4641 29.8995 24.6948 30.7516 24.8437C34.9329 25.6058 41.1268 29.3987 41.1268 37.5187C41.1268 46.3249 34.4687 52.2435 20.5354 52.2435C18.2905 52.2435 14.4943 52.0159 11.2446 52.0159C7.99485 52.0159 5.20937 52.1676 2.34457 52.2435C1.87739 52.0159 1.72459 50.8012 2.18884 50.3457L3.58158 50.1179C7.68339 49.4376 7.83913 48.5995 7.83913 40.6314V11.7863L7.8362 11.7892ZM14.1887 21.886C14.1887 24.0087 14.2651 24.1606 18.2083 24.0087C26.1064 23.7049 30.3638 21.4305 30.3638 14.2915C30.3638 7.1525 24.7135 4.04871 18.8312 4.04871C17.124 4.04871 15.9664 4.20053 15.27 4.50128C14.4972 4.72901 14.1887 5.11152 14.1887 6.47801V21.8831V21.886ZM14.1887 39.4954C14.1887 42.2285 14.3415 46.1001 15.8165 47.7703C17.2827 49.5163 19.6069 49.8959 21.9281 49.8959C28.8184 49.8959 34.0836 46.8593 34.0836 39.2706C34.0836 33.2734 30.9868 26.2919 18.6784 26.2919C14.5002 26.2919 14.1917 26.7446 14.1917 28.2686V39.4985L14.1887 39.4954Z" fill="#1D1D1B"/>
<path d="M44.4648 27.1385C44.4648 26.3356 44.4648 26.2335 43.8975 25.8598L43.7065 25.7371C43.6243 25.6554 43.6243 25.4275 43.7302 25.3635C44.2149 25.1971 45.4197 24.6598 45.9014 24.353C46.0014 24.353 46.0895 24.3911 46.1101 24.4728C46.069 25.1971 46.0279 26.1898 46.0279 27.0336V30.7563C46.0279 32.2454 46.069 32.4499 46.827 32.5548L47.2707 32.6191C47.4205 32.7215 47.3735 33.0717 47.2295 33.133C46.5949 33.0892 45.9839 33.0717 45.2462 33.0717C44.5087 33.0717 43.8535 33.0864 43.2659 33.133C43.1189 33.0717 43.075 32.7215 43.2217 32.6191L43.6654 32.5548C44.4442 32.4499 44.4648 32.2454 44.4648 30.7563V27.1385ZM46.216 21.2522C46.216 21.9939 45.687 22.3267 45.0994 22.3267C44.4442 22.3267 44.024 21.8537 44.024 21.2931C44.024 20.6128 44.5293 20.1807 45.1611 20.1807C45.7929 20.1807 46.2129 20.677 46.2129 21.2552L46.216 21.2522Z" fill="#1D1D1B"/>
<path d="M49.3977 21.4182C49.3977 20.1977 49.3771 20.0751 48.7456 19.7013L48.534 19.5787C48.4281 19.5145 48.4281 19.2254 48.534 19.1641C49.0188 18.9801 50.0295 18.7115 50.8317 18.2998C50.914 18.2998 50.999 18.3378 51.0432 18.4224C51.0021 19.1466 50.961 20.0751 50.961 20.9831V24.89C50.961 25.2431 51.0432 25.3249 51.1695 25.3249C51.719 25.0124 52.5624 24.6446 53.5964 24.6446C56 24.6446 57.6191 26.42 57.6191 28.6914C57.6191 31.442 55.5947 33.3631 52.7739 33.3631C51.9922 33.3631 51.4016 33.2173 50.9816 33.0887C50.5379 32.9457 50.2647 32.8231 50.0971 32.8231C49.9295 32.8231 49.7591 32.9866 49.6534 33.1327C49.6329 33.153 49.6123 33.153 49.5712 33.153C49.4858 33.153 49.4008 33.1121 49.3596 33.0275C49.383 32.7384 49.4008 32.3442 49.4008 31.2727V21.4182H49.3977ZM50.961 30.2595C50.961 30.9837 51.1283 31.623 51.4838 32.0551C51.8424 32.4903 52.4094 32.7384 53.0883 32.7384C55.0685 32.7384 55.8473 31.0858 55.8473 29.3076C55.8473 27.1789 54.7308 25.5265 52.6446 25.5265C52.0128 25.5265 51.5046 25.6723 51.2106 25.8562C50.999 25.9995 50.961 26.2302 50.961 27.0331V30.2566V30.2595Z" fill="#1D1D1B"/>
<path d="M61.7684 30.7587C61.7684 32.2478 61.8124 32.4522 62.5676 32.5574L63.076 32.6217C63.2258 32.7238 63.1847 33.0741 63.0349 33.1356C62.3414 33.0916 61.7301 33.0741 60.9896 33.0741C60.2493 33.0741 59.6029 33.0888 58.9682 33.1356C58.8212 33.0741 58.7772 32.7238 58.924 32.6217L59.4119 32.5574C60.1876 32.4522 60.2141 32.2478 60.2141 30.7587V21.4211C60.2141 20.2006 60.1876 20.078 59.5589 19.7043L59.3471 19.5816C59.2415 19.5174 59.2415 19.2283 59.3471 19.167C59.8733 19.0035 60.8634 18.694 61.6245 18.3027C61.7067 18.3027 61.7918 18.3407 61.8329 18.4254C61.8155 19.0444 61.7713 20.078 61.7713 20.9861V30.7618L61.7684 30.7587Z" fill="#1D1D1B"/>
<path d="M65.6261 27.1385C65.6261 26.3356 65.6261 26.2335 65.056 25.8598L64.865 25.7371C64.7828 25.6554 64.7828 25.4275 64.8856 25.3635C65.3735 25.1971 66.5751 24.6598 67.0599 24.353C67.1627 24.353 67.2481 24.3911 67.2686 24.4728C67.2275 25.1971 67.1864 26.1898 67.1864 27.0336V30.7563C67.1864 32.2454 67.2275 32.4499 67.9884 32.5548L68.4263 32.6191C68.5762 32.7215 68.5351 33.0717 68.3852 33.133C67.7562 33.0892 67.1422 33.0717 66.4047 33.0717C65.6673 33.0717 65.0149 33.0864 64.4242 33.133C64.2774 33.0717 64.2333 32.7215 64.3831 32.6191L64.827 32.5548C65.6056 32.4499 65.6261 32.2454 65.6261 30.7563V27.1385ZM67.3774 21.2522C67.3774 21.9939 66.8514 22.3267 66.2608 22.3267C65.6084 22.3267 65.1853 21.8537 65.1853 21.2931C65.1853 20.6128 65.6937 20.1807 66.3225 20.1807C66.9512 20.1807 67.3774 20.677 67.3774 21.2552V21.2522Z" fill="#1D1D1B"/>
<path d="M78.4813 28.9191C78.4813 31.5002 76.6684 33.3629 74.0358 33.3629C71.6116 33.3629 69.7134 31.6871 69.7134 29.106C69.7134 26.5247 71.7173 24.6416 74.2031 24.6416C76.5625 24.6416 78.4813 26.3758 78.4813 28.9191ZM73.9476 25.2576C72.5578 25.2576 71.5263 26.5599 71.5263 28.8314C71.5263 30.7119 72.3933 32.7382 74.2442 32.7382C76.0954 32.7382 76.6684 30.8402 76.6684 29.246C76.6684 27.4884 75.9543 25.2576 73.9476 25.2576Z" fill="#1D1D1B"/>
<path d="M83.0119 25.7952C82.6505 25.7952 82.633 25.8595 82.633 26.2944V30.1573C82.633 31.3545 82.7798 32.4524 84.1696 32.4524C84.3812 32.4524 84.5665 32.4115 84.7397 32.3472C84.9307 32.286 85.2011 32.0582 85.2656 32.0582C85.4332 32.0582 85.5183 32.286 85.4743 32.4115C85.0952 32.8436 84.3372 33.3634 83.2617 33.3634C81.4488 33.3634 81.0699 32.3678 81.0699 31.1326V26.3996C81.0699 25.8449 81.0494 25.7981 80.6291 25.7981H80.0356C79.9122 25.7163 79.8917 25.4915 79.9768 25.366C80.588 25.179 81.1139 24.9105 81.3254 24.7236C81.6018 24.4754 81.9984 23.9206 82.2099 23.509C82.3156 23.4623 82.5682 23.4622 82.6505 23.6112V24.5397C82.6505 24.9134 82.6741 24.9309 83.0296 24.9309H85.3744C85.6242 25.115 85.58 25.6754 85.3921 25.7981H83.0119V25.7952Z" fill="#1D1D1B"/>
<path d="M88.4272 27.7803C87.8807 27.7803 87.8602 27.8242 87.8602 28.335C87.8602 30.4228 89.103 32.201 91.3567 32.201C92.053 32.201 92.6437 31.9965 93.293 31.1908C93.5074 31.1293 93.6515 31.252 93.6749 31.4389C92.9815 32.8403 91.4654 33.3629 90.3666 33.3629C88.9973 33.3629 87.9219 32.785 87.3137 31.9965C86.6788 31.1908 86.4261 30.2184 86.4261 29.3103C86.4261 26.7701 88.1334 24.6416 90.6604 24.6416C92.4761 24.6416 93.6544 25.8591 93.6544 27.1C93.6544 27.3891 93.6133 27.5555 93.5721 27.6373C93.5104 27.7628 93.2107 27.7833 92.3293 27.7833H88.43L88.4272 27.7803ZM89.7317 27.1612C91.2891 27.1612 91.7561 27.0795 91.9266 26.9539C91.9854 26.9131 92.053 26.8313 92.053 26.5599C92.053 25.9846 91.6533 25.2576 90.4252 25.2576C89.197 25.2576 88.1098 26.3758 88.0892 27.0563C88.0892 27.1 88.0892 27.1612 88.2362 27.1612H89.7317Z" fill="#1D1D1B"/>
<path d="M101.767 24.992C101.934 25.135 102.084 25.465 102.084 25.8155C102.084 26.1892 101.87 26.5835 101.62 26.5835C101.514 26.5835 101.411 26.5395 101.326 26.4374C100.859 25.8827 100.08 25.3454 99.2106 25.3454C97.7385 25.3454 96.3076 26.4811 96.3076 28.671C96.3076 30.2828 97.4416 32.2011 99.6982 32.2011C100.918 32.2011 101.552 31.6667 102.037 30.9602C102.205 30.9193 102.396 31.0654 102.416 31.2521C101.705 32.7821 100.118 33.3603 98.8962 33.3603C97.7855 33.3603 96.7481 33.0041 96.0107 32.3032C95.2732 31.6027 94.7885 30.5922 94.7885 29.2463C94.7885 27.0155 96.3898 24.6387 99.8833 24.6387C100.371 24.6387 101.194 24.7439 101.761 24.9892L101.767 24.992Z" fill="#1D1D1B"/>
<path d="M107.455 28.7936C107.773 28.6884 107.817 28.5045 107.817 28.1949L107.834 27.243C107.858 26.4781 107.608 25.4445 106.298 25.4445C105.707 25.4445 104.993 25.7336 104.952 26.373C104.926 26.7029 104.908 26.9511 104.737 27.0766C104.42 27.3248 103.856 27.4709 103.536 27.4709C103.345 27.4709 103.242 27.3657 103.242 27.1818C103.242 26.1073 105.625 24.6416 107.162 24.6416C108.698 24.6416 109.418 25.5057 109.353 27.0563L109.227 30.6504C109.186 31.6023 109.374 32.4492 110.194 32.4492C110.408 32.4492 110.599 32.3877 110.723 32.3265C110.826 32.2653 110.934 32.1804 110.996 32.1804C111.081 32.1804 111.143 32.3031 111.143 32.4463C111.143 32.5513 110.408 33.3573 109.377 33.3573C108.872 33.3573 108.363 33.1731 108.005 32.7148C107.917 32.5893 107.79 32.4258 107.667 32.4258C107.52 32.4258 107.27 32.6127 106.847 32.8344C106.38 33.0798 105.919 33.3542 105.331 33.3542C104.743 33.3542 104.212 33.1878 103.856 32.8753C103.45 32.5222 103.204 32.0112 103.204 31.4302C103.204 30.6214 103.603 30.1484 104.952 29.6724L107.458 28.7848L107.455 28.7936ZM106.151 32.4286C106.571 32.4286 107.226 32.1164 107.435 31.9091C107.688 31.6609 107.688 31.3718 107.708 30.9395L107.749 29.7192C107.749 29.4944 107.667 29.4504 107.538 29.4504C107.408 29.4504 107.053 29.5322 106.677 29.6549C105.434 30.0695 104.823 30.3791 104.823 31.1877C104.823 31.5382 105.075 32.4258 106.151 32.4258V32.4286Z" fill="#1D1D1B"/>
<path d="M125.273 30.0521C125.273 31.6872 125.296 32.4493 125.884 32.4493C126.113 32.4493 126.472 32.3441 126.789 32.2448C126.936 32.2857 126.959 32.8026 126.766 32.9047C125.881 33.0274 124.576 33.3399 123.983 33.5675C123.857 33.5675 123.754 33.5034 123.754 33.4011V33.048C123.754 32.7383 123.754 32.4932 123.707 32.4084H123.625C122.696 33.0274 121.979 33.3602 120.968 33.3602C118.624 33.3602 117.069 31.5586 117.069 29.3893C117.069 26.4957 119.299 24.6389 122.17 24.6389C122.887 24.6389 123.351 24.7438 123.58 24.8228C123.689 24.8228 123.707 24.6972 123.707 24.5306V21.4123C123.707 20.1918 123.689 20.0692 123.054 19.6955L122.843 19.5728C122.737 19.5086 122.737 19.2195 122.843 19.1582C123.372 18.9947 124.362 18.6852 125.117 18.2939C125.205 18.2939 125.29 18.3319 125.329 18.4166C125.308 19.0356 125.267 20.0692 125.267 20.9773V30.0492L125.273 30.0521ZM123.713 26.9543C123.713 26.5395 123.63 26.3556 123.483 26.1483C123.166 25.7131 122.537 25.2811 121.712 25.2811C119.793 25.2811 118.803 26.9134 118.803 28.7119C118.803 30.5106 119.878 32.3675 121.941 32.3675C122.514 32.3675 123.225 32.1193 123.566 31.7893C123.692 31.6669 123.713 31.3514 123.713 31.0245V26.9512V26.9543Z" fill="#1D1D1B"/>
<path d="M129.801 27.7805C129.254 27.7805 129.234 27.8242 129.234 28.3353C129.234 30.4228 130.477 32.201 132.727 32.201C133.427 32.201 134.017 31.9968 134.669 31.1908C134.881 31.1295 135.025 31.2522 135.045 31.4389C134.352 32.8406 132.836 33.3632 131.74 33.3632C130.368 33.3632 129.295 32.785 128.684 31.9968C128.05 31.1908 127.797 30.2186 127.797 29.3105C127.797 26.7703 129.507 24.6416 132.034 24.6416C133.844 24.6416 135.025 25.8591 135.025 27.1003C135.025 27.3893 134.984 27.5557 134.943 27.6375C134.881 27.763 134.581 27.7833 133.7 27.7833H129.801V27.7805ZM131.108 27.1615C132.665 27.1615 133.133 27.0797 133.3 26.9542C133.365 26.9133 133.427 26.8315 133.427 26.5599C133.427 25.9849 133.027 25.2578 131.802 25.2578C130.577 25.2578 129.486 26.376 129.463 27.0563C129.463 27.1003 129.463 27.1615 129.613 27.1615H131.108Z" fill="#1D1D1B"/>
<path d="M138.824 30.7588C138.824 32.2479 138.866 32.4523 139.624 32.5573L140.129 32.6216C140.276 32.7239 140.235 33.0742 140.088 33.1354C139.391 33.0917 138.78 33.0742 138.043 33.0742C137.305 33.0742 136.65 33.0889 136.018 33.1354C135.872 33.0742 135.827 32.7239 135.977 32.6216L136.459 32.5573C137.238 32.4523 137.261 32.2479 137.261 30.7588V21.4211C137.261 20.2006 137.238 20.078 136.603 19.7043L136.395 19.5816C136.295 19.5174 136.295 19.2283 136.395 19.167C136.923 19.0035 137.914 18.694 138.675 18.3027C138.757 18.3027 138.839 18.3407 138.88 18.4254C138.86 19.0444 138.819 20.078 138.819 20.9861V30.7616L138.824 30.7588Z" fill="#1D1D1B"/>
<path d="M82.2597 45.8722C82.2597 48.6606 80.3028 50.6694 77.4556 50.6694C74.8376 50.6694 72.7898 48.8622 72.7898 46.0707C72.7898 43.2793 74.9551 41.2529 77.6379 41.2529C80.3206 41.2529 82.2597 43.1247 82.2597 45.8722ZM77.3674 41.9216C75.863 41.9216 74.7466 43.3261 74.7466 45.7845C74.7466 47.8108 75.681 50.0007 77.6849 50.0007C79.6888 50.0007 80.2998 47.9453 80.2998 46.2284C80.2998 44.3335 79.5243 41.9216 77.3674 41.9216Z" fill="#1D1D1B"/>
<path d="M85.2918 43.9538C85.2918 43.0807 85.2918 42.9698 84.6749 42.5728L84.4721 42.4354C84.3752 42.3477 84.3752 42.0996 84.4926 42.0324C85.0185 41.8514 86.3114 41.2763 86.7698 40.9404C86.8579 40.9404 86.9754 40.9813 87.0224 41.0952C86.9754 41.6091 86.9754 41.9419 86.9754 42.1464C86.9754 42.2778 87.0666 42.3917 87.2252 42.3917C88.1801 41.8107 89.2525 41.2529 90.4133 41.2529C92.3026 41.2529 93.0752 42.5231 93.0752 44.0181V47.8576C93.0752 49.4635 93.1223 49.6854 93.945 49.7993L94.4416 49.8634C94.6031 49.9745 94.556 50.3541 94.3974 50.4212C93.7158 50.3716 93.0547 50.3541 92.2614 50.3541C91.468 50.3541 90.757 50.3744 90.1429 50.4212C89.9784 50.3541 89.9342 49.9745 90.093 49.8634L90.5277 49.7993C91.3682 49.6648 91.3916 49.4635 91.3916 47.8576V44.5289C91.3916 43.2589 90.8009 42.3215 89.2525 42.3215C88.3888 42.3215 87.6365 42.6808 87.3162 43.0982C87.0253 43.475 86.9785 43.7903 86.9785 44.4384V47.8576C86.9785 49.4635 87.0253 49.6648 87.8421 49.7993L88.2506 49.8634C88.4151 49.9745 88.3683 50.3541 88.2066 50.4212C87.5954 50.3716 86.9343 50.3541 86.1351 50.3541C85.336 50.3541 84.6337 50.3744 83.996 50.4212C83.8403 50.3541 83.7932 49.9745 83.9521 49.8634L84.4309 49.7993C85.2743 49.6854 85.2977 49.4635 85.2977 47.8576V43.9508L85.2918 43.9538Z" fill="#1D1D1B"/>
<path d="M105.164 42.0559C105.413 42.1698 105.369 42.9261 105.023 42.9727H103.383C103.433 43.3495 103.433 43.7291 103.433 44.1115C103.433 45.6502 102.499 47.6591 99.6072 47.6591C99.196 47.6591 98.8816 47.6123 98.6024 47.592C98.3292 47.7468 97.6033 48.1729 97.6033 48.8154C97.6033 49.3292 98.1264 49.7556 99.196 49.7556C99.9717 49.7556 100.906 49.6885 101.905 49.6885C103.183 49.6885 105.093 49.9133 105.093 52.1441C105.093 54.5732 102.387 56.3632 99.4252 56.3632C96.622 56.3632 95.6465 54.8887 95.6465 53.7733C95.6465 53.4171 95.7406 53.125 95.8992 52.947C96.2842 52.5499 96.9247 51.9659 97.4506 51.452C97.6534 51.2504 97.8354 51.049 97.6298 50.9176C96.7453 50.6928 95.9698 49.9336 95.9698 49.1541C95.9698 49.0402 96.0608 48.9496 96.3107 48.7745C96.7014 48.5263 97.1304 48.1495 97.5182 47.7468C97.6298 47.6123 97.7416 47.4343 97.7416 47.3235C96.9718 46.9205 96.0403 46.0504 96.0403 44.6225C96.0403 42.7042 97.721 41.2529 99.7455 41.2529C100.612 41.2529 101.411 41.4749 101.931 41.6968C102.66 42.0093 102.822 42.053 103.327 42.053H105.172L105.164 42.0559ZM100.404 51.0724C99.6779 51.0724 98.7641 51.1192 98.4438 51.3178C97.903 51.6506 97.3537 52.3455 97.3537 53.1921C97.3537 54.3981 98.332 55.4026 100.404 55.4026C102.475 55.4026 103.774 54.2872 103.774 53.0142C103.774 51.6534 102.816 51.0724 101.176 51.0724H100.404ZM101.814 44.6868C101.814 43.1713 101.176 41.8954 99.7866 41.8954C98.6934 41.8954 97.8766 42.8793 97.8766 44.3947C97.8766 45.9102 98.8551 47.0079 99.9452 47.0079C101.173 47.0079 101.814 46.0473 101.814 44.6868Z" fill="#1D1D1B"/>
<path d="M107.391 43.9538C107.391 43.0807 107.391 42.9698 106.777 42.5728L106.574 42.4354C106.48 42.3477 106.48 42.0996 106.597 42.0324C107.12 41.8514 108.328 41.2763 108.895 40.9404C109.01 40.961 109.077 41.0047 109.077 41.0952V42.3917C109.077 42.5026 109.101 42.5728 109.148 42.5931C109.941 41.945 110.808 41.2529 111.651 41.2529C112.221 41.2529 112.677 41.6091 112.677 42.1464C112.677 42.8822 112.06 43.1712 111.698 43.1712C111.472 43.1712 111.354 43.1041 111.196 43.0164C110.855 42.7916 110.517 42.6602 110.194 42.6602C109.833 42.6602 109.559 42.8588 109.374 43.1041C109.148 43.4166 109.08 44.0678 109.08 44.8239V47.8604C109.08 49.4663 109.127 49.735 109.991 49.8022L110.811 49.8665C110.973 49.9773 110.925 50.3569 110.767 50.424C109.697 50.3744 109.039 50.3569 108.243 50.3569C107.447 50.3569 106.739 50.3775 106.148 50.424C105.986 50.3569 105.942 49.9773 106.101 49.8665L106.536 49.8022C107.373 49.6679 107.397 49.4663 107.397 47.8604V43.9538H107.391Z" fill="#1D1D1B"/>
<path d="M115.45 44.643C114.863 44.643 114.839 44.6897 114.839 45.2473C114.839 47.5044 116.176 49.4227 118.618 49.4227C119.367 49.4227 120.008 49.1979 120.713 48.3307C120.936 48.2636 121.095 48.395 121.121 48.5935C120.369 50.1148 118.729 50.6724 117.545 50.6724C116.064 50.6724 114.904 50.0505 114.246 49.2007C113.561 48.3307 113.285 47.2796 113.285 46.2984C113.285 43.551 115.13 41.2559 117.863 41.2559C119.82 41.2559 121.092 42.5757 121.092 43.9102C121.092 44.2225 121.051 44.4007 121.001 44.4912C120.933 44.6226 120.616 44.643 119.658 44.643H115.444H115.45ZM116.864 43.9773C118.55 43.9773 119.05 43.8868 119.235 43.7523C119.302 43.7058 119.37 43.6181 119.37 43.3262C119.37 42.7043 118.941 41.9217 117.619 41.9217C116.297 41.9217 115.112 43.1246 115.089 43.8663C115.089 43.91 115.089 43.9773 115.251 43.9773H116.864Z" fill="#1D1D1B"/>
<path d="M127.741 41.656C127.947 42.1465 128.106 42.8589 128.106 43.4633C128.017 43.6181 127.674 43.6649 127.559 43.5306C127.171 42.5495 126.493 41.8983 125.555 41.8983C124.671 41.8983 124.101 42.4589 124.101 43.2619C124.101 44.1728 125.059 44.6635 125.852 45.1131C127.057 45.7846 128.176 46.541 128.176 48.1262C128.176 49.8257 126.584 50.6695 124.897 50.6695C123.828 50.6695 123.031 50.4476 122.464 50.0008C122.282 49.5804 122.144 48.4827 122.188 47.7438C122.303 47.6095 122.599 47.589 122.711 47.7235C123.099 48.9526 123.824 50.0242 125.126 50.0242C125.949 50.0242 126.651 49.5541 126.651 48.5935C126.651 47.5658 125.743 47.0111 124.897 46.5438C123.578 45.808 122.646 45.0226 122.646 43.7991C122.646 42.1699 124.015 41.2559 125.743 41.2559C126.698 41.2559 127.538 41.4778 127.741 41.6589V41.656Z" fill="#1D1D1B"/>
<path d="M139.13 45.8722C139.13 48.6606 137.167 50.6694 134.326 50.6694C131.708 50.6694 129.657 48.8622 129.657 46.0707C129.657 43.2793 131.819 41.2529 134.508 41.2529C137.055 41.2529 139.13 43.1247 139.13 45.8722ZM134.235 41.9216C132.73 41.9216 131.613 43.3261 131.613 45.7845C131.613 47.8108 132.548 50.0007 134.552 50.0007C136.556 50.0007 137.167 47.9453 137.167 46.2284C137.167 44.3335 136.4 41.9216 134.235 41.9216Z" fill="#1D1D1B"/>
</svg>
