<svg width="280" height="150" viewBox="0 0 280 150" fill="none" xmlns="http://www.w3.org/2000/svg">
<g clip-path="url(#clip0_328_4061)">
<path d="M134.95 0.0205078H135.496L136.588 1.93082L137.543 3.43179V1.38502L137.133 0.0205078H138.225L139.044 1.11212L139.317 3.02243L139.453 3.15889L139.999 0.29341L140.135 0.0205078H140.954L141.363 2.20373L141.5 3.02243L142.046 1.79437L142.319 0.156959L142.455 0.0205078H143.274L143.683 0.975666V1.93082L143.41 3.29534L144.911 1.11212L145.593 0.0205078H146.276L145.73 2.47663L145.457 4.11404L146.685 3.02243L147.504 1.38502L148.459 0.566313L149.005 0.29341L148.868 0.839215L148.322 2.06728L148.05 3.56824L147.231 4.65985L146.958 5.0692L149.141 3.70469L151.188 2.34018H151.461L151.188 2.88598L149.278 5.47856L148.459 6.70662L150.233 6.02436L151.461 4.93275L152.552 4.5234H153.371L152.007 5.88791L151.324 6.97952L149.96 7.93468L149.551 8.20758L151.188 7.93468L154.872 7.11597V7.38887L152.143 9.02629L150.779 9.98145L152.28 10.1179L153.781 9.57209H154.736L155.691 9.98145V10.1179L154.19 10.3908L152.825 11.4824L151.324 11.7553H150.779V12.0282L152.552 12.3011L155.964 12.9834L155.554 13.2563L151.052 14.075L150.915 14.2114L152.143 14.6208L153.508 14.8937L154.326 15.303L154.872 15.8488L154.736 16.1217L154.19 15.8488H152.28L151.052 15.9853L154.326 17.8956L154.872 18.5779L155.691 19.2601L156.237 20.3517L156.373 20.7611L156.919 19.8059L157.601 20.4882L158.693 22.2621L159.102 23.2172L159.511 22.6714L159.921 22.2621L161.422 24.7182L161.831 25.8098L161.968 27.3107L162.923 26.7649H163.332L164.287 28.9482L164.424 30.1762L165.106 29.7669H165.379L166.061 32.4959V33.8604L165.788 34.5427L166.743 33.8604H167.016L167.971 36.5894V36.8623H168.517L168.927 39.182V41.0923L168.654 41.7746L169.336 41.3652H169.745L170.018 43.412V45.1859L170.973 44.913L171.11 45.3223L170.564 48.5971L170.155 49.2794L170.837 49.4158L170.7 52.6907L170.155 53.7823L171.11 53.3729L171.246 53.7823L170.973 55.9655L170.428 57.33L170.018 57.8758L170.837 58.0123L170.564 58.9674V60.1955L170.7 61.2871L170.291 61.9694H170.837L170.428 63.1974L169.609 65.1077L168.927 65.79L169.472 65.9264L169.063 67.4274L168.381 69.2013L168.108 69.6106H168.654L168.381 70.2929L167.289 72.0667L166.334 72.8854L166.061 73.1583L166.607 73.2948L166.334 73.9771L164.97 76.1603L164.697 76.8425L164.014 77.5248L163.332 78.8893L162.786 79.2987L163.196 79.4351V79.8445L162.104 80.7996L160.876 82.0277H160.603L160.876 82.7099L159.648 83.5286L158.147 84.7567L157.055 85.3025L155.964 85.5754H155.145L153.781 86.5306L150.779 88.168L148.459 89.2596L144.638 90.6241L144.229 90.7606L148.05 91.4428L149.96 91.7157L149.823 92.398L148.732 93.2167L147.64 93.0802L143.001 91.9886L144.092 92.9438L146.003 94.0354L147.367 94.5812L148.186 94.7176L148.05 95.3999L147.64 95.9457L146.685 95.8092L145.048 95.127L143.274 93.7625L142.319 92.8073L142.046 92.6709L142.864 94.0354L144.092 95.2634L145.457 96.0822L146.822 96.4915L146.685 96.9009L146.003 97.1738H144.911L143.683 96.628L142.728 95.8092L141.773 94.3083L141.5 93.8989L140.818 94.1718L139.863 94.0354L139.59 93.8989L139.317 94.7176L138.362 95.9457L137.406 96.7644L136.042 97.1738L134.814 97.0373L133.995 96.628V96.3551L136.178 95.8092L137.543 94.9905L138.498 93.8989L138.771 93.3531V92.8073L137.543 94.0354L136.042 94.8541L133.859 95.6728L132.903 95.8092L132.085 94.8541L132.221 94.4447L135.769 93.626L137.406 92.8073L138.225 91.8522L132.767 93.2167H131.948L131.13 92.6709L130.72 92.1251V91.8522L131.948 91.5793L136.042 90.897L136.315 90.7606L133.176 89.8054L129.765 88.3044L127.855 87.2128L125.672 85.5754L123.625 85.3025L121.987 84.4838L120.35 82.9828L119.258 82.0277L119.395 81.6183L118.713 81.3454L117.894 79.708L117.348 79.1622V78.8893H117.894L115.165 76.1603V75.7509L115.847 75.6145L114.483 73.8406L113.8 72.8854L113.937 72.6125H114.346L113.255 71.248L112.299 69.6106L112.026 69.0648L112.299 68.9284L111.89 67.7003L111.071 65.9264V65.6535L111.754 65.5171L110.525 63.3339L109.843 61.9694V61.56L110.389 61.4235L109.707 58.2852V57.8758H110.935L110.116 56.7842L109.57 55.2832L109.025 53.6458V53.2365L110.389 53.5094L109.98 52.2813L109.57 49.6887V49.1429L110.525 49.2794L109.98 48.3242L109.57 45.5952V45.3223L110.798 45.4588L110.525 44.64L110.662 43.412L110.935 41.3652L111.617 41.5017V39.7278L111.89 37.2717L112.572 37.4081L112.845 35.9072L113.391 34.1333L113.937 34.2698L114.346 34.5427L114.21 33.8604V32.7688L115.165 30.0398L115.984 30.3127L116.12 29.2211L116.939 27.5837L117.348 27.0378L117.894 27.1743L118.44 27.8566L118.576 25.9462L118.985 24.9911L120.214 23.0808L120.35 22.6714L120.759 22.8079L120.896 23.3537H121.169L121.305 22.6714L122.124 21.4433L123.352 19.9424L123.761 20.3517L123.898 20.6246L124.716 19.3966L126.49 17.6227L126.9 17.8956L127.173 18.305L128.264 17.3498L130.857 15.9853L129.492 15.8488L127.991 16.2582H127.036L126.081 15.8488V15.5759L127.445 15.4395L128.674 14.7572L129.492 14.3479H130.584V14.075L128.81 13.8021L125.672 13.2563L125.262 12.9834L126.9 12.574L130.447 11.8918L129.083 11.346L126.49 11.0731L125.535 10.2543L125.672 9.98145L126.354 10.2543L127.718 10.1179L128.401 9.84499L130.038 9.98145L130.993 10.1179L127.309 7.93468L126.354 7.38887L126.49 7.11597L131.539 8.34403L130.72 7.38887L129.356 6.57017L128.537 6.16081L127.991 5.47856L127.718 4.65985L128.81 5.3421L130.993 5.75146L132.358 6.70662L132.767 6.84307L130.993 4.38695L129.629 2.47663H130.038L132.494 4.25049L133.995 5.3421V4.93275L133.176 3.29534L132.221 2.20373L131.948 1.65792V0.429861L132.358 0.975666L133.176 1.93082L134.541 2.61308L135.769 4.5234L135.087 1.11212L134.95 0.0205078ZM140.408 2.06728L139.863 5.0692L139.726 5.20565L138.498 2.34018L138.362 2.74953L138.498 5.61501L137.952 5.0692L136.451 2.74953L136.315 3.29534L136.861 6.02436L136.997 6.29726L135.905 5.3421L134.677 3.97759L134.541 4.25049L135.496 6.57017V6.97952L133.449 5.61501L132.903 5.20565H132.631L132.903 5.75146L134.404 7.93468H133.995L131.539 6.57017L131.266 6.70662L132.358 7.79823L132.494 8.07113H132.767L133.04 8.61693L133.586 9.29919L130.857 8.61693L130.447 8.75338L133.04 10.5273H129.492L129.765 10.8002L132.631 11.8918L131.539 12.3011L129.765 12.7105L129.902 12.9834L132.221 13.5292H132.767L132.221 14.3479L131.403 14.7572V15.0301H133.04L134.268 14.4843L134.541 14.3479V14.8937L135.769 14.4843L137.952 13.9385H138.498L138.771 14.4843L139.59 14.075L142.455 13.5292V14.2114H145.048L146.276 13.9385L146.412 14.4843H147.913L149.414 14.8937H150.506L149.823 14.2114L149.278 13.8021H149.005V13.5292L150.915 13.2563L151.87 12.9834V12.7105L148.868 12.0282L148.732 11.8918L151.461 10.9366V10.8002L148.05 10.6637L150.369 9.16274L150.779 8.75338L149.005 9.02629L147.367 9.29919L148.186 8.34403L149.278 7.38887L149.823 6.84307L149.005 7.11597L146.549 8.20758L147.504 6.70662L148.459 5.3421L148.322 5.0692L146.822 6.16081L145.321 7.11597L146.276 4.93275L146.685 4.25049L146.549 3.84114L146.276 4.38695H146.003L145.048 5.47856L144.502 6.02436V6.29726L144.229 6.16081L144.911 3.15889L144.775 2.61308L143.274 4.7963L142.728 5.61501V2.20373L142.455 2.47663L141.363 5.20565H141.227L140.681 2.06728H140.408ZM140.818 14.7572L139.317 15.303L138.225 16.5311L138.362 16.9405L138.771 16.6676L138.089 17.3498L138.362 18.0321L139.044 18.5779L139.317 18.7143H140.272L140.954 18.5779L140.272 17.8956L139.59 17.3498L139.317 17.0769L140.681 15.8488L141.363 14.8937L140.818 14.7572ZM137.27 15.1666L135.496 15.8488L134.814 16.5311L134.541 17.0769L134.677 17.4863L135.223 17.0769L134.541 17.7592L134.404 18.1685L135.087 18.8508L135.633 19.1237L136.861 18.9872L137.27 18.8508L137.133 18.4414L135.769 17.6227H135.496V17.3498L136.042 17.0769L137.133 16.1217L137.679 15.1666H137.27ZM144.092 15.0301L142.864 15.1666L141.773 15.9853L141.636 16.3947H142.182L141.5 16.9405L141.636 17.6227L142.455 18.4414L143.683 18.7143L144.229 18.5779L142.728 16.9405L143.137 16.6676L144.638 15.7124L145.048 15.303V15.0301H144.092ZM146.822 15.303L145.593 16.2582L145.184 16.6676L145.321 16.804L145.048 16.9405V17.2134L145.321 17.3498L147.231 17.2134L149.005 16.3947L149.551 16.1217V15.8488L147.367 15.303H146.822ZM133.586 15.8488L131.675 16.6676L131.13 17.3498L130.72 18.7143H130.993L131.13 18.5779L130.72 19.2601L130.993 19.8059L131.539 20.0788H132.903L133.586 19.8059V19.533L132.358 18.8508L131.812 18.5779L132.903 17.6227L133.722 16.5311L133.859 15.8488H133.586ZM150.096 16.9405L150.642 18.4414L151.461 19.6695L150.096 19.8059L149.141 20.0788V20.3517L150.233 20.8975L151.324 21.034L152.28 20.6246L152.143 19.3966L152.007 18.9872H152.28L152.416 19.3966L152.552 18.8508L152.143 18.0321L151.052 17.3498L150.369 16.9405H150.096ZM129.219 17.7592L127.855 18.7143L127.309 19.3966L127.173 20.7611L127.718 20.2153L127.445 20.8975L127.582 21.4433L128.401 21.8527H129.356L130.447 21.3069V21.034L128.401 20.4882L129.356 18.5779L129.492 17.7592H129.219ZM148.732 17.6227L147.231 18.1685L147.094 18.4414L147.777 18.5779H146.549L145.457 18.4414L146.139 19.1237L147.094 19.533H148.05L149.687 18.8508L149.278 18.0321L148.732 17.6227ZM153.644 18.7143L153.917 20.6246L154.463 21.7162H153.098L152.143 21.8527L152.28 22.2621L153.371 22.9443H154.736L155.145 22.6714V21.5798L155.418 22.1256L155.554 21.9892V20.8975L155.145 19.9424L153.917 18.7143H153.644ZM126.354 19.3966L124.989 20.7611L124.716 21.4433V22.535L124.989 22.8079L125.126 22.1256H125.399L125.126 22.8079L125.262 23.4901L125.672 23.6266H126.763L127.991 22.8079L128.128 22.535L126.763 22.2621L125.808 22.3985L126.354 21.034L126.627 19.3966H126.354ZM139.999 19.8059L138.498 19.9424V20.0788L143.001 20.2153L142.455 19.9424L139.999 19.8059ZM136.178 20.6246L134.404 20.8975L132.221 21.7162L129.629 23.0808L128.401 23.8995V24.0359H152.28L151.597 23.2172L149.823 22.1256L147.504 21.034L146.685 20.7611L143.956 20.6246H136.178ZM122.943 21.7162L121.987 23.2172L121.851 23.6266V24.9911H122.124V24.5817H122.397L122.124 25.1275L122.26 25.6733L122.67 25.9462H123.761L124.58 25.4004L125.126 24.9911V24.7182L123.079 24.5817L122.806 24.7182L123.215 23.763L123.352 23.0808V22.1256L123.215 21.7162H122.943ZM157.055 21.7162V23.2172L157.465 24.5817H155.145L155.418 25.1275L156.646 25.9462L157.874 25.8098L158.147 25.264V24.8546L158.42 25.1275L158.556 24.7182V23.4901L158.011 22.535L157.328 21.7162H157.055ZM159.784 24.1724L159.648 24.8546V25.9462L159.784 27.1743L157.601 26.9014L158.011 27.5837L158.966 28.4024L159.239 28.5388H160.057L160.467 28.1295V27.4472L160.74 27.993L161.012 27.0378L160.876 25.6733L160.057 24.3088L159.784 24.1724ZM120.486 24.3088L119.668 25.6733L119.395 26.6285L119.531 27.993L119.804 27.8566L120.077 28.6753L120.896 28.8117L121.987 28.2659L122.67 27.5837V27.3107H121.032L120.486 27.4472L120.759 26.492V24.8546L120.486 24.3088ZM127.582 24.5817L126.081 25.8098L124.58 27.3107L124.171 27.993H136.315L138.498 26.9014L140.135 26.6285L141.909 26.7649L143.547 27.3107L145.048 28.1295H156.782L155.964 27.0378L154.599 25.6733L153.371 24.7182L152.416 24.5817H127.582ZM139.59 28.1295L137.816 28.6753L136.724 29.494L136.042 30.5856L136.178 31.2678L137.27 31.8136H140.954L138.498 33.1782L136.997 34.2698L135.769 35.4978L134.404 37.5446L133.586 39.4549L133.313 40.683L134.95 40.2736L135.769 40.0007H137.406L138.907 40.5465L140.408 41.5017L141.5 42.4568L143.001 42.7297L144.638 42.3204L147.504 40.9559L148.05 40.683L147.777 39.5914L146.549 39.8643L144.229 40.5465L143.001 40.4101L141.091 39.3185L143.274 39.7278L144.365 39.5914L147.094 38.4997V38.0904H146.822L146.549 36.9988L145.593 37.1352L143.274 37.681L141.227 37.5446V37.2717H142.182L144.092 36.5894L146.139 35.7707V34.5427L145.866 34.4062L143.82 34.5427L144.365 33.9969L146.003 33.1782L145.866 31.9501L145.184 30.5856L144.229 29.494L142.864 28.6753L141.091 28.1295H139.59ZM117.757 28.4024L116.802 30.3127V31.2678L117.212 31.9501L117.621 31.6772L117.894 32.3594L119.258 31.9501L120.077 31.2678L120.623 30.3127L118.985 30.722L118.303 30.9949V29.6304L118.03 28.4024H117.757ZM123.488 28.6753L121.851 30.9949L121.305 31.9501H135.223L134.95 31.2678V30.0398L135.496 28.9482V28.6753H123.488ZM145.73 28.6753L146.549 29.9033L147.231 31.9501H159.648L158.693 30.4491L157.601 28.9482L157.328 28.6753H145.73ZM162.513 29.494L162.241 30.8585L161.558 30.5856L159.784 30.0398L160.057 30.722L160.74 31.5407L161.968 32.0865H162.65L162.786 31.2678L163.059 31.8136L163.469 31.4043L163.741 30.4491L163.469 29.9033L162.923 29.494H162.513ZM164.424 31.1314L164.014 31.6772L163.741 32.4959V33.8604L161.422 32.6323L161.285 32.9052L161.968 34.1333L162.786 34.8156L163.605 35.0885L163.878 34.952L164.151 34.2698V34.8156L164.697 34.5427L165.106 33.8604V32.7688L164.56 31.1314H164.424ZM115.847 31.2678L115.301 33.1782L115.438 34.1333L115.984 34.952H116.256V34.2698L116.529 35.0885H117.348L118.44 34.2698L119.122 33.1782V32.9052L118.44 33.0417L116.802 33.9969L116.666 32.7688L116.12 31.2678H115.847ZM121.305 32.4959L120.759 32.7688L119.395 35.6343V35.9072H133.722L135.496 33.724L136.315 32.6323L133.313 32.4959H121.305ZM150.369 32.4959L147.504 32.6323L147.64 34.2698L147.913 35.9072H161.558L161.149 34.6791L160.057 32.6323L159.102 32.4959H150.369ZM166.47 35.2249L165.925 36.3165L165.652 37.8175L163.741 36.9988L163.332 37.1352L164.014 38.3633L164.697 38.9091L165.379 39.182L165.925 39.0456L166.198 38.3633V38.9091L166.743 38.6362L167.153 37.9539V36.8623L166.607 35.2249H166.47ZM114.21 35.3614L113.527 37.2717L113.664 38.0904L114.21 38.9091H114.483L114.346 38.2268H114.619L114.755 39.182H115.574L116.666 38.4997L117.348 37.2717L117.212 36.9988L115.165 37.9539L114.619 35.9072L114.346 35.3614H114.21ZM118.985 36.5894L118.167 38.6362L117.894 39.8643H131.812L132.221 38.6362L133.176 36.8623V36.5894H118.985ZM148.186 36.5894L148.595 37.8175L149.278 39.182L149.823 39.8643H163.059L162.65 38.2268L161.968 36.5894H148.186ZM167.699 38.3633L166.88 39.8643L166.607 40.8194L166.198 40.683L164.697 39.7278H164.424L164.697 40.8194L165.242 41.6381L166.061 42.1839H166.607L166.88 41.2288H167.153L167.016 42.0475H167.289L168.108 40.8194V39.182L167.835 38.3633H167.699ZM112.845 38.4997L112.572 40.4101L112.982 41.3652L113.527 41.911L113.8 41.7746V41.3652L114.21 42.3204L114.755 42.1839L115.847 41.2288L116.256 40.2736V39.7278L115.711 40.0007L114.483 40.8194V41.0923H114.21L113.937 40.0007L113.255 38.7726L112.845 38.4997ZM117.757 40.4101L117.348 41.2288L116.802 43.412V43.8213L132.903 43.9578L132.631 43.412L132.085 42.1839L131.812 40.4101H117.757ZM150.369 40.4101L150.096 42.0475L149.414 43.8213H164.151L163.878 42.3204L163.332 40.5465L163.196 40.4101H150.369ZM135.769 41.3652L134.132 41.911L133.449 42.0475L133.722 42.5933L135.223 43.412L135.769 43.5484H138.907L138.771 43.0026L137.816 41.911L136.861 41.3652H135.769ZM147.913 42.1839L145.184 43.412V43.5484H147.231L148.05 43.0026L148.322 42.5933V42.1839H147.913ZM111.754 42.3204L111.481 43.412V44.5036L111.89 45.3223L112.572 46.141L112.709 45.5952V45.4588L113.118 46.141L113.8 46.0046L114.755 45.1859L115.165 43.9578L115.028 43.6849L113.255 44.7765L112.299 42.8662L111.754 42.3204ZM168.927 42.4568L168.244 43.412L167.835 44.5036V45.1859L165.788 43.8213H165.652L165.788 44.913L166.198 45.5952L167.016 46.2775L167.562 46.0046L168.108 45.1859L168.381 45.0494L168.244 46.0046L168.79 45.7317L169.336 44.7765V43.8213L169.063 42.4568H168.927ZM116.666 44.5036L116.393 45.4588L116.12 47.7784H139.18L139.317 47.642V44.7765L138.498 44.64L135.087 44.5036H116.666ZM148.868 44.5036L147.367 44.7765H141.909V47.7784H164.833L164.697 46.0046L164.424 44.64L164.287 44.5036H148.868ZM110.935 46.141L111.071 47.7784L111.617 48.7336L112.299 49.2794L112.572 49.1429V48.7336L112.982 49.4158L113.8 49.2794L114.483 48.4607L114.619 48.0513V46.8233L113.527 47.642L112.709 48.3242L112.572 47.7784L111.754 46.6868L111.208 46.141H110.935ZM169.472 46.2775L168.79 46.8233L168.108 47.9149L167.971 48.3242L167.699 48.4607L167.426 47.9149L166.198 46.8233L166.061 47.3691L166.334 48.7336L167.153 49.5523H167.835L168.244 48.87V49.4158L168.927 49.1429L169.472 48.5971L169.745 47.7784L169.882 46.2775H169.472ZM115.984 48.4607L115.847 49.1429V51.4626H139.18L139.317 51.0533V48.4607H115.984ZM141.909 48.4607V51.4626H165.242L165.106 49.0065L164.97 48.4607H141.909ZM169.882 50.2346L169.063 51.1897L168.108 52.8271L166.607 51.3262H166.47V52.8271L167.016 53.6458L167.426 54.0552H167.971L168.517 53.2365L168.79 53.1L168.517 53.9187L169.063 53.6458L169.609 52.9636L170.018 51.872L170.155 50.2346H169.882ZM110.935 50.5075L111.071 52.1449L111.617 53.1L112.436 53.7823L112.709 53.6458L112.436 53.1H112.709L112.982 53.7823L113.527 53.9187L114.346 53.2365L114.619 52.4178V51.3262L114.073 51.5991L112.982 52.6907L112.572 52.1449L111.344 50.6439L110.935 50.5075ZM118.03 52.6907L115.711 52.8271L115.574 53.9187L115.847 58.0123L116.393 61.4235L116.802 63.061L117.212 63.1974L122.67 62.9245L126.49 62.5152L129.219 61.9694L131.403 61.1506L132.903 60.4684L134.268 60.059L139.317 59.9226V56.2384L139.18 52.6907H118.03ZM142.046 52.6907L141.909 52.8271L141.773 56.7842V58.9674L144.365 59.3768L146.549 60.1955L149.141 61.4235L150.369 61.8329L152.962 62.1058L156.646 63.061L159.648 63.8797L162.104 64.289H163.469L164.151 61.6964L164.697 58.6945L165.242 53.3729L165.106 52.6907H142.046ZM169.882 54.4645L168.654 55.6926L168.108 56.5113V56.9207L167.699 56.5113L166.607 55.1468L166.334 55.6926V57.0571L166.88 57.8758L167.562 58.0123L168.244 57.1936L168.108 57.8758L168.927 57.6029L169.745 56.3749L170.155 54.8739V54.4645H169.882ZM110.662 54.601L110.935 56.2384L111.208 56.7842L112.436 57.6029H112.845L112.982 57.1936L113.255 57.7394L113.8 57.6029L114.346 56.9207L114.483 56.6478L114.346 54.8739L113.664 55.5561L112.845 56.5113L112.026 55.4197L111.071 54.601H110.662ZM114.619 58.5581L113.527 60.059L113.255 60.4684L113.391 61.56H113.937L114.619 60.4684L114.755 60.059V58.5581H114.619ZM111.208 58.9674L111.481 60.7413L112.026 61.4235L112.982 61.9694L113.255 61.8329L113.118 60.6048L112.299 59.5132L111.481 58.9674H111.208ZM166.198 58.831L166.061 60.1955L166.47 61.2871L167.153 62.1058H167.562L167.971 61.56L167.835 62.2423L168.654 61.9694L169.336 61.2871L169.609 59.7861V58.9674L169.063 59.2403L167.971 60.4684L167.699 61.0142L166.607 59.2403L166.198 58.831ZM141.773 60.3319L140.954 60.7413L139.317 62.3787L138.225 63.1974L138.498 63.7432L139.726 63.8797L141.091 63.4703L143.001 62.5152L143.683 62.7881L144.775 63.7432L147.777 65.5171L149.551 67.018L150.233 66.7451L151.052 65.3806L151.188 64.6984H151.461V66.3358L151.188 67.9732L153.371 69.2013L155.418 70.02L157.465 70.5658L158.42 70.7022H160.876L161.422 69.8835L162.923 66.3358V65.79L160.467 65.3806L153.371 63.6068L149.551 62.9245L146.685 61.6964L143.956 60.6048L142.864 60.3319H141.773ZM136.861 61.0142L134.404 61.4235L132.358 62.1058L130.584 62.9245L127.582 63.6068L123.625 64.1526L117.485 64.6984L117.621 65.5171L118.985 69.0648L119.668 69.7471L120.077 69.8835H122.533L125.399 69.2013L128.264 68.3826L129.765 68.1097L130.857 67.1545L131.403 66.8816H132.903L133.586 67.2909H135.633L136.451 67.7003L136.861 68.2461H137.952L138.634 68.519L138.907 69.2013V69.4742L140.135 69.7471L140.545 70.1564L140.681 70.4293L140.818 71.6574H141.5L141.636 71.1116L140.681 69.6106L140.545 68.6555L140.818 68.2461L141.5 69.6106L142.182 70.4293L143.137 70.9751L143.82 70.8387L143.683 70.1564L143.001 69.3377L142.319 68.7919L141.773 67.9732L141.636 66.8816L142.046 66.6087V67.2909L143.547 68.6555L145.321 70.02L146.003 69.7471L145.866 69.0648L144.638 67.7003L143.274 66.4722L143.001 65.1077L143.274 65.2442L143.683 65.9264L145.73 67.2909L146.412 67.9732L147.231 68.9284L147.913 68.7919L148.186 68.519V67.8368L147.094 66.6087L145.048 65.3806L143.137 64.1526L142.592 64.0161L141.227 64.5619L140.545 64.6984H138.634L137.27 64.0161L137.133 63.3339L137.816 61.9694L138.089 61.56V61.1506L136.861 61.0142ZM165.788 61.9694L165.515 62.7881V63.7432L166.198 65.1077H166.743L167.153 64.9713L166.88 65.3806L167.835 65.2442L168.654 64.5619L169.336 62.7881V62.5152L168.517 62.7881L167.426 63.6068L167.016 64.1526L165.925 61.9694H165.788ZM114.755 61.56L113.8 63.7432L112.709 62.7881L111.617 62.2423H111.208L111.481 63.061L112.163 64.1526L112.845 64.6984L113.527 64.9713H113.937V64.289L114.21 64.8348L114.755 64.5619L115.301 63.1974L115.165 61.9694L115.028 61.56H114.755ZM116.256 65.6535L115.301 67.5639L115.438 68.1097L115.847 68.6555L116.256 68.519L116.666 67.7003V66.3358L116.393 65.6535H116.256ZM164.424 65.9264L164.151 67.4274L164.56 68.6555L164.97 69.2013L165.652 68.9284L166.061 68.6555L165.652 69.3377L166.47 69.2013L167.289 68.6555L167.835 67.4274L168.108 66.4722L166.743 67.1545L165.652 68.1097L165.106 66.7451L164.56 65.9264H164.424ZM112.572 66.3358L113.527 68.2461L114.21 68.7919L115.574 69.0648L115.165 67.7003L114.21 66.8816L112.982 66.3358H112.572ZM131.675 67.8368L130.993 68.519L131.13 69.0648L131.812 68.9284L132.221 68.2461V67.8368H131.675ZM134.268 68.3826L133.176 69.2013L132.767 70.02V70.4293L133.449 70.5658L134.404 69.8835L134.95 69.0648L134.814 68.3826H134.268ZM117.212 68.519L116.666 70.2929L116.529 70.7022L114.892 69.8835L113.8 69.7471L114.073 70.4293L115.028 71.5209L115.984 71.9303H116.939L116.256 71.248L117.075 71.5209L117.348 71.6574L117.757 71.248L117.894 70.9751V69.6106L117.348 68.519H117.212ZM163.469 68.9284L162.923 70.02V71.248L163.332 72.0667L164.151 71.9303H164.424L164.014 72.3396H165.242L165.925 71.9303L167.016 70.1564L166.47 70.02L165.242 70.5658L164.151 71.248L164.014 70.02L163.605 68.9284H163.469ZM136.997 69.2013L136.178 69.7471L134.95 70.9751L135.087 71.5209L136.042 71.3845L137.133 70.5658L137.679 70.02L137.406 69.3377L136.997 69.2013ZM149.414 69.2013L148.459 70.4293L147.777 70.8387L146.958 71.1116L146.549 71.5209L145.184 71.7938L144.365 72.4761H143.547L142.592 73.0219L141.773 73.2948L141.636 74.5229L141.5 79.9809L141.363 80.5267L139.863 80.6632L139.317 80.3903L139.044 79.8445L138.907 73.4313H137.543L136.315 73.0219L136.042 72.6125H134.268L133.586 72.2032L133.449 71.7938L132.221 71.6574L131.539 70.9751L131.403 70.4293L130.174 70.02L129.902 69.6106L128.401 69.8835L123.215 71.5209L121.032 72.4761L120.486 72.8854L121.714 74.7958L122.943 76.4332L124.171 77.9341L125.808 79.708L127.582 81.3454L129.629 82.8464L131.812 84.0744L134.404 85.1661L137.27 85.8483L140.818 85.9848L144.229 85.7119L147.094 84.7567L149.278 83.6651L151.052 82.5735L152.825 81.209L154.463 79.708L155.418 78.8893L156.373 77.7977L157.738 76.1603L159.375 73.8406L159.239 73.4313L156.373 72.2032L151.597 70.02L149.687 69.2013H149.414ZM138.634 70.7022L137.543 71.6574V72.2032L138.225 72.3396L139.317 71.6574L139.453 70.9751L139.18 70.7022H138.634ZM161.558 72.4761L161.012 73.9771L161.285 75.3416L161.695 75.7509L162.377 75.478H162.65L162.377 76.0238L163.741 75.7509L164.697 74.6593L165.242 73.7042V73.4313L164.014 73.8406L162.65 74.6593L162.513 74.7958L161.831 72.749L161.558 72.4761ZM118.985 72.0667L118.303 74.25L117.757 73.9771L116.256 73.2948L115.438 73.1583L115.711 73.8406L116.802 75.0687L117.757 75.478H118.303L118.167 74.9322L118.713 75.2051L119.258 75.0687L119.668 74.1135L119.531 72.8854L119.122 72.0667H118.985ZM120.35 74.7958L120.077 76.0238V77.1154L118.713 76.4332L117.075 76.1603L117.485 76.8425L118.44 77.7977L118.985 78.0706H120.214V77.7977H120.486L121.032 77.6612L121.305 77.2519V76.1603L120.759 75.0687L120.35 74.7958ZM159.921 75.3416L159.102 76.7061V77.6612L159.648 78.8893L161.695 78.6164L162.786 77.6612L163.469 76.8425L162.923 76.7061L161.149 77.2519L160.33 77.6612L160.467 76.8425L160.057 75.3416H159.921ZM157.874 78.6164L157.055 79.9809V81.0725L157.328 81.6183L158.556 81.4819L158.147 81.8912L158.556 82.0277L159.648 81.7548L160.603 81.0725L161.558 79.9809V79.8445L160.467 79.9809L158.693 80.6632L158.283 80.9361L158.42 80.2538L158.011 78.6164H157.874ZM122.397 78.207L121.851 80.2538L120.486 79.5716L118.985 79.1622L119.258 79.8445L119.668 80.6632L120.623 81.0725L122.124 81.209L121.987 80.9361L123.079 81.0725L123.352 80.5267V79.4351L122.67 78.207H122.397ZM124.716 80.6632L124.58 82.7099L122.67 82.1641H121.442L122.124 82.8464L123.352 83.8015L124.307 84.2109H125.672L125.399 83.6651L125.944 84.0744H126.217L125.944 81.8912L124.989 80.7996L124.716 80.6632ZM155.554 81.0725L154.872 81.6183L154.326 82.7099V84.0744L155.009 83.938L154.872 84.3474H156.237L157.465 83.938L158.966 82.7099L159.102 82.437L157.601 82.5735L155.827 83.1193V81.7548L155.691 81.0725H155.554ZM126.763 82.3006L127.036 84.0744L127.445 85.0296L128.537 86.1212L130.311 87.2128L132.494 88.3044L134.95 89.1231H135.223V86.8035L132.767 85.9848L130.584 84.8932L129.219 84.0744L127.036 82.437L126.763 82.3006ZM153.098 82.8464L151.324 84.0744L149.141 85.3025L146.958 86.2577L145.457 86.8035L145.593 87.4857V88.9867L146.276 88.8502L149.005 87.7586L151.188 86.667L152.552 85.7119L152.962 85.0296L153.371 82.8464H153.098ZM142.592 86.8035L142.864 87.3493L143.137 87.7586V89.2596L143.956 88.7138L144.365 88.168L144.229 87.3493L143.547 86.9399L142.592 86.8035ZM137.27 86.9399L136.588 87.3493L136.178 88.0315L136.724 88.8502L137.133 89.2596H137.406L137.543 87.8951L137.952 87.2128V86.9399H137.27ZM139.726 87.4857L138.907 88.0315L138.771 88.3044V89.1231L139.044 89.6689L140.545 89.5325L141.363 89.6689L141.773 88.9867L141.636 88.0315L141.091 87.6222L140.681 87.4857H139.726ZM140.135 90.6241L139.59 91.0335L139.726 92.398L140.135 93.0802L140.681 92.9438L140.954 92.5344L141.091 91.0335L140.681 90.6241H140.135Z" fill="#2B2B2C"/>
<path d="M266.899 114.366H269.628L271.401 116.686L272.766 118.596L276.587 123.781L276.723 114.366H279.452V128.284H276.723L275.086 126.101L273.312 123.645L271.401 121.052L269.764 118.869L269.628 128.284H267.035L266.899 128.148V114.366Z" fill="#2B2B2C"/>
<path d="M30.4286 114.366H33.1576L34.5221 116.277L38.3428 121.462L39.9802 123.645L40.1166 114.366H42.8456V128.284H40.2531L39.025 126.783L37.6605 124.873L33.8399 119.688L33.2941 118.869L33.1576 128.284H30.4286V114.366Z" fill="#2B2B2C"/>
<path d="M197.581 114.366H200.174L201.538 116.14L203.449 118.733L205.223 121.189L207.133 123.781L207.269 114.366H209.998V128.284H207.269L203.449 123.099L201.675 120.643L200.447 119.006H200.31V128.284H197.581V114.366Z" fill="#2B2B2C"/>
<path d="M62.7676 114.366H69.5901L71.5005 114.776L72.865 115.594L73.6837 116.686L73.9566 117.505V119.278L73.4108 120.37L72.3192 121.325L73.0014 122.007L73.5472 122.69L73.9566 123.918L74.093 126.647L74.6388 127.738V128.284H71.9098L71.364 127.466L71.2276 126.92L71.0911 124.054L70.6817 123.236L69.5901 122.69L65.4966 122.553V128.284H62.7676V114.366ZM65.4966 116.413V120.507H69.4537L70.6817 119.961L71.0911 119.551L71.2276 119.142V117.777L70.8182 117.095L70.4088 116.686L69.5901 116.413H65.4966Z" fill="#2B2B2C"/>
<path d="M127.582 114.366H134.132L136.315 114.912L137.679 115.731L138.634 116.549L139.453 117.914L139.862 119.142L139.999 120.234V122.417L139.726 124.191L139.044 125.555L137.816 126.92L136.315 127.738L135.087 128.148L134.404 128.284H127.582V114.366ZM130.311 116.413V126.374H133.586L135.36 125.828L136.451 124.873L136.997 123.918L137.27 122.553V120.097L136.997 118.869L136.178 117.505L134.95 116.686L134.132 116.413H130.311Z" fill="#2B2B2C"/>
<path d="M51.1692 114.229H54.5805L56.2179 114.775L57.446 115.594L58.2647 116.686L58.674 117.777V119.005H56.0815L55.5357 117.368L54.717 116.686L53.4889 116.276H52.1244L50.6234 116.822L49.6683 117.914L49.2589 119.005V123.645L49.6683 124.736L50.487 125.691L51.5786 126.237L52.1244 126.374H54.1712L55.3992 125.964L55.945 125.828L56.0815 123.099H52.5337L52.3973 122.553V121.189L52.5337 121.052H58.674L58.8105 121.189V126.237L57.9918 127.192L56.0815 128.148L55.1263 128.42L54.0347 128.557H51.8515L50.0776 128.148L48.5767 127.329L47.3486 126.101L46.5299 124.463L46.3934 123.918V118.732L46.9392 117.231L47.7579 116.14L48.986 115.048L50.6234 114.366L51.1692 114.229Z" fill="#2B2B2C"/>
<path d="M255.3 114.229H258.575L260.212 114.775L261.713 115.73L262.669 116.822L263.351 118.323L263.624 119.688V122.962L263.214 124.873L262.396 126.237L261.44 127.192L259.94 128.011L258.711 128.42L257.756 128.557H255.846L254.072 128.148L252.708 127.329L251.752 126.51L250.934 125.282L250.524 124.054L250.388 123.372V119.415L250.797 117.777L251.616 116.413L252.708 115.321L254.618 114.366L255.3 114.229ZM255.846 116.276L254.618 116.822L253.526 118.05L253.117 119.278V123.372L253.663 124.873L254.209 125.555L255.3 126.237L256.392 126.51H257.483L258.848 126.101L259.667 125.555L260.349 124.736L260.758 123.781L260.895 122.962V119.551L260.485 118.187L259.803 117.231L258.439 116.413L257.893 116.276H255.846Z" fill="#2B2B2C"/>
<path d="M111.071 114.094L113.391 114.367L114.755 114.912L115.984 115.868L116.939 116.959L117.621 118.46L117.757 119.142V123.509L117.212 125.283L116.12 126.784L114.755 127.739L113.391 128.285L112.026 128.558H110.116L108.752 128.285L106.841 127.33L105.75 126.238L104.795 124.328L104.658 123.782V118.87L105.204 117.369L105.75 116.55L106.568 115.595L108.069 114.64L109.434 114.23L111.071 114.094ZM110.116 116.277L109.025 116.686L108.206 117.369L107.387 119.006V123.645L107.796 124.737L108.752 125.829L109.843 126.374L110.525 126.511H111.617L112.845 126.238L114.073 125.419L114.892 124.055L115.028 123.372V119.142L114.483 117.914L113.664 116.959L112.572 116.413L112.163 116.277H110.116Z" fill="#2B2B2C"/>
<path d="M18.6939 114.229H21.9687L23.7426 114.775L25.1071 115.73L26.1987 116.959L26.8809 118.459L27.0174 119.142V123.508L26.4716 125.282L25.38 126.783L24.0155 127.738L22.6509 128.284L21.2864 128.557H19.3761L18.0116 128.284L16.7835 127.738L15.6919 126.919L14.6003 125.691L13.9181 123.918L13.7816 121.598L13.9181 118.732L14.6003 117.095L15.5555 115.867L17.0564 114.775L18.6939 114.229ZM19.2397 116.276L17.8752 116.959L16.92 118.187L16.6471 119.005L16.5106 119.96V122.962L16.7835 124.19L17.4658 125.282L18.421 126.101L19.7855 126.51H20.8771L21.9687 126.237L23.1967 125.555L24.0155 124.327L24.2884 123.372V119.278L23.879 118.05L22.9238 116.959L21.8322 116.413L21.4229 116.276H19.2397Z" fill="#2B2B2C"/>
<path d="M94.4242 114.229H97.8355L99.3364 114.775L100.565 115.594L101.52 116.822L101.793 117.641V118.732L99.2 118.869L98.7906 117.504L98.2448 116.822L96.7439 116.276H95.3794L94.1513 116.686L93.6055 117.368L93.469 117.641V118.459L94.1513 119.278L95.7887 119.96L98.3813 120.643L100.292 121.598L101.247 122.553L101.793 123.645V125.691L101.383 126.51L100.701 127.192L100.019 127.738L98.6542 128.284L97.1532 128.557H95.2429L93.3326 128.148L91.5587 127.192L90.6036 126.101L90.1942 125.009V124.054L90.3307 123.918H92.7868L93.3326 125.418L94.4242 126.101L95.3794 126.374H97.1532L98.3813 125.964L98.9271 125.418L99.0635 124.327L98.5177 123.508L97.9719 123.099L93.6055 121.734L92.241 121.052L91.4223 120.37L90.74 119.142L90.6036 118.732V117.641L91.0129 116.413L91.9681 115.321L93.0597 114.639L94.4242 114.229Z" fill="#2B2B2C"/>
<path d="M77.6407 114.366H87.8746V116.277L87.7381 116.413H80.3698V120.097H86.783L86.9194 120.234V122.007L86.783 122.144H80.3698L80.5062 126.237L88.011 126.374V128.284H77.7772L77.6407 128.148V114.366Z" fill="#2B2B2C"/>
<path d="M143.41 114.366H153.508L153.644 114.639L153.508 116.413H146.139V120.097H152.552L152.689 120.234V122.007L152.552 122.144H146.139V126.374H153.781V128.284H143.41V114.366Z" fill="#2B2B2C"/>
<path d="M218.458 114.366H220.778L221.46 115.731L224.189 122.417L226.509 128.011V128.284H223.644L222.415 125.146V124.873L216.957 125.009L215.593 128.284H212.727L213.137 127.056L215.456 121.598L217.913 115.731L218.458 114.366ZM219.55 118.187L217.776 122.553V122.69H221.46L221.051 121.462L219.823 118.187H219.55Z" fill="#2B2B2C"/>
<path d="M180.525 114.366H182.845L183.527 115.731L185.574 120.779L188.166 127.056L188.576 128.284H185.71L184.482 125.146V124.873H178.888L178.751 125.555L177.659 128.148L177.523 128.284H174.794L175.203 127.056L177.796 120.916L180.252 115.048L180.525 114.366ZM181.617 118.187L179.843 122.553V122.69L183.39 122.826L183.527 122.553L181.889 118.323L181.617 118.187Z" fill="#2B2B2C"/>
<path d="M233.059 114.229H236.47L237.834 114.639L239.063 115.321L239.745 115.867L240.563 117.231L240.7 117.777V119.142L240.291 119.278H238.244L237.971 118.459L237.562 117.368L236.743 116.686L235.378 116.276H234.014L232.649 116.822L231.831 117.777L231.285 119.142L231.148 120.233V122.553L231.421 124.054L232.24 125.691L232.786 125.964L233.877 126.374H235.651L236.879 125.964L237.562 125.282L237.971 124.327L238.107 123.508H240.7V124.873L240.154 126.101L239.199 127.192L237.834 128.011L235.651 128.557H233.741L231.967 128.148L230.603 127.329L229.374 126.101L228.692 124.736L228.419 123.781V119.005L228.829 117.641L229.647 116.276L230.603 115.321L232.513 114.366L233.059 114.229Z" fill="#2B2B2C"/>
<path d="M3.68418 114.229H7.09546L8.86933 114.775L10.3703 115.867L11.189 117.231L11.3254 117.641V119.142L11.0525 119.278H8.86933L8.59643 118.323L8.05062 117.231L7.36836 116.686L6.1403 116.276H4.63934L3.27483 116.822L2.45612 117.777L1.91032 119.142V123.645L2.45612 125.009L3.41128 125.964L4.50289 126.374H6.27676L7.50482 125.964L8.18707 125.282L8.59643 124.327L8.73288 123.508H11.3254V124.873L10.9161 125.964L9.68804 127.329L8.18707 128.148L6.27676 128.557H4.36644L2.72902 128.148L1.63741 127.602L0.272902 126.374L0 126.101V116.549L1.09161 115.458L2.45612 114.639L3.68418 114.229Z" fill="#2B2B2C"/>
<path d="M167.835 138.108H169.609L170.428 139.064L172.065 141.247L176.022 146.432L176.158 138.108H177.932L178.069 138.245V149.297L176.295 149.434L175.476 148.752L173.566 146.159L171.383 143.294L169.745 141.11L169.609 149.297L167.971 149.434L167.698 149.297V138.245L167.835 138.108Z" fill="#2B2B2C"/>
<path d="M137.406 138.108H139.044L139.726 138.791L141.363 140.974L143.547 143.839L145.184 146.023L145.457 146.432L145.593 138.245L145.73 138.108H147.367L147.504 138.245V149.297L145.73 149.434L145.048 148.752L143.137 146.295L139.862 141.929L139.317 141.247L139.18 149.297H137.27V138.245L137.406 138.108Z" fill="#2B2B2C"/>
<path d="M101.247 138.108H106.432L108.069 138.381L109.434 139.064L110.116 139.882L110.389 140.701V142.065L109.707 143.157L108.615 143.839L109.707 144.522L110.253 145.477L110.389 146.023L110.525 148.342L110.935 149.024V149.297H108.752L108.479 148.479L108.342 146.159L107.933 145.34L107.114 144.795L106.568 144.658L103.157 144.522V149.297L101.383 149.434L101.247 149.297V138.108ZM103.157 139.336L103.021 139.609V142.748L103.157 143.294H106.705L107.796 142.884L108.342 142.338L108.479 141.929V140.837L108.069 140.019L107.387 139.609L105.75 139.336H103.157Z" fill="#2B2B2C"/>
<path d="M162.923 114.366H165.652V126.374H173.293V128.284H162.923V114.366Z" fill="#2B2B2C"/>
<path d="M117.621 137.973H119.258L120.896 138.382L122.26 139.201L122.943 140.156L123.215 141.52L123.079 141.657H121.305L120.896 140.429L119.941 139.61L118.713 139.337L117.212 139.474L116.12 140.019L115.574 140.702L115.165 141.52L115.028 142.203V145.205L115.301 146.296L115.984 147.388L117.212 148.07L117.757 148.206H119.395L120.759 147.797L121.169 147.524L121.305 144.932H118.303V143.704H123.215V147.934L122.533 148.616L121.032 149.298L119.668 149.571H117.348L115.574 149.025L114.346 148.206L113.527 147.115L113.118 146.16V141.384L113.937 139.747L115.028 138.791L116.666 138.109L117.621 137.973Z" fill="#2B2B2C"/>
<path d="M92.7868 138.108H94.1513L94.6971 138.927L96.471 143.157L98.9271 149.024V149.297L97.2897 149.434L96.8804 149.024L95.9252 146.705L95.5158 146.568H90.8765L90.4671 147.796L89.7849 149.297H87.8746L88.2839 148.069L90.74 142.475L92.5139 138.245L92.7868 138.108ZM93.3326 140.565L91.5588 144.931V145.204H95.3794L94.0149 141.656L93.4691 140.565H93.3326Z" fill="#2B2B2C"/>
<path d="M185.301 138.108H186.665L186.938 138.245L189.394 144.112L191.441 148.888V149.297L189.667 149.434L188.985 148.069L188.439 146.705L188.03 146.568H183.39L182.981 147.933L182.299 149.297H180.388L180.661 148.479L183.254 142.475L185.028 138.381L185.301 138.108ZM185.847 140.565L184.073 144.931V145.204H187.893L186.529 141.656L185.983 140.565H185.847Z" fill="#2B2B2C"/>
<path d="M126.627 138.108H134.677L134.814 138.245V139.336H128.537V143.021H133.995V144.249H128.537V148.206L129.083 148.069H134.541L134.814 148.206V149.297L129.765 149.434H126.763L126.627 149.297V138.108Z" fill="#2B2B2C"/>
<path d="M244.111 114.366H246.84V128.148L246.704 128.284H244.111V114.366Z" fill="#2B2B2C"/>
<path d="M149.414 138.108H159.921L160.057 138.245V139.336L155.691 139.473L155.554 149.297L153.78 149.434L153.644 139.473L149.278 139.336V138.245L149.414 138.108Z" fill="#2B2B2C"/>
<path d="M162.377 138.108H164.151L164.287 138.245V149.297L162.377 149.434L162.24 146.978V140.565L162.377 138.108Z" fill="#2B2B2C"/>
<path d="M257.756 110.409H260.622L260.895 110.546L260.622 111.091L258.575 112.865L257.756 113.411H255.437L256.255 112.319L257.756 110.409Z" fill="#2B2B2C"/>
<path d="M127.718 4.65918L128.81 5.34144L130.993 5.75079L132.358 6.70595L133.04 6.8424V7.1153L132.494 7.25175L131.403 6.70595L132.494 7.79756V8.07046H132.767L133.722 9.16207L133.586 9.43497L130.857 8.75272H130.174V8.47981L130.584 8.20691L131.539 8.34336L130.72 7.3882L129.356 6.5695L128.537 6.16014L127.991 5.47789L127.718 4.65918Z" fill="#2B2B2C"/>
<path d="M136.451 10.3906H138.225L138.771 10.9364L139.18 11.6187L139.044 11.7551H138.225L137.816 11.4822L137.679 12.028L137.543 12.1645H136.451L136.178 11.8916V11.3458L135.223 11.8916L134.677 11.7551L134.95 11.2093L135.633 10.6635L136.451 10.3906Z" fill="#2B2B2C"/>
<path d="M143.001 10.3906L144.502 10.5271L145.321 10.9364L146.003 11.7551V11.8916H145.184L144.638 11.4822L144.229 12.1645L144.092 12.3009H143.137L142.728 11.8916V11.4822L141.909 11.8916H141.636L141.773 11.2093L142.319 10.5271L143.001 10.3906Z" fill="#2B2B2C"/>
<path d="M141.909 8.88965H144.365L145.457 9.299L146.139 9.84481L146.276 10.6635L145.184 10.1177L144.775 9.98126H141.5L141.773 9.0261L141.909 8.88965Z" fill="#2B2B2C"/>
<path d="M136.451 8.88965H138.907L139.18 9.98126L136.178 9.84481L135.087 10.2542L134.677 10.5271H134.268L134.541 9.84481L135.496 9.16255L136.451 8.88965Z" fill="#2B2B2C"/>
<path d="M141.5 16.2578H142.319L141.636 16.9401L141.363 17.3494L141.227 17.0765H140.818L140.954 16.6672L141.363 16.5307L141.5 16.2578Z" fill="#2B2B2C"/>
</g>
<defs>
<clipPath id="clip0_328_4061">
<rect width="279.452" height="150" fill="white"/>
</clipPath>
</defs>
</svg>
