<svg width="196" height="78" viewBox="0 0 196 78" fill="none" xmlns="http://www.w3.org/2000/svg">
<g clip-path="url(#clip0_328_3656)">
<path d="M36.5174 0.28125L36.8801 0.462628L38.6939 15.3357V16.4239L39.7822 16.7867L40.8705 17.5122L41.2332 18.0563L41.0519 19.5074L40.145 21.8653L42.5029 22.9536L42.8656 24.586L42.6843 26.5811L42.5029 26.9439L44.3167 27.1253L47.7629 28.0322L51.5718 29.4832L55.7435 31.6597L58.8269 33.8363L61.1849 35.8314L64.4497 39.0962L66.8076 42.1797L68.2586 44.5376L70.2538 48.3465L71.7048 52.3369L72.7931 56.8713L73.1558 59.592V63.0382H65.7193L65.5379 62.8568L65.3566 59.7734L64.6311 55.7831L63.3614 51.9741L61.9104 49.0721L60.278 46.3514L58.6456 44.3562L57.0132 42.5424L54.8366 40.5473L51.9346 38.5521L48.1256 36.5569L45.0422 35.4687L41.9587 34.7432L39.2381 34.3804H34.7036L30.8947 34.9245L27.0857 36.0128L23.4581 37.6452L20.5561 39.459L18.7423 40.91L16.9285 42.5424L15.4775 43.9935L13.6637 46.3514L11.6685 49.6162L10.2175 52.881L9.12924 56.5086L8.58511 59.592L8.22235 63.0382H0.241699V60.4989L0.785835 56.3272L1.87411 51.9741L3.32513 48.1652L5.13892 44.5376L6.9527 41.8169L8.76649 39.459L10.943 37.1011L12.5754 35.4687L15.1147 33.4735L18.3795 31.297L21.8257 29.4832L25.0905 28.2135L29.0809 27.1253L30.7133 26.9439L30.5319 23.8605L30.8947 22.9536L32.3457 22.228L33.2526 21.8653L32.3457 19.5074L32.1643 18.0563L32.8898 17.1494L34.5222 16.2426L35.9733 4.81571L36.5174 0.28125Z" fill="#6AA8DC"/>
<path d="M0.604492 70.1113H73.1559V77.3665H0.604492V70.1113Z" fill="#6AA8DC"/>
<path d="M97.0979 29.3008L98.7303 29.4822L99.8186 30.2077L100.181 30.5704L101.088 29.8449L102.721 29.3008L104.353 29.4822L105.441 30.2077L106.167 31.6587V38.7325H103.446L103.265 32.5656L102.721 32.0215H101.451L100.725 32.747L100.544 38.7325H97.8234L97.642 32.747L97.0979 32.0215H95.6469L95.1027 32.747L94.9214 38.7325H92.2007V29.4822H94.74L95.1027 30.3891L96.0096 29.6635L97.0979 29.3008Z" fill="#575757"/>
<path d="M131.379 65.2139H133.737L135.369 67.209L139.178 72.2876L139.359 65.2139H141.899V77.1848H139.541L137.001 73.92L134.099 70.1111L133.918 77.1848H131.197V65.3952L131.379 65.2139Z" fill="#575757"/>
<path d="M152.963 48.709H155.321L156.59 49.4345L156.772 49.6159L157.134 48.709H159.674V57.2338L159.129 58.8662L158.404 59.7731L156.953 60.4986L156.409 60.68H152.781L150.605 59.9545L150.786 58.8662L151.33 57.7779L152.781 58.322L154.958 58.5034L156.227 58.1407L156.772 57.4152L157.134 55.9641L155.683 57.0524L155.139 57.2338H153.144L151.33 56.3269L150.242 54.6945L150.061 54.1503V51.7924L150.786 50.16L152.056 49.0717L152.963 48.709ZM154.051 50.8855L153.144 51.4297L152.781 51.9738V53.7876L153.507 54.6945L154.232 55.0572H155.502L156.59 54.3317L157.134 53.2434L156.953 51.9738L156.046 51.0669L155.683 50.8855H154.051Z" fill="#575757"/>
<path d="M93.4702 45.4434H96.1909V57.9585H93.4702L93.2889 57.0516L92.2006 57.9585L91.6565 58.1399H89.6613L88.2103 57.4143L86.9406 55.9633L86.3965 53.7868L86.5779 51.7916L87.4848 49.9778L88.9358 48.8896L89.4799 48.7082H91.8378L93.2889 49.6151L93.4702 45.4434ZM90.7496 50.8847L89.6613 51.6102L89.1172 52.6985V54.1495L89.8427 55.4192L90.9309 55.9633L92.2006 55.7819L93.1075 55.0564L93.4702 54.3309V52.5171L92.9261 51.6102L92.382 51.0661L90.7496 50.8847Z" fill="#575757"/>
<path d="M93.6516 64.6699H96.0095L96.1909 64.8513V77.185H93.4702L93.2889 76.2781L92.2006 77.185L91.6565 77.3664H89.6613L88.2103 76.6409L86.9406 75.1899L86.3965 73.0133L86.5779 71.1995L87.122 69.7485L88.3916 68.4789L89.6613 67.9347H91.6565L93.1075 68.6602L93.2889 68.8416L93.4702 64.8513L93.6516 64.6699ZM90.9309 70.1113L89.8427 70.6554L89.1172 71.9251V73.3761L89.8427 74.6457L90.7496 75.1899L92.382 75.0085L93.2889 73.9202L93.4702 73.5575V71.7437L92.7447 70.6554L91.8378 70.1113H90.9309Z" fill="#575757"/>
<path d="M113.059 29.3008L114.691 29.4822L116.142 30.3891L117.049 31.4773L117.594 32.9284V35.2863L117.049 36.9187L115.961 38.1883L114.329 38.9138H112.515L111.064 38.1883L110.883 38.0069L110.701 41.4531H107.98V29.4822H110.52L110.883 30.3891L111.789 29.6635L113.059 29.3008ZM112.152 31.6587L111.064 32.3842L110.52 33.6539L110.701 35.2863L111.608 36.3745L111.971 36.5559H113.603L114.51 35.8304L114.873 35.1049V33.1097L114.147 32.0215L113.422 31.6587H112.152Z" fill="#575757"/>
<path d="M122.31 45.8066H124.668L126.481 46.3508L127.933 47.439V47.9832L126.481 49.6156L124.486 48.5273H122.31L121.04 49.2528L120.133 51.0666V52.8804L120.677 54.1501L121.584 55.0569L122.128 55.4197L123.761 55.6011L125.393 55.0569L126.3 54.3314L127.026 54.6942L128.114 55.7825L127.933 56.508L126.481 57.5962L124.849 58.1404H121.766L119.952 57.4149L118.319 55.9638L117.413 54.1501L117.05 52.5176L117.231 50.5225L117.957 48.7087L119.226 47.2577L120.859 46.1694L122.31 45.8066Z" fill="#575757"/>
<path d="M171.826 67.9346H174.184L175.816 68.6601L177.086 69.7484L177.812 71.1994L177.993 71.9249V73.3759L177.449 75.0083L175.998 76.6407L174.365 77.3663L172.552 77.5476L170.919 77.1849L169.287 76.0966L168.38 74.827L168.017 73.7387V71.7435L168.743 69.9297L170.012 68.6601L171.826 67.9346ZM172.914 70.1111L171.645 70.4739L170.738 71.5621L170.556 73.0132L171.101 74.2828L172.007 75.0083L172.37 75.1897H173.64L174.728 74.4642L175.272 73.5573V71.7435L174.547 70.6552L172.914 70.1111Z" fill="#575757"/>
<path d="M132.648 48.709H135.188L136.82 49.4345L137.908 50.3414L138.815 52.1552V54.5131L138.271 55.9641L137.364 57.0524L135.732 57.9593L135.188 58.1407H132.648L131.197 57.5965L129.746 56.3269L129.021 54.8759L128.839 53.0621L129.383 51.2483L130.109 50.16L131.56 49.0717L132.648 48.709ZM133.374 50.8855L132.286 51.4297L131.56 52.5179V54.1503L132.286 55.42L133.555 55.9641L135.006 55.7827L135.913 54.8759L136.276 53.969L136.094 52.3366L135.188 51.2483L134.281 50.8855H133.374Z" fill="#575757"/>
<path d="M189.964 48.709H192.684L194.498 49.6159L195.768 51.0669L196.312 52.8807L196.13 54.8759L195.405 56.3269L193.954 57.5965L192.503 58.1407H189.964L188.331 57.4152L187.424 56.6896L186.699 55.6014L186.336 54.5131V52.3366L187.061 50.7041L187.968 49.7973L188.875 49.0717L189.964 48.709ZM190.87 50.8855L189.601 51.4297L188.875 52.8807L189.057 54.5131L189.964 55.6014L190.87 55.9641L192.321 55.7827L193.228 55.0572L193.591 54.3317V52.5179L192.866 51.4297L191.777 50.8855H190.87Z" fill="#575757"/>
<path d="M147.34 67.9346H149.516L151.149 68.4787L152.056 69.3856L152.6 70.4739L152.781 71.7435V77.1849H150.06L149.879 76.6407L148.609 77.3663H146.252L144.982 76.6407L144.256 75.5525V73.5573L144.982 72.469L146.252 71.7435L147.158 71.5621H148.609L150.06 71.9249L149.698 70.8366L149.154 70.4739H146.796L145.526 70.6552L144.982 68.6601L147.34 67.9346ZM148.065 73.1945L147.158 73.5573L146.796 73.9201V75.0083L147.521 75.5525H148.972L149.879 75.0083L150.242 74.1014V73.5573L149.154 73.1945H148.065Z" fill="#575757"/>
<path d="M119.952 67.9346H122.128L123.761 68.4787L124.667 69.3856L125.212 70.4739L125.393 71.5621V77.1849H122.672L122.491 76.6407L121.221 77.3663H118.863L117.594 76.6407L117.05 75.9152L116.868 75.3711V73.7387L117.412 72.6504L118.863 71.7435L119.77 71.5621H121.403L122.672 71.9249L122.31 70.8366L121.765 70.4739H119.407L118.319 70.6552L117.594 68.8415L117.956 68.4787L119.952 67.9346ZM120.677 73.1945L119.77 73.5573L119.407 74.1014L119.589 75.1897L120.133 75.5525H121.584L122.491 75.0083L122.854 74.2828V73.5573L121.765 73.1945H120.677Z" fill="#575757"/>
<path d="M129.202 29.3008L131.016 29.4822L132.104 30.0263L133.011 30.9332L133.736 32.0215L134.099 33.6539V34.9235L133.918 35.1049H127.751L128.295 36.1932L129.021 36.5559H130.834L132.104 35.8304L133.555 37.1001L133.192 37.8256L132.104 38.5511L131.016 38.9138H128.658L127.207 38.3697L125.937 37.2814L125.212 35.8304L125.03 35.2863V33.1097L125.756 31.2959L127.025 30.0263L128.295 29.4822L129.202 29.3008ZM129.202 31.4773L128.295 32.0215L127.751 32.747V33.4725H131.379L131.197 32.3842L130.472 31.6587L129.202 31.4773Z" fill="#575757"/>
<path d="M154.414 29.4824H157.497L158.767 30.0266L159.674 30.9334L160.218 32.2031V38.7327H157.678L157.497 38.0072L156.409 38.7327L155.865 38.9141H154.051L152.6 38.1886L152.056 37.6445L151.693 36.5562L151.874 34.9238L152.6 33.8355L153.688 33.2914L154.414 33.11H156.59L157.678 33.4727L157.134 32.2031L156.046 31.8403L154.051 32.0217L153.144 32.2031L152.6 30.2079L153.688 29.6638L154.414 29.4824ZM155.32 34.7424L154.414 35.2865V36.5562L155.32 37.1003L156.771 36.9189L157.678 36.012V34.9238L156.953 34.7424H155.32Z" fill="#575757"/>
<path d="M100.907 48.709H103.446L104.897 49.4345L105.804 50.5228L106.53 52.3366V54.3317H100.182L100.726 55.2386V55.6014L101.451 55.7827H103.446L104.353 55.2386L105.079 55.42L105.986 56.3269L105.623 57.0524L104.716 57.7779L103.628 58.1407H101.089L99.6375 57.5965L98.5492 56.6896L97.6423 54.8759L97.4609 54.1503V52.8807L98.0051 51.0669L99.0933 49.6159L100.907 48.709ZM101.995 50.7041L100.726 51.2483L100.182 52.1552V52.6993H103.991L103.628 51.611L102.902 50.8855L101.995 50.7041Z" fill="#575757"/>
<path d="M171.463 48.709H174.002L175.453 49.4345L176.542 50.7041L177.086 51.9738L177.267 54.1503L177.086 54.3317L170.919 54.5131L171.644 55.6014L172.007 55.7827H174.002L174.909 55.2386L175.635 55.42L176.723 56.3269L176.36 57.0524L174.909 57.9593L174.365 58.1407H171.644L170.012 57.4152L168.742 55.9641L168.198 54.6945V52.3366L168.924 50.5228L170.193 49.2531L171.463 48.709ZM172.551 50.7041L171.644 51.0669L170.919 51.9738L170.738 52.6993H174.546L174.365 51.611L173.458 50.8855L172.551 50.7041Z" fill="#575757"/>
<path d="M100.907 67.9346H103.265L105.079 68.8415L106.167 70.4739L106.53 71.5621V73.5573H100.182L100.907 74.827L101.995 75.1897L103.446 75.0083L104.353 74.4642L105.26 74.827L105.986 75.5525L105.623 76.278L104.716 77.0035L103.809 77.3663L101.995 77.5476L100.363 77.1849L98.7306 76.0966L97.8237 74.6456L97.4609 73.3759V72.1063L98.0051 70.2925L99.0933 68.8415L100.907 67.9346ZM101.27 70.1111L100.363 71.018L100.182 71.9249H103.991L103.628 70.8366L102.902 70.1111H101.27Z" fill="#575757"/>
<path d="M183.615 67.9346H185.61L186.699 68.4787L187.424 69.3856L187.787 70.4739V77.1849H185.066L184.885 71.1994L184.159 70.4739H183.071L182.346 70.6552L182.164 71.3808L181.983 77.1849H179.262V68.1159H181.983L182.164 69.0228L183.253 68.1159L183.615 67.9346Z" fill="#575757"/>
<path d="M140.266 48.709H142.805L143.168 49.6159L144.075 48.8904L144.619 48.709H146.614L147.884 49.4345L148.61 50.8855V57.9593H146.07L145.889 52.3366L145.707 51.4297L145.163 51.2483H143.894L143.168 51.9738L142.987 57.9593H140.266V48.709Z" fill="#575757"/>
<path d="M140.448 29.3008L141.899 29.4822L143.168 30.2077L143.712 31.1146L143.894 31.8401V38.7325H141.173L140.992 32.5656L140.448 32.0215H138.996L138.452 32.5656L138.271 33.1097L138.09 38.7325H135.55V29.4822H138.09L138.271 30.5704L139.178 29.6635L140.448 29.3008Z" fill="#575757"/>
<path d="M180.713 48.709H182.89L184.885 49.4345L185.066 50.16L184.16 51.611L182.164 50.8855L180.895 51.0669V51.7924L182.527 52.3366L184.341 53.0621L185.248 54.1503L185.429 55.7827L184.885 57.0524L183.978 57.7779L183.071 58.1407H180.713L178.718 57.4152L177.993 56.871L178.355 55.9641L178.9 55.0572L179.806 55.42L181.257 55.9641H182.89L182.709 55.0572L179.806 53.969L178.537 52.8807L178.355 52.3366V50.8855L178.9 49.7973L179.806 49.0717L180.713 48.709Z" fill="#575757"/>
<path d="M157.678 67.9346H160.036L161.487 68.4787L162.394 69.2042L162.031 70.1111L160.762 71.1994L159.855 70.4739L158.767 70.2925L157.678 70.6552L157.134 71.1994L156.771 71.9249V73.3759L157.316 74.4642L158.404 75.0083L160.036 74.827L160.762 74.2828L161.487 74.6456L162.394 75.5525V76.0966L160.762 77.1849L159.129 77.5476L157.316 77.3663L155.865 76.6407L154.414 75.0083L154.051 73.9201V71.3808L154.958 69.567L156.227 68.4787L157.678 67.9346Z" fill="#575757"/>
<path d="M146.252 27.125H148.61L148.791 27.3064V29.4829H150.786L150.967 29.6643V31.8408H148.791L148.972 36.1939L149.154 36.3753H150.242L150.786 36.1939V38.3705L149.698 38.9146H147.884L146.796 38.3705L146.252 37.645L146.07 36.9194V31.8408H144.982V29.6643L145.163 29.4829H146.07V27.3064L146.252 27.125Z" fill="#575757"/>
<path d="M112.878 64.6699H115.417V77.185H112.696V64.8513L112.878 64.6699Z" fill="#204D72"/>
<path d="M161.85 48.709H164.389L164.571 49.9786L165.296 49.0717L166.022 48.709H167.291V51.4297L165.84 51.7924L164.933 52.5179L164.571 53.6062L164.389 57.9593H161.668V48.8904L161.85 48.709Z" fill="#1C4A70"/>
<path d="M123.942 29.3008L124.668 29.4822V32.0215L123.035 32.5656L122.128 33.4725L121.947 34.0166L121.766 38.7325H119.045V29.4822H121.584L121.947 30.5704L123.217 29.4822L123.942 29.3008Z" fill="#1B496F"/>
<path d="M87.3037 26.7617H90.0244V38.7327H87.3037V26.7617Z" fill="#575757"/>
<path d="M108.162 45.4434H110.701V57.9585H108.162V45.4434Z" fill="#575757"/>
<path d="M163.845 68.1162H166.566V77.1851H163.845V68.1162Z" fill="#1D4A70"/>
<path d="M163.845 64.6699H166.566V67.2092H163.845V64.6699Z" fill="#2F597B"/>
<path d="M173.64 64.126L174.728 64.3074L175.998 64.8515L175.635 65.577L173.821 67.2094H172.007L172.37 66.1211L173.64 64.126Z" fill="#1C4A6F"/>
</g>
<defs>
<clipPath id="clip0_328_3656">
<rect width="196" height="78" fill="white"/>
</clipPath>
</defs>
</svg>
