<svg width="203" height="150" viewBox="0 0 203 150" fill="none" xmlns="http://www.w3.org/2000/svg">
<g clip-path="url(#clip0_319_3258)">
<path d="M128.308 76.7376C125.861 76.7376 123.867 74.7437 123.867 72.2966C123.867 69.8494 125.861 67.8555 128.308 67.8555C130.755 67.8555 132.749 69.8494 132.749 72.2966C132.749 74.7437 130.755 76.7376 128.308 76.7376Z" fill="#7AACDD"/>
<path d="M123.082 65.4681C120.634 65.4681 118.64 63.4742 118.64 61.027C118.64 58.5799 120.634 56.5859 123.082 56.5859C125.529 56.5859 127.523 58.5799 127.523 61.027C127.523 63.4742 125.529 65.4681 123.082 65.4681Z" fill="#7AACDD"/>
<path d="M113.595 57.6439C111.148 57.6439 109.154 55.6499 109.154 53.2028C109.154 50.7557 111.148 48.7617 113.595 48.7617C116.042 48.7617 118.036 50.7557 118.036 53.2028C118.036 55.6499 116.042 57.6439 113.595 57.6439Z" fill="#7AACDD"/>
<path d="M101.239 54.7132C98.7915 54.7132 96.7975 52.7193 96.7975 50.2721C96.7975 47.825 98.7915 45.8311 101.239 45.8311C103.686 45.8311 105.68 47.825 105.68 50.2721C105.68 52.7193 103.686 54.7132 101.239 54.7132Z" fill="#7AACDD"/>
<path d="M88.8821 57.6439C86.435 57.6439 84.441 55.6499 84.441 53.2028C84.441 50.7557 86.4048 48.7617 88.8821 48.7617C91.3595 48.7617 93.3232 50.7557 93.3232 53.2028C93.3232 55.6499 91.3293 57.6439 88.8821 57.6439Z" fill="#7AACDD"/>
<path d="M79.3957 65.4378C76.9486 65.4378 74.9547 63.4439 74.9547 60.9968C74.9547 58.5496 76.9184 56.5557 79.3957 56.5557C81.8731 56.5557 83.8368 58.5496 83.8368 60.9968C83.8368 63.4439 81.8429 65.4378 79.3957 65.4378Z" fill="#7AACDD"/>
<path d="M74.1994 76.7376C71.7523 76.7376 69.7583 74.7437 69.7583 72.2966C69.7583 69.8494 71.7523 67.8555 74.1994 67.8555C76.6465 67.8555 78.6405 69.8494 78.6405 72.2966C78.6405 74.7437 76.6465 76.7376 74.1994 76.7376Z" fill="#7AACDD"/>
<path d="M116.405 76.7376C113.958 76.7376 111.964 74.7437 111.964 72.2966C111.964 69.8494 113.958 67.8555 116.405 67.8555C118.852 67.8555 120.846 69.8494 120.846 72.2966C120.846 74.7437 118.852 76.7376 116.405 76.7376Z" fill="#7AACDD"/>
<path d="M107.734 67.6136C105.287 67.6136 103.293 65.6197 103.293 63.1725C103.293 60.7254 105.287 58.7314 107.734 58.7314C110.181 58.7314 112.175 60.7254 112.175 63.1725C112.175 65.6197 110.181 67.6136 107.734 67.6136Z" fill="#7AACDD"/>
<path d="M94.7432 67.6136C92.296 67.6136 90.3021 65.6197 90.3021 63.1725C90.3021 60.7254 92.296 58.7314 94.7432 58.7314C97.1903 58.7314 99.1842 60.7254 99.1842 63.1725C99.1842 65.6197 97.1903 67.6136 94.7432 67.6136Z" fill="#7AACDD"/>
<path d="M86.1027 76.7376C83.6556 76.7376 81.6616 74.7437 81.6616 72.2966C81.6616 69.8494 83.6556 67.8555 86.1027 67.8555C88.5498 67.8555 90.5438 69.8494 90.5438 72.2966C90.5438 74.7437 88.5498 76.7376 86.1027 76.7376Z" fill="#7AACDD"/>
<path d="M151.662 76.7376C149.214 76.7376 147.221 74.7437 147.221 72.2966C147.221 69.8494 149.214 67.8555 151.662 67.8555C154.109 67.8555 156.103 69.8494 156.103 72.2966C156.103 74.7437 154.109 76.7376 151.662 76.7376Z" fill="#D1CFCF"/>
<path d="M149.063 65.4984C146.616 65.4984 144.622 63.5044 144.622 61.0573C144.622 58.6102 146.616 56.6162 149.063 56.6162C151.511 56.6162 153.504 58.6102 153.504 61.0573C153.504 63.5044 151.511 65.4984 149.063 65.4984Z" fill="#D1CFCF"/>
<path d="M144.139 55.347C141.692 55.347 139.698 53.3531 139.698 50.9059C139.698 48.4588 141.692 46.4648 144.139 46.4648C146.586 46.4648 148.58 48.4588 148.58 50.9059C148.58 53.3531 146.586 55.347 144.139 55.347Z" fill="#D1CFCF"/>
<path d="M137.19 46.6166C134.743 46.6166 132.749 44.6226 132.749 42.1755C132.749 39.7283 134.713 37.7344 137.19 37.7344C139.668 37.7344 141.631 39.7283 141.631 42.1755C141.631 44.6226 139.637 46.6166 137.19 46.6166Z" fill="#D1CFCF"/>
<path d="M128.52 39.6371C126.072 39.6371 124.078 37.6431 124.078 35.196C124.078 32.7488 126.072 30.7549 128.52 30.7549C130.967 30.7549 132.961 32.7488 132.961 35.196C132.961 37.6431 130.967 39.6371 128.52 39.6371Z" fill="#D1CFCF"/>
<path d="M118.399 34.6527C115.952 34.6527 113.958 32.6587 113.958 30.2116C113.958 27.7645 115.952 25.7705 118.399 25.7705C120.846 25.7705 122.84 27.7645 122.84 30.2116C122.84 32.6587 120.846 34.6527 118.399 34.6527Z" fill="#D1CFCF"/>
<path d="M107.19 32.0238C104.743 32.0238 102.749 30.0298 102.749 27.5827C102.749 25.1356 104.743 23.1416 107.19 23.1416C109.637 23.1416 111.631 25.1356 111.631 27.5827C111.631 30.0298 109.637 32.0238 107.19 32.0238Z" fill="#D1CFCF"/>
<path d="M95.3172 32.0238C92.8701 32.0238 90.8761 30.0298 90.8761 27.5827C90.8761 25.1356 92.8701 23.1416 95.3172 23.1416C97.7643 23.1416 99.7583 25.1356 99.7583 27.5827C99.7583 30.0298 97.7643 32.0238 95.3172 32.0238Z" fill="#D1CFCF"/>
<path d="M84.0785 34.6527C81.6314 34.6527 79.6375 32.6587 79.6375 30.2116C79.6375 27.7645 81.6314 25.7705 84.0785 25.7705C86.5257 25.7705 88.5196 27.7645 88.5196 30.2116C88.5196 32.6587 86.5257 34.6527 84.0785 34.6527Z" fill="#D1CFCF"/>
<path d="M73.9577 39.6371C71.5106 39.6371 69.5166 37.6431 69.5166 35.196C69.5166 32.7488 71.5106 30.7549 73.9577 30.7549C76.4048 30.7549 78.3988 32.7488 78.3988 35.196C78.3988 37.6431 76.4048 39.6371 73.9577 39.6371Z" fill="#D1CFCF"/>
<path d="M65.287 46.6166C62.8398 46.6166 60.8459 44.6226 60.8459 42.1755C60.8459 39.7283 62.8096 37.7344 65.287 37.7344C67.7643 37.7344 69.7281 39.7283 69.7281 42.1755C69.7281 44.6226 67.7341 46.6166 65.287 46.6166Z" fill="#D1CFCF"/>
<path d="M58.3384 55.347C55.8912 55.347 53.8973 53.3531 53.8973 50.9059C53.8973 48.4588 55.861 46.4648 58.3384 46.4648C60.8157 46.4648 62.7795 48.4588 62.7795 50.9059C62.7795 53.3531 60.7855 55.347 58.3384 55.347Z" fill="#D1CFCF"/>
<path d="M53.4139 65.4984C50.9667 65.4984 48.9728 63.5044 48.9728 61.0573C48.9728 58.6102 50.9667 56.6162 53.4139 56.6162C55.861 56.6162 57.855 58.6102 57.855 61.0573C57.855 63.5044 55.861 65.4984 53.4139 65.4984Z" fill="#D1CFCF"/>
<path d="M50.8459 76.7376C48.3987 76.7376 46.4048 74.7437 46.4048 72.2966C46.4048 69.8494 48.3987 67.8555 50.8459 67.8555C53.293 67.8555 55.287 69.8494 55.287 72.2966C55.287 74.7437 53.293 76.7376 50.8459 76.7376Z" fill="#D1CFCF"/>
<path d="M140.03 76.7376C137.583 76.7376 135.589 74.7437 135.589 72.2966C135.589 69.8494 137.583 67.8555 140.03 67.8555C142.477 67.8555 144.471 69.8494 144.471 72.2966C144.471 74.7437 142.477 76.7376 140.03 76.7376Z" fill="#D1CFCF"/>
<path d="M136.284 64.8636C133.837 64.8636 131.843 62.8697 131.843 60.4225C131.843 57.9754 133.837 55.9814 136.284 55.9814C138.731 55.9814 140.725 57.9754 140.725 60.4225C140.725 62.8697 138.731 64.8636 136.284 64.8636Z" fill="#D1CFCF"/>
<path d="M129.214 54.9544C126.767 54.9544 124.773 52.9605 124.773 50.5134C124.773 48.0662 126.767 46.0723 129.214 46.0723C131.662 46.0723 133.656 48.0662 133.656 50.5134C133.656 52.9605 131.662 54.9544 129.214 54.9544Z" fill="#D1CFCF"/>
<path d="M119.456 47.6742C117.009 47.6742 115.015 45.6802 115.015 43.2331C115.015 40.786 117.009 38.792 119.456 38.792C121.903 38.792 123.897 40.786 123.897 43.2331C123.897 45.6802 121.903 47.6742 119.456 47.6742Z" fill="#D1CFCF"/>
<path d="M107.674 43.7162C105.227 43.7162 103.233 41.7222 103.233 39.2751C103.233 36.8279 105.196 34.834 107.674 34.834C110.151 34.834 112.115 36.8279 112.115 39.2751C112.115 41.7222 110.121 43.7162 107.674 43.7162Z" fill="#D1CFCF"/>
<path d="M94.8036 43.7162C92.3564 43.7162 90.3625 41.7222 90.3625 39.2751C90.3625 36.8279 92.3564 34.834 94.8036 34.834C97.2507 34.834 99.2447 36.8279 99.2447 39.2751C99.2447 41.7222 97.2809 43.7162 94.8036 43.7162Z" fill="#D1CFCF"/>
<path d="M83.0211 47.6742C80.574 47.6742 78.58 45.6802 78.58 43.2331C78.58 40.786 80.574 38.792 83.0211 38.792C85.4682 38.792 87.4622 40.786 87.4622 43.2331C87.4622 45.6802 85.4682 47.6742 83.0211 47.6742Z" fill="#D1CFCF"/>
<path d="M73.2628 54.9544C70.8157 54.9544 68.8217 52.9605 68.8217 50.5134C68.8217 48.0662 70.8157 46.0723 73.2628 46.0723C75.7099 46.0723 77.7039 48.0662 77.7039 50.5134C77.7039 52.9605 75.7099 54.9544 73.2628 54.9544Z" fill="#D1CFCF"/>
<path d="M66.1631 64.8636C63.716 64.8636 61.722 62.8697 61.722 60.4225C61.722 57.9754 63.716 55.9814 66.1631 55.9814C68.6103 55.9814 70.6042 57.9754 70.6042 60.4225C70.6042 62.8697 68.6103 64.8636 66.1631 64.8636Z" fill="#D1CFCF"/>
<path d="M62.4471 76.7376C60 76.7376 58.006 74.7437 58.006 72.2966C58.006 69.8494 60 67.8555 62.4471 67.8555C64.8943 67.8555 66.8882 69.8494 66.8882 72.2966C66.8882 74.7437 64.8943 76.7376 62.4471 76.7376Z" fill="#D1CFCF"/>
<path d="M174.743 76.7376C172.296 76.7376 170.302 74.7437 170.302 72.2966C170.302 69.8494 172.296 67.8555 174.743 67.8555C177.19 67.8555 179.184 69.8494 179.184 72.2966C179.184 74.7437 177.19 76.7376 174.743 76.7376Z" fill="#7AACDD"/>
<path d="M172.87 65.015C170.423 65.015 168.429 63.021 168.429 60.5739C168.429 58.1268 170.423 56.1328 172.87 56.1328C175.317 56.1328 177.311 58.1268 177.311 60.5739C177.311 63.021 175.317 65.015 172.87 65.015Z" fill="#7AACDD"/>
<path d="M169.275 53.9574C166.828 53.9574 164.834 51.9634 164.834 49.5163C164.834 47.0692 166.828 45.0752 169.275 45.0752C171.722 45.0752 173.716 47.0692 173.716 49.5163C173.716 51.9634 171.722 53.9574 169.275 53.9574Z" fill="#7AACDD"/>
<path d="M164.048 43.7464C161.601 43.7464 159.607 41.7525 159.607 39.3053C159.607 36.8582 161.601 34.8643 164.048 34.8643C166.495 34.8643 168.489 36.8582 168.489 39.3053C168.489 41.7525 166.495 43.7464 164.048 43.7464Z" fill="#7AACDD"/>
<path d="M157.341 34.5619C154.894 34.5619 152.9 32.5679 152.9 30.1208C152.9 27.6736 154.894 25.6797 157.341 25.6797C159.788 25.6797 161.782 27.6736 161.782 30.1208C161.782 32.5679 159.788 34.5619 157.341 34.5619Z" fill="#7AACDD"/>
<path d="M149.335 26.4955C146.888 26.4955 144.894 24.5015 144.894 22.0544C144.894 19.6072 146.888 17.6133 149.335 17.6133C151.782 17.6133 153.776 19.6072 153.776 22.0544C153.776 24.5015 151.782 26.4955 149.335 26.4955Z" fill="#7AACDD"/>
<path d="M140.181 19.7582C137.734 19.7582 135.74 17.7642 135.74 15.3171C135.74 12.8699 137.734 10.876 140.181 10.876C142.628 10.876 144.622 12.8699 144.622 15.3171C144.622 17.7642 142.628 19.7582 140.181 19.7582Z" fill="#7AACDD"/>
<path d="M130.03 14.471C127.583 14.471 125.589 12.4771 125.589 10.03C125.589 7.58282 127.583 5.58887 130.03 5.58887C132.477 5.58887 134.471 7.58282 134.471 10.03C134.471 12.4771 132.477 14.471 130.03 14.471Z" fill="#7AACDD"/>
<path d="M119.003 10.7855C116.556 10.7855 114.562 8.79154 114.562 6.34441C114.562 3.89728 116.526 1.90332 119.003 1.90332C121.48 1.90332 123.444 3.89728 123.444 6.34441C123.444 8.79154 121.45 10.7855 119.003 10.7855Z" fill="#7AACDD"/>
<path d="M107.281 8.88218C104.834 8.88218 102.84 6.88822 102.84 4.44109C102.84 1.99396 104.834 0 107.281 0C109.728 0 111.722 1.99396 111.722 4.44109C111.722 6.88822 109.728 8.88218 107.281 8.88218Z" fill="#7AACDD"/>
<path d="M95.1359 8.88218C92.6888 8.88218 90.6948 6.88822 90.6948 4.44109C90.6948 1.99396 92.6586 0 95.1359 0C97.6133 0 99.577 1.99396 99.577 4.44109C99.577 6.88822 97.583 8.88218 95.1359 8.88218Z" fill="#7AACDD"/>
<path d="M83.4441 10.7855C80.997 10.7855 79.003 8.79154 79.003 6.34441C79.003 3.89728 80.997 1.90332 83.4441 1.90332C85.8912 1.90332 87.8852 3.89728 87.8852 6.34441C87.8852 8.79154 85.8912 10.7855 83.4441 10.7855Z" fill="#7AACDD"/>
<path d="M72.4169 14.471C69.9698 14.471 67.9758 12.4771 67.9758 10.03C67.9758 7.58282 69.9698 5.58887 72.4169 5.58887C74.864 5.58887 76.858 7.58282 76.858 10.03C76.858 12.4771 74.864 14.471 72.4169 14.471Z" fill="#7AACDD"/>
<path d="M62.2659 19.7582C59.8187 19.7582 57.8248 17.7642 57.8248 15.3171C57.8248 12.8699 59.8187 10.876 62.2659 10.876C64.713 10.876 66.7069 12.8699 66.7069 15.3171C66.7069 17.7642 64.713 19.7582 62.2659 19.7582Z" fill="#7AACDD"/>
<path d="M53.0815 26.4955C50.6344 26.4955 48.6404 24.5015 48.6404 22.0544C48.6404 19.6072 50.6042 17.6133 53.0815 17.6133C55.5589 17.6133 57.5226 19.6072 57.5226 22.0544C57.5226 24.5015 55.5287 26.4955 53.0815 26.4955Z" fill="#7AACDD"/>
<path d="M45.1057 34.5619C42.6586 34.5619 40.6646 32.5679 40.6646 30.1208C40.6646 27.6736 42.6586 25.6797 45.1057 25.6797C47.5528 25.6797 49.5468 27.6736 49.5468 30.1208C49.5468 32.5679 47.5528 34.5619 45.1057 34.5619Z" fill="#7AACDD"/>
<path d="M38.3988 43.7767C35.9517 43.7767 33.9577 41.7827 33.9577 39.3356C33.9577 36.8885 35.9517 34.8945 38.3988 34.8945C40.8459 34.8945 42.8399 36.8885 42.8399 39.3356C42.8399 41.7827 40.8459 43.7767 38.3988 43.7767Z" fill="#7AACDD"/>
<path d="M33.1722 53.9574C30.725 53.9574 28.7311 51.9634 28.7311 49.5163C28.7311 47.0692 30.725 45.0752 33.1722 45.0752C35.6193 45.0752 37.6133 47.0692 37.6133 49.5163C37.6133 51.9634 35.6193 53.9574 33.1722 53.9574Z" fill="#7AACDD"/>
<path d="M29.5468 65.015C27.0997 65.015 25.1057 63.021 25.1057 60.5739C25.1057 58.1268 27.0997 56.1328 29.5468 56.1328C31.9939 56.1328 33.9879 58.1268 33.9879 60.5739C33.9879 63.021 31.9939 65.015 29.5468 65.015Z" fill="#7AACDD"/>
<path d="M27.7039 76.7376C25.2568 76.7376 23.2628 74.7437 23.2628 72.2966C23.2628 69.8494 25.2568 67.8555 27.7039 67.8555C30.151 67.8555 32.145 69.8494 32.145 72.2966C32.145 74.7437 30.151 76.7376 27.7039 76.7376Z" fill="#7AACDD"/>
<path d="M163.202 76.7376C160.755 76.7376 158.761 74.7437 158.761 72.2966C158.761 69.8494 160.755 67.8555 163.202 67.8555C165.65 67.8555 167.643 69.8494 167.643 72.2966C167.643 74.7437 165.65 76.7376 163.202 76.7376Z" fill="#7AACDD"/>
<path d="M161.057 65.1966C158.61 65.1966 156.616 63.2027 156.616 60.7555C156.616 58.3084 158.61 56.3145 161.057 56.3145C163.504 56.3145 165.498 58.3084 165.498 60.7555C165.498 63.2027 163.504 65.1966 161.057 65.1966Z" fill="#7AACDD"/>
<path d="M156.888 54.5316C154.441 54.5316 152.447 52.5376 152.447 50.0905C152.447 47.6434 154.441 45.6494 156.888 45.6494C159.335 45.6494 161.329 47.6434 161.329 50.0905C161.329 52.5376 159.335 54.5316 156.888 54.5316Z" fill="#7AACDD"/>
<path d="M150.906 44.8939C148.459 44.8939 146.465 42.8999 146.465 40.4528C146.465 38.0057 148.459 36.0117 150.906 36.0117C153.353 36.0117 155.347 38.0057 155.347 40.4528C155.347 42.8999 153.353 44.8939 150.906 44.8939Z" fill="#7AACDD"/>
<path d="M143.323 36.556C140.876 36.556 138.882 34.562 138.882 32.1149C138.882 29.6678 140.876 27.6738 143.323 27.6738C145.77 27.6738 147.764 29.6678 147.764 32.1149C147.764 34.562 145.77 36.556 143.323 36.556Z" fill="#7AACDD"/>
<path d="M134.35 29.6976C131.903 29.6976 129.909 27.7036 129.909 25.2565C129.909 22.8094 131.903 20.8154 134.35 20.8154C136.798 20.8154 138.792 22.8094 138.792 25.2565C138.792 27.7036 136.798 29.6976 134.35 29.6976Z" fill="#7AACDD"/>
<path d="M124.23 24.5316C121.782 24.5316 119.789 22.5376 119.789 20.0905C119.789 17.6434 121.782 15.6494 124.23 15.6494C126.677 15.6494 128.671 17.6434 128.671 20.0905C128.671 22.5376 126.677 24.5316 124.23 24.5316Z" fill="#7AACDD"/>
<path d="M113.112 21.2689C110.665 21.2689 108.671 19.2749 108.671 16.8278C108.671 14.3807 110.665 12.3867 113.112 12.3867C115.559 12.3867 117.553 14.3807 117.553 16.8278C117.553 19.2749 115.559 21.2689 113.112 21.2689Z" fill="#7AACDD"/>
<path d="M101.239 20.1507C98.7915 20.1507 96.7975 18.1568 96.7975 15.7096C96.7975 13.2625 98.7915 11.2686 101.239 11.2686C103.686 11.2686 105.68 13.2625 105.68 15.7096C105.68 18.1568 103.686 20.1507 101.239 20.1507Z" fill="#7AACDD"/>
<path d="M89.3655 21.2689C86.9184 21.2689 84.9244 19.2749 84.9244 16.8278C84.9244 14.3807 86.9184 12.3867 89.3655 12.3867C91.8127 12.3867 93.8066 14.3807 93.8066 16.8278C93.8066 19.2749 91.8127 21.2689 89.3655 21.2689Z" fill="#7AACDD"/>
<path d="M78.2477 24.5316C75.8006 24.5316 73.8066 22.5376 73.8066 20.0905C73.8066 17.6434 75.8006 15.6494 78.2477 15.6494C80.6949 15.6494 82.6888 17.6434 82.6888 20.0905C82.6888 22.5376 80.6949 24.5316 78.2477 24.5316Z" fill="#7AACDD"/>
<path d="M68.0967 29.6976C65.6495 29.6976 63.6556 27.7036 63.6556 25.2565C63.6556 22.8094 65.6495 20.8154 68.0967 20.8154C70.5438 20.8154 72.5378 22.8094 72.5378 25.2565C72.5378 27.7036 70.5438 29.6976 68.0967 29.6976Z" fill="#7AACDD"/>
<path d="M59.154 36.556C56.7069 36.556 54.713 34.562 54.713 32.1149C54.713 29.6678 56.7069 27.6738 59.154 27.6738C61.6012 27.6738 63.5951 29.6678 63.5951 32.1149C63.5951 34.562 61.6012 36.556 59.154 36.556Z" fill="#7AACDD"/>
<path d="M51.571 44.8939C49.1238 44.8939 47.1299 42.8999 47.1299 40.4528C47.1299 38.0057 49.1238 36.0117 51.571 36.0117C54.0181 36.0117 56.0121 38.0057 56.0121 40.4528C56.0121 42.8999 54.0181 44.8939 51.571 44.8939Z" fill="#7AACDD"/>
<path d="M45.5891 54.5316C43.142 54.5316 41.148 52.5376 41.148 50.0905C41.148 47.6434 43.142 45.6494 45.5891 45.6494C48.0362 45.6494 50.0302 47.6434 50.0302 50.0905C50.0302 52.5376 48.0362 54.5316 45.5891 54.5316Z" fill="#7AACDD"/>
<path d="M41.4199 65.1966C38.9728 65.1966 36.9788 63.2027 36.9788 60.7555C36.9788 58.3084 38.9728 56.3145 41.4199 56.3145C43.867 56.3145 45.861 58.3084 45.861 60.7555C45.861 63.2027 43.867 65.1966 41.4199 65.1966Z" fill="#7AACDD"/>
<path d="M39.2749 76.7376C36.8278 76.7376 34.8338 74.7437 34.8338 72.2966C34.8338 69.8494 36.8278 67.8555 39.2749 67.8555C41.722 67.8555 43.716 69.8494 43.716 72.2966C43.716 74.7437 41.722 76.7376 39.2749 76.7376Z" fill="#7AACDD"/>
<path d="M0 115.649L3.32326 111.722C6.3142 114.32 9.36556 115.8 13.2326 115.8C16.6465 115.8 18.7915 114.169 18.7915 111.843V111.752C18.7915 109.516 17.5227 108.308 11.7221 106.948C5.04532 105.317 1.29909 103.353 1.29909 97.5827V97.4921C1.29909 92.1145 5.77039 88.3984 11.994 88.3984C16.5559 88.3984 20.1813 89.7882 23.3837 92.3259L20.423 96.4951C17.6133 94.3803 14.7734 93.2625 11.9033 93.2625C8.67069 93.2625 6.79758 94.9241 6.79758 96.9785V97.0691C6.79758 99.4861 8.21752 100.574 14.29 101.994C20.9063 103.625 24.3202 105.982 24.3202 111.178V111.269C24.3202 117.13 19.6979 120.634 13.1118 120.634C8.30816 120.634 3.77643 118.972 0.0302115 115.619" fill="#5A585C"/>
<path d="M30.9365 88.8818H54.1692V93.8063H36.435V101.963H52.145V106.888H36.435V115.317H54.4108V120.241H30.9365V88.8818Z" fill="#5A585C"/>
<path d="M61.0574 88.8818H66.1631L82.9607 110.543V88.8818H88.3686V120.241H83.7462L66.4652 97.9151V120.241H61.0574V88.8818Z" fill="#5A585C"/>
<path d="M108.822 88.6396H113.927L127.704 120.211H121.873L118.701 112.628H103.867L100.634 120.211H94.9849L108.792 88.6396H108.822ZM116.707 107.764L111.299 95.2258L105.921 107.764H116.707Z" fill="#5A585C"/>
<path d="M134.381 88.8818H146.073C155.921 88.8818 162.719 95.6492 162.719 104.471V104.562C162.719 113.383 155.921 120.241 146.073 120.241H134.381V88.8818ZM139.879 93.8969V115.226H146.073C152.659 115.226 156.949 110.785 156.949 104.652V104.562C156.949 98.4287 152.659 93.8969 146.073 93.8969H139.879Z" fill="#5A585C"/>
<path d="M169.366 104.652V104.561C169.366 95.7397 176.163 88.3379 185.801 88.3379C195.438 88.3379 202.145 95.6491 202.145 104.471V104.561C202.145 113.383 195.347 120.785 185.71 120.785C176.072 120.785 169.366 113.474 169.366 104.652ZM196.375 104.652V104.561C196.375 98.4587 191.934 93.4134 185.71 93.4134C179.486 93.4134 175.136 98.3983 175.136 104.471V104.561C175.136 110.634 179.577 115.649 185.801 115.649C192.024 115.649 196.375 110.725 196.375 104.652Z" fill="#5A585C"/>
<path d="M30.6948 132.538H33.4743L40.9667 149.728H37.7945L36.0725 145.62H28.006L26.2537 149.728H23.1722L30.6646 132.538H30.6948ZM34.9849 142.931L32.0241 136.103L29.0936 142.931H34.9849Z" fill="#5A585C"/>
<path d="M44.3806 132.658H51.9939C54.1389 132.658 55.8308 133.293 56.9184 134.35C57.8247 135.287 58.3383 136.555 58.3383 138.036V138.096C58.3383 140.906 56.6465 142.568 54.29 143.262L58.8821 149.728H55.3172L51.1178 143.776H47.3716V149.728H44.3806V132.658ZM51.7522 141.117C53.8972 141.117 55.2568 140 55.2568 138.278V138.217C55.2568 136.404 53.9274 135.377 51.722 135.377H47.3716V141.087H51.7522V141.117Z" fill="#5A585C"/>
<path d="M61.722 141.239C61.722 136.405 65.3776 132.356 70.5136 132.356C73.4743 132.356 75.3172 133.172 77.0695 134.683L75.1662 136.949C73.8368 135.831 72.568 135.136 70.3927 135.136C67.2507 135.136 64.864 137.885 64.864 141.148V141.208C64.864 144.713 67.1903 147.281 70.6646 147.281C72.2658 147.281 73.7462 146.767 74.7734 145.982V142.81H70.4229V140.211H77.6737V147.372C75.9819 148.822 73.5649 150.03 70.5438 150.03C65.1964 150.03 61.6918 146.224 61.6918 141.269" fill="#5A585C"/>
<path d="M82.0242 132.658H94.6828V135.317H85.0453V139.758H93.5952V142.447H85.0453V147.039H94.8036V149.697H82.0242V132.658Z" fill="#5A585C"/>
<path d="M98.8217 132.658H101.601L110.755 144.441V132.658H113.686V149.697H111.178L101.782 137.583V149.697H98.8217V132.658Z" fill="#5A585C"/>
<path d="M122.749 135.438H117.341V132.658H131.178V135.438H125.77V149.697H122.749V135.438Z" fill="#5A585C"/>
<path d="M137.976 132.658H134.985V149.728H137.976V132.658Z" fill="#5A585C"/>
<path d="M142.991 132.658H145.77L154.894 144.441V132.658H157.855V149.697H155.347L145.952 137.583V149.697H142.991V132.658Z" fill="#5A585C"/>
<path d="M168.761 132.538H171.541L179.033 149.728H175.861L174.139 145.62H166.072L164.32 149.728H161.239L168.731 132.538H168.761ZM173.051 142.931L170.091 136.103L167.16 142.931H173.021H173.051Z" fill="#5A585C"/>
</g>
<defs>
<clipPath id="clip0_319_3258">
<rect width="202.175" height="150" fill="white"/>
</clipPath>
</defs>
</svg>
