<svg width="51" height="50" viewBox="0 0 51 50" fill="none" xmlns="http://www.w3.org/2000/svg">
<path d="M45.7292 18.1458C48.3333 15.5417 47.1458 12.5 45.7292 11.0208L39.4792 4.77083C36.8542 2.16666 33.8333 3.35416 32.3542 4.77083L28.8125 8.33333H23.4167C19.4583 8.33333 17.1667 10.4167 16 12.8125L6.74999 22.0625V30.3958L5.27083 31.8542C2.66666 34.4792 3.85416 37.5 5.27083 38.9792L11.5208 45.2292C12.6458 46.3542 13.8542 46.7708 15 46.7708C16.4792 46.7708 17.8333 46.0417 18.6458 45.2292L24.2708 39.5833H31.75C35.2917 39.5833 37.0833 37.375 37.7292 35.2083C40.0833 34.5833 41.375 32.7917 41.8958 31.0417C45.125 30.2083 46.3333 27.1458 46.3333 25V18.75H45.1042L45.7292 18.1458ZM42.1667 25C42.1667 25.9375 41.7708 27.0833 40.0833 27.0833H38V29.1667C38 30.1042 37.6042 31.25 35.9167 31.25H33.8333V33.3333C33.8333 34.2708 33.4375 35.4167 31.75 35.4167H22.5625L15.7292 42.25C15.0833 42.8542 14.7083 42.5 14.4792 42.2708L8.24999 36.0625C7.64583 35.4167 7.99999 35.0417 8.22916 34.8125L10.9167 32.1042V23.7708L15.0833 19.6042V22.9167C15.0833 25.4375 16.75 29.1667 21.3333 29.1667C25.9167 29.1667 27.5833 25.4375 27.5833 22.9167H42.1667V25ZM42.7708 15.1875L39.2292 18.75H23.4167V22.9167C23.4167 23.8542 23.0208 25 21.3333 25C19.6458 25 19.25 23.8542 19.25 22.9167V16.6667C19.25 15.7083 19.6042 12.5 23.4167 12.5H30.5208L35.2708 7.74999C35.9167 7.14583 36.2917 7.49999 36.5208 7.72916L42.75 13.9375C43.3542 14.5833 43 14.9583 42.7708 15.1875Z" fill="#01A19A"/>
</svg>
