<svg width="51" height="50" viewBox="0 0 51 50" fill="none" xmlns="http://www.w3.org/2000/svg">
<path d="M5.64936 15.5276C6.81662 4.22575 16.1583 3.13659 22.517 7.05985C24.5165 8.29474 26.4799 8.29474 28.483 7.05985C34.8417 3.13659 44.1834 4.22575 45.3506 15.5276C46.5215 26.864 40.5231 38.8601 37.3095 43.4545C36.5782 44.5014 35.4001 45 34.1752 45C33.1964 45 32.2414 44.6784 31.4406 44.0793C30.6398 43.4801 30.0322 42.6324 29.7007 41.652L28.5659 38.3002C28.3378 37.6294 27.9212 37.0496 27.3726 36.6399C26.824 36.2302 26.1701 36.0104 25.5 36.0104C24.8299 36.0104 24.176 36.2302 23.6274 36.6399C23.0788 37.0496 22.6622 37.6294 22.4341 38.3002L21.2993 41.652C20.9678 42.6324 20.3602 43.4801 19.5594 44.0793C18.7586 44.6784 17.8036 45 16.8248 45C15.5999 45 14.4182 44.5014 13.6905 43.4545C10.4769 38.8601 4.47849 26.864 5.64936 15.5276Z" stroke="#01A19A" stroke-width="3" stroke-linecap="round" stroke-linejoin="round"/>
<path d="M30.1507 16.0952C26.3319 17.5755 24.2784 17.5449 20.8486 16.0952" stroke="#01A19A" stroke-width="3" stroke-linecap="round" stroke-linejoin="round"/>
</svg>

