<svg width="51" height="50" viewBox="0 0 51 50" fill="none" xmlns="http://www.w3.org/2000/svg">
<path d="M26.9625 4.57296L41.5458 10.0417C42.3402 10.3395 43.0248 10.8727 43.508 11.57C43.9912 12.2672 44.2501 13.0954 44.25 13.9438V25.1167C44.2501 28.5989 43.2805 32.0122 41.4499 34.9743C39.6192 37.9364 36.9999 40.3303 33.8854 41.8876L26.8979 45.3813C26.4639 45.5984 25.9853 45.7114 25.5 45.7114C25.0147 45.7114 24.5361 45.5984 24.1021 45.3813L17.1146 41.8876C14.0001 40.3303 11.3808 37.9364 9.55014 34.9743C7.71952 32.0122 6.74992 28.5989 6.75 25.1167V13.9438C6.74989 13.0954 7.00876 12.2672 7.49199 11.57C7.97521 10.8727 8.65978 10.3395 9.45417 10.0417L24.0375 4.57296C24.9805 4.21949 26.0195 4.21949 26.9625 4.57296ZM25.5 8.47505L10.9167 13.9438V25.1167C10.9171 27.8248 11.6717 30.4792 13.0957 32.7826C14.5197 35.0861 16.5569 36.9475 18.9792 38.1584L25.5 41.423L32.0208 38.1626C34.4437 36.9513 36.4814 35.0893 37.9054 32.785C39.3295 30.4808 40.0836 27.8255 40.0833 25.1167V13.9438L25.5 8.47505ZM25.5 16.6667C26.0525 16.6667 26.5824 16.8862 26.9731 17.2769C27.3638 17.6676 27.5833 18.1975 27.5833 18.75V22.9167H31.75C32.3025 22.9167 32.8324 23.1362 33.2231 23.5269C33.6138 23.9176 33.8333 24.4475 33.8333 25C33.8333 25.5526 33.6138 26.0825 33.2231 26.4732C32.8324 26.8639 32.3025 27.0834 31.75 27.0834H27.5833V31.25C27.5833 31.8026 27.3638 32.3325 26.9731 32.7232C26.5824 33.1139 26.0525 33.3334 25.5 33.3334C24.9475 33.3334 24.4176 33.1139 24.0269 32.7232C23.6362 32.3325 23.4167 31.8026 23.4167 31.25V27.0834H19.25C18.6975 27.0834 18.1676 26.8639 17.7769 26.4732C17.3862 26.0825 17.1667 25.5526 17.1667 25C17.1667 24.4475 17.3862 23.9176 17.7769 23.5269C18.1676 23.1362 18.6975 22.9167 19.25 22.9167H23.4167V18.75C23.4167 18.1975 23.6362 17.6676 24.0269 17.2769C24.4176 16.8862 24.9475 16.6667 25.5 16.6667Z" fill="#01A19A"/>
</svg>
