<svg width="50" height="50" viewBox="0 0 50 50" fill="none" xmlns="http://www.w3.org/2000/svg">
<path d="M19.25 32V31.0434C22.0224 30.5254 24.5336 29.066 26.3567 26.9085C28.2254 24.697 29.2504 21.8952 29.25 19C29.25 19 29.25 19 29.25 19V9C29.25 7.87283 28.8022 6.79183 28.0052 5.9948C27.2082 5.19777 26.1272 4.75 25 4.75H23C22.4033 4.75 21.831 4.98705 21.409 5.40901C20.9871 5.83097 20.75 6.40326 20.75 7C20.75 7.59674 20.9871 8.16903 21.409 8.59099C21.831 9.01295 22.4033 9.25 23 9.25H24.75V19C24.75 21.0554 23.9335 23.0267 22.4801 24.4801C21.0267 25.9335 19.0554 26.75 17 26.75C14.9446 26.75 12.9733 25.9335 11.5199 24.4801C10.0665 23.0267 9.25 21.0554 9.25 19V9.25H11C11.5967 9.25 12.169 9.01295 12.591 8.59099C13.0129 8.16903 13.25 7.59674 13.25 7C13.25 6.40326 13.0129 5.83097 12.591 5.40901C12.169 4.98705 11.5967 4.75 11 4.75H9C7.87283 4.75 6.79183 5.19777 5.9948 5.9948C5.19777 6.79183 4.75 7.87283 4.75 9L4.75 19C4.75 19 4.75 19 4.75 19C4.74957 21.8952 5.77461 24.697 7.6433 26.9085C9.46644 29.066 11.9776 30.5254 14.75 31.0434V32C14.75 35.5141 16.146 38.8843 18.6308 41.3692C21.1157 43.854 24.4859 45.25 28 45.25C31.5141 45.25 34.8843 43.854 37.3692 41.3692C39.854 38.8843 41.25 35.5141 41.25 32V28.8341C42.5675 28.326 43.676 27.3858 44.3923 26.1649C45.1387 24.8928 45.4113 23.3978 45.162 21.9442C44.9127 20.4905 44.1575 19.1718 43.0299 18.2211C41.9023 17.2704 40.4749 16.749 39 16.749C37.5251 16.749 36.0977 17.2704 34.9701 18.2211C33.8425 19.1718 33.0873 20.4905 32.838 21.9442C32.5887 23.3978 32.8613 24.8928 33.6077 26.1649C34.324 27.3858 35.4325 28.326 36.75 28.8341V32C36.75 34.3206 35.8281 36.5462 34.1872 38.1872C32.5462 39.8281 30.3206 40.75 28 40.75C25.6794 40.75 23.4538 39.8281 21.8128 38.1872C20.1719 36.5462 19.25 34.3206 19.25 32ZM40.2374 24.2374C39.9092 24.5656 39.4641 24.75 39 24.75C38.5359 24.75 38.0907 24.5656 37.7626 24.2374C37.4344 23.9092 37.25 23.4641 37.25 23C37.25 22.5359 37.4344 22.0908 37.7626 21.7626C38.0907 21.4344 38.5359 21.25 39 21.25C39.4641 21.25 39.9092 21.4344 40.2374 21.7626C40.5656 22.0908 40.75 22.5359 40.75 23C40.75 23.4641 40.5656 23.9092 40.2374 24.2374Z" fill="currentColor" stroke="currentColor" stroke-width="0.5"/>
</svg>
