<svg width="50" height="50" viewBox="0 0 50 50" fill="none" xmlns="http://www.w3.org/2000/svg">
<path d="M33.1667 6.08333C33.1667 5.5308 32.9472 5.00089 32.5565 4.61019C32.1658 4.21949 31.6359 4 31.0833 4H18.5833C18.0308 4 17.5009 4.21949 17.1102 4.61019C16.7195 5.00089 16.5 5.5308 16.5 6.08333V16.5H6.08333C5.5308 16.5 5.00089 16.7195 4.61019 17.1102C4.21949 17.5009 4 18.0308 4 18.5833V31.0833C4 31.6359 4.21949 32.1658 4.61019 32.5565C5.00089 32.9472 5.5308 33.1667 6.08333 33.1667H16.5V43.5833C16.5 44.1359 16.7195 44.6658 17.1102 45.0565C17.5009 45.4472 18.0308 45.6667 18.5833 45.6667H31.0833C31.6359 45.6667 32.1658 45.4472 32.5565 45.0565C32.9472 44.6658 33.1667 44.1359 33.1667 43.5833V33.1667H43.5833C44.1359 33.1667 44.6658 32.9472 45.0565 32.5565C45.4472 32.1658 45.6667 31.6359 45.6667 31.0833V18.5833C45.6667 18.0308 45.4472 17.5009 45.0565 17.1102C44.6658 16.7195 44.1359 16.5 43.5833 16.5H33.1667V6.08333Z" fill="currentColor" stroke="currentColor" stroke-width="3" stroke-linecap="round" stroke-linejoin="round"/>
</svg>
