<svg width="50" height="50" viewBox="0 0 50 50" fill="none" xmlns="http://www.w3.org/2000/svg">
<path d="M35.2207 6C36.7855 6 38.2534 6.29081 39.6244 6.87243C40.9954 7.45406 42.1863 8.25725 43.1972 9.28201C44.2081 10.3068 45.0113 11.5046 45.6068 12.8756C46.2023 14.2466 46.5 15.7145 46.5 17.2793C46.5 18.0825 46.4169 18.8788 46.2507 19.6681C46.0846 20.4575 45.8353 21.2191 45.5029 21.9531H35.8854L31.8971 17.7986L25.25 24.4457L15.944 15.1398L9.29692 21.9531H4.99707C4.66471 21.2191 4.41544 20.4575 4.24927 19.6681C4.08309 18.8788 4 18.0825 4 17.2793C4 15.7145 4.29081 14.2466 4.87243 12.8756C5.45406 11.5046 6.25725 10.3137 7.28201 9.30279C8.30678 8.29187 9.50464 7.48868 10.8756 6.89321C12.2466 6.29774 13.7145 6 15.2793 6C16.7888 6 18.229 6.28389 19.6 6.85166C20.9709 7.41944 22.1965 8.23648 23.2766 9.30279L25.25 11.2969L27.2234 9.30279C28.2897 8.23648 29.5083 7.41944 30.8793 6.85166C32.2502 6.28389 33.6974 6 35.2207 6ZM33.2265 24.6119H43.8204L43.5296 24.9443C43.4326 25.0551 43.3288 25.1728 43.218 25.2974L25.25 43.2446L7.28201 25.2974C7.17123 25.1866 7.06737 25.0758 6.97043 24.9651C6.87349 24.8543 6.77656 24.7366 6.67962 24.6119H11.9558L15.944 20.7898L25.25 30.0958L31.8971 23.4487L33.2265 24.6119Z" fill="currentColor"/>
</svg>
