<svg width="50" height="50" viewBox="0 0 50 50" fill="none" xmlns="http://www.w3.org/2000/svg">
<path d="M25.0089 41.4312C39.7821 41.4312 50 29.4795 50 25.7536C50 22.0098 39.7634 10.0768 25.0089 10.0768C10.3464 10.0768 0 22.0098 0 25.7536C0 29.4795 10.4205 41.4312 25.0089 41.4312ZM25.0089 36.0268C19.2545 36.0268 14.7179 31.3607 14.6813 25.7536C14.6625 20 19.2545 15.4821 25.0089 15.4821C30.7268 15.4821 35.3187 20 35.3187 25.7545C35.3187 31.3616 30.7268 36.0277 25.0089 36.0277M25.0089 29.4616C27.0562 29.4616 28.7536 27.783 28.7536 25.7545C28.7536 23.7071 27.0571 22.0295 25.0089 22.0295C22.9438 22.0295 21.2464 23.708 21.2464 25.7545C21.2464 27.7839 22.9429 29.4616 25.0089 29.4616Z" fill="currentColor"/>
</svg>
