<svg width="50" height="50" viewBox="0 0 50 50" fill="none" xmlns="http://www.w3.org/2000/svg">
<path d="M22.9169 4.16663C26.9641 4.166 30.8733 5.6381 33.9149 8.30816C36.9564 10.9782 38.9224 14.6638 39.446 18.677L44.1335 26.05C44.4419 26.5354 44.3794 27.2583 43.6648 27.5666L39.5835 29.3125V35.4166C39.5835 36.5217 39.1446 37.5815 38.3632 38.3629C37.5818 39.1443 36.522 39.5833 35.4169 39.5833H31.2523L31.2502 45.8333H12.5002V38.1375C12.5002 35.6791 11.5919 33.352 9.90647 31.252C7.94335 28.8009 6.71267 25.845 6.35624 22.725C5.99981 19.6049 6.53213 16.4476 7.89186 13.6169C9.2516 10.7861 11.3834 8.39716 14.0417 6.7252C16.7 5.05323 19.7765 4.16631 22.9169 4.16663ZM21.8127 16.1729C21.1252 15.5086 20.2044 15.141 19.2484 15.1491C18.2925 15.1572 17.378 15.5404 16.7019 16.2163C16.0258 16.8921 15.6422 17.8064 15.6337 18.7624C15.6252 19.7183 15.9925 20.6393 16.6565 21.327L22.9169 27.5895L29.1773 21.327C29.5254 20.9907 29.8031 20.5883 29.9941 20.1435C30.1851 19.6986 30.2856 19.2202 30.2897 18.7361C30.2938 18.252 30.2014 17.7719 30.018 17.3239C29.8346 16.8759 29.5638 16.4689 29.2214 16.1266C28.879 15.7844 28.4719 15.5138 28.0238 15.3305C27.5757 15.1473 27.0956 15.0552 26.6115 15.0595C26.1275 15.0638 25.6491 15.1644 25.2043 15.3556C24.7595 15.5468 24.3573 15.8246 24.021 16.1729L22.9169 17.277L21.8127 16.1729Z" fill="currentColor"/>
</svg>
