<svg width="50" height="50" viewBox="0 0 50 50" fill="none" xmlns="http://www.w3.org/2000/svg">
    <g clip-path="url(#clip0_3258_4882)">
    <path fill-rule="evenodd" clip-rule="evenodd" d="M19.6857 13.9894C20.6175 14.0104 21.5442 13.8451 22.4113 13.503C23.2783 13.161 24.0683 12.6491 24.7348 11.9975C25.4013 11.3459 25.9308 10.5677 26.2924 9.7086C26.6539 8.8495 26.8402 7.92681 26.8402 6.99472C26.8402 6.06263 26.6539 5.13994 26.2924 4.28083C25.9308 3.42173 25.4013 2.64352 24.7348 1.99193C24.0683 1.34033 23.2783 0.828474 22.4113 0.486423C21.5442 0.144371 20.6175 -0.0209809 19.6857 7.6852e-05C17.858 0.0413795 16.119 0.796451 14.841 2.1037C13.5629 3.41095 12.8473 5.16652 12.8473 6.99472C12.8473 8.82291 13.5629 10.5785 14.841 11.8857C16.119 13.193 17.858 13.9481 19.6857 13.9894ZM34.3571 33.1108C34.3267 32.7397 34.4312 32.3702 34.6514 32.0699C34.8715 31.7697 35.1926 31.559 35.5557 31.4765C35.9187 31.394 36.2993 31.4452 36.6276 31.6208C36.9559 31.7964 37.2099 32.0845 37.3428 32.4322L42.3821 45.9108C42.6312 46.5762 43.1345 47.1154 43.7811 47.4098C44.4278 47.7041 45.1649 47.7295 45.8303 47.4804C46.4957 47.2313 47.0349 46.7281 47.3293 46.0814C47.6237 45.4347 47.6491 44.6976 47.4 44.0322L42.3571 30.5572C41.7698 28.9963 40.6373 27.7008 39.1689 26.9101C37.7005 26.1194 35.9955 25.887 34.369 26.2558C32.7426 26.6247 31.3046 27.5698 30.321 28.9166C29.3373 30.2633 28.8744 31.9207 29.0178 33.5822L29.2178 35.8715C29.2923 36.5692 29.6376 37.2098 30.1794 37.6556C30.7212 38.1014 31.4163 38.3168 32.1152 38.2555C32.8142 38.1942 33.4612 37.8611 33.9172 37.3278C34.3731 36.7945 34.6016 36.1036 34.5535 35.4036L34.3571 33.1108ZM14.8857 16.2536C15.4735 16.1079 16.0887 16.1141 16.6735 16.2715C17.2582 16.429 17.7933 16.7325 18.2285 17.1536C20.6714 19.5144 23.3821 21.2965 27.7214 20.8394C28.1881 20.7901 28.6599 20.8333 29.1098 20.9664C29.5598 21.0994 29.9792 21.3199 30.344 21.615C30.7088 21.9102 31.0119 22.2743 31.236 22.6866C31.46 23.0989 31.6007 23.5513 31.65 24.0179C31.6992 24.4846 31.6561 24.9564 31.523 25.4064C31.3899 25.8564 31.1695 26.2757 30.8743 26.6405C30.5792 27.0053 30.215 27.3084 29.8027 27.5325C29.3905 27.7566 28.9381 27.8973 28.4714 27.9465C23.9143 28.4215 20.3678 27.3072 17.5678 25.6465L16.975 27.4644L22.4035 31.3715C23.7906 32.3696 24.7739 33.8318 25.175 35.4929L27.2607 44.1322C27.3709 44.5881 27.3902 45.0612 27.3176 45.5246C27.245 45.9879 27.0818 46.4324 26.8374 46.8327C26.593 47.233 26.2721 47.5812 25.8931 47.8575C25.5141 48.1338 25.0844 48.3327 24.6285 48.4429C24.1727 48.5531 23.6995 48.5725 23.2362 48.4999C22.7728 48.4272 22.3283 48.2641 21.9281 48.0196C21.5278 47.7752 21.1795 47.4544 20.9033 47.0754C20.627 46.6964 20.428 46.2667 20.3178 45.8108L18.2321 37.1679L14.6428 34.5894L10.8928 46.0786C10.7474 46.5247 10.5156 46.9377 10.2106 47.2941C9.90559 47.6506 9.53336 47.9434 9.11517 48.156C8.27058 48.5853 7.29005 48.6616 6.38926 48.3679C5.48847 48.0743 4.74122 47.4349 4.31189 46.5903C3.88257 45.7457 3.80634 44.7651 4.09997 43.8644L12.35 18.6108C12.5381 18.0351 12.8695 17.5168 13.3131 17.1044C13.7567 16.6921 14.2978 16.3993 14.8857 16.2536Z" fill="#FFFBFB"/>
    </g>
    <defs>
    <clipPath id="clip0_3258_4882">
    <rect width="50" height="50" fill="white"/>
    </clipPath>
    </defs>
</svg> 