                    <svg width="50" height="50" viewBox="0 0 50 50" fill="none" xmlns="http://www.w3.org/2000/svg">
                        <path d="M22.258 24.8349C22.4736 25.7882 22.7512 26.7027 23.1683 27.3959C23.1375 27.3697 23.1077 27.3421 23.0788 27.3132C22.9259 27.1603 22.7778 26.918 22.6406 26.5737C22.5048 26.2331 22.3907 25.821 22.2901 25.3542C22.1386 24.6511 22.0261 23.8672 21.9107 23.0641C21.891 22.9267 21.8712 22.7887 21.8511 22.6505C21.973 23.4058 22.1033 24.1506 22.258 24.8349ZM21.6508 21.3771C21.5175 20.6225 21.3535 19.9031 21.1191 19.3203C20.8039 18.5366 20.2697 17.7888 19.3216 17.7886C18.0246 17.7884 16.7402 18.0437 15.5418 18.5398C14.3435 19.0359 13.2546 19.7633 12.3373 20.6802C11.42 21.5972 10.6923 22.6859 10.1958 23.8841C9.69925 25.0823 9.44358 26.3665 9.44336 27.6635C9.44314 28.9605 9.69839 30.2449 10.1945 31.4433C10.6907 32.6416 11.418 33.7305 12.335 34.6478C13.2519 35.5651 14.3406 36.2928 15.5388 36.7893C16.737 37.2858 18.0213 37.5415 19.3183 37.5417C21.9377 37.5422 24.45 36.502 26.3025 34.6501C26.444 34.5087 26.5814 34.3732 26.7142 34.2422C27.3773 33.5881 27.927 33.0459 28.3079 32.4365C28.7911 31.6635 28.9998 30.8024 29 29.5001C29 29.2031 28.9527 28.9306 28.8442 28.6918C29.1853 28.6393 29.4957 28.5974 29.7757 28.5802C30.096 28.5605 30.3418 28.5759 30.5242 28.6264C30.695 28.6738 30.7931 28.7463 30.8585 28.8439C30.9304 28.9512 31 29.1452 31 29.5C31 31.1035 30.7593 32.1836 30.264 33.1363C29.7604 34.1051 28.9755 34.9802 27.8036 36.152C25.5532 38.4025 22.501 39.6667 19.3184 39.6667C16.1358 39.6667 13.0835 38.4025 10.8331 36.152C8.58264 33.9016 7.31836 30.8493 7.31836 27.6667C7.31836 24.4841 8.58264 21.4319 10.8331 19.1815C13.0835 16.931 16.1358 15.6667 19.3184 15.6667C19.8241 15.6667 20.263 16.0344 20.6571 16.9822C21.0429 17.9099 21.2976 19.1977 21.5299 20.6183C21.5707 20.8679 21.6108 21.1215 21.6508 21.3771Z" fill="white" stroke="#FFFDFD"/>
                        <path d="M42.9966 33.9412L40.3924 35.2329L34.5591 27.4621H24.9966L24.5799 23.2954H31.4341V19.1287H24.1424L23.5174 12.8787C25.6216 12.6287 27.2674 10.8787 27.2674 8.71208C27.2674 7.60701 26.8284 6.5472 26.047 5.7658C25.2656 4.9844 24.2058 4.54541 23.1008 4.54541C21.9957 4.54541 20.9359 4.9844 20.1545 5.7658C19.3731 6.5472 18.9341 7.60701 18.9341 8.71208V8.92041L21.2258 31.6287H32.4758L39.1424 40.5246L44.8716 37.6704L42.9966 33.9412Z" fill="white"/>
                    </svg> 