<svg width="50" height="50" viewBox="0 0 50 50" fill="none" xmlns="http://www.w3.org/2000/svg">
    <path d="M41.5083 20.2604L41.613 20.6612C42.2763 23.2004 42.3486 25.8578 41.8244 28.4293C41.3002 31.0008 40.1933 33.4178 38.5889 35.4947C36.9846 37.5715 34.9254 39.2529 32.5696 40.4096C30.214 41.5662 27.6245 42.1673 25.0002 42.1668L41.5083 20.2604ZM41.5083 20.2604L41.095 20.2888M41.5083 20.2604L41.095 20.2888M41.095 20.2888C37.5386 20.5328 33.9804 19.8394 30.7758 18.278C27.5712 16.7165 24.8323 14.3416 22.8328 11.3905L22.4894 10.8837M41.095 20.2888L22.4894 10.8837M22.4894 10.8837L22.0614 11.3213M22.4894 10.8837L22.0614 11.3213M22.0614 11.3213C20.5627 12.8535 18.7737 14.0715 16.7988 14.9042C14.824 15.7369 12.7029 16.1675 10.5597 16.1709L10.2715 16.1714M22.0614 11.3213L10.2715 16.1714M10.2715 16.1714L10.1274 16.4211M10.2715 16.1714L10.1274 16.4211M10.1274 16.4211C8.62154 19.0311 7.82919 21.9914 7.82999 25.0047M10.1274 16.4211L7.82999 25.0047M7.82999 25.0047C7.8308 28.018 8.62474 30.9779 10.132 33.5871M7.82999 25.0047L10.132 33.5871M10.132 33.5871C11.6393 36.1963 13.8068 38.3628 16.4167 39.8688M10.132 33.5871L16.4167 39.8688M16.4167 39.8688C19.0265 41.3748 21.9868 42.1674 25 42.1668L16.4167 39.8688ZM25.0002 41.1668H25C22.1623 41.1674 19.3744 40.421 16.9165 39.0027C14.4586 37.5844 12.4174 35.5441 10.9979 33.0869C9.57844 30.6297 8.83075 27.8422 8.82999 25.0044C8.82926 22.2614 9.52646 19.5649 10.8539 17.168C13.0303 17.1273 15.1799 16.672 17.1874 15.8256C19.0998 15.0193 20.8481 13.8726 22.3482 12.4431C24.4115 15.3115 27.1558 17.6265 30.3378 19.1769C33.5736 20.7536 37.1531 21.4866 40.7439 21.3111C41.276 23.5814 41.311 25.9416 40.8446 28.2296C40.3508 30.6512 39.3085 32.9275 37.7976 34.8834C36.2867 36.8392 34.3474 38.4226 32.1289 39.5119C29.9104 40.6012 27.4717 41.1673 25.0002 41.1668ZM24.9563 8.83344H25.0501V7.83344H24.9563V8.83344ZM25.0501 4.66677L25.0508 4.66677C25.4505 4.66617 25.8513 4.67735 26.2508 4.7003L26.6029 4.72776C37.0822 5.54512 45.3334 14.3091 45.3334 25.0001C45.3334 36.2302 36.2302 45.3334 25.0001 45.3334C13.77 45.3334 4.66675 36.2302 4.66675 25.0001C4.66675 13.77 13.77 4.66677 25.0001 4.66677L25.0501 4.66677Z" fill="white" stroke="black"/>
    <path d="M20.8334 25.0001C20.8334 25.5526 20.6139 26.0825 20.2232 26.4732C19.8325 26.8639 19.3026 27.0834 18.7501 27.0834C18.1975 27.0834 17.6676 26.8639 17.2769 26.4732C16.8862 26.0825 16.6667 25.5526 16.6667 25.0001C16.6667 24.4475 16.8862 23.9176 17.2769 23.5269C17.6676 23.1362 18.1975 22.9167 18.7501 22.9167C19.3026 22.9167 19.8325 23.1362 20.2232 23.5269C20.6139 23.9176 20.8334 24.4475 20.8334 25.0001ZM31.2501 27.0834C31.8026 27.0834 32.3325 26.8639 32.7232 26.4732C33.1139 26.0825 33.3334 25.5526 33.3334 25.0001C33.3334 24.4475 33.1139 23.9176 32.7232 23.5269C32.3325 23.1362 31.8026 22.9167 31.2501 22.9167C30.6975 22.9167 30.1676 23.1362 29.7769 23.5269C29.3862 23.9176 29.1667 24.4475 29.1667 25.0001C29.1667 25.5526 29.3862 26.0825 29.7769 26.4732C30.1676 26.8639 30.6975 27.0834 31.2501 27.0834Z" fill="black"/>
</svg>   