<svg width="50" height="50" viewBox="0 0 50 50" fill="none" xmlns="http://www.w3.org/2000/svg">
    <path d="M25.0001 4.16675C26.6577 4.16675 28.2474 4.82523 29.4195 5.99733C30.5916 7.16943 31.2501 8.75915 31.2501 10.4167C31.2501 12.0744 30.5916 13.6641 29.4195 14.8362C28.2474 16.0083 26.6577 16.6667 25.0001 16.6667C23.3425 16.6667 21.7528 16.0083 20.5807 14.8362C19.4086 13.6641 18.7501 12.0744 18.7501 10.4167C18.7501 8.75915 19.4086 7.16943 20.5807 5.99733C21.7528 4.82523 23.3425 4.16675 25.0001 4.16675ZM41.6668 37.5001L37.5001 26.1668C36.771 24.1043 36.1251 22.3126 33.3335 20.8334C30.4585 19.3751 28.3751 18.7501 25.0001 18.7501C21.6043 18.7501 19.5418 19.3751 16.6668 20.8334C13.8751 22.3126 13.2293 24.1043 12.5001 26.1668L8.33345 37.5001C7.66679 40.3126 13.2501 42.5834 16.896 44.1459V39.5834C16.896 37.6043 18.6876 36.2084 22.271 35.3542C22.6043 35.2709 22.9168 35.2292 23.1668 35.1876C22.0418 33.4792 21.5835 31.9584 21.5418 31.8334L25.2293 30.5834C25.2501 30.6251 26.3126 33.8959 28.8335 35.5417C29.271 35.6876 29.7085 35.8542 30.1251 36.0417C31.7293 36.7501 32.6876 37.6668 33.0001 38.7709C30.2085 39.8751 27.5418 40.4376 25.0001 40.4376L22.9168 40.2292V45.7084L25.0001 45.8334C27.8543 45.8334 30.5626 45.2501 33.1043 44.1459C36.7501 42.5834 42.1876 39.8543 41.6668 37.5001ZM32.2918 35.4168C31.463 35.4168 30.6681 35.0875 30.0821 34.5015C29.496 33.9154 29.1668 33.1206 29.1668 32.2918C29.1668 31.4629 29.496 30.6681 30.0821 30.082C30.6681 29.496 31.463 29.1667 32.2918 29.1667C33.1206 29.1667 33.9154 29.496 34.5015 30.082C35.0875 30.6681 35.4168 31.4629 35.4168 32.2918C35.4168 33.1206 35.0875 33.9154 34.5015 34.5015C33.9154 35.0875 33.1206 35.4168 32.2918 35.4168Z" fill="white"/>
</svg>  