<svg width="50" height="50" viewBox="0 0 50 50" fill="none" xmlns="http://www.w3.org/2000/svg">
<path d="M45.5549 16.8337L34.1665 5.44534C34.0254 5.30416 33.858 5.19216 33.6736 5.11575C33.4893 5.03933 33.2917 5 33.0922 5C32.8926 5 32.695 5.03933 32.5107 5.11575C32.3263 5.19216 32.1589 5.30416 32.0179 5.44534L7.48913 29.9741C5.89537 31.5678 5 33.7294 5 35.9833C5 38.2373 5.89537 40.3989 7.48913 41.9926C9.08289 43.5864 11.2445 44.4818 13.4984 44.4818C15.7523 44.4818 17.9139 43.5864 19.5077 41.9926L40.7452 20.7552L44.9608 19.3506C45.2065 19.2689 45.4272 19.1256 45.602 18.9346C45.7768 18.7435 45.8998 18.5109 45.9593 18.2588C46.0189 18.0068 46.013 17.7437 45.9422 17.4946C45.8714 17.2455 45.7381 17.0187 45.5549 16.8356V16.8337ZM17.3591 39.844C16.3288 40.8369 14.95 41.3858 13.5193 41.3726C12.0885 41.3594 10.7201 40.7852 9.70832 39.7734C8.69657 38.7617 8.12233 37.3933 8.10913 35.9625C8.09594 34.5317 8.64483 33.1529 9.63774 32.1227L15.1042 26.6562C16.7118 26.1058 19.2325 25.897 22.5199 27.6053C24.5319 28.6568 26.3502 29.1237 27.9408 29.2623L17.3591 39.844ZM39.445 17.9859C39.2212 18.0602 39.0178 18.1856 38.8509 18.3522L31.3402 25.8629C29.7326 26.4133 27.2119 26.6221 23.9245 24.9138C21.9125 23.8623 20.0942 23.3954 18.5036 23.2568L33.0922 8.66636L41.6695 17.2437L39.445 17.9859Z" fill="currentColor"/>
</svg>
