<svg width="50" height="50" viewBox="0 0 50 50" fill="none" xmlns="http://www.w3.org/2000/svg">
<path fill-rule="evenodd" clip-rule="evenodd" d="M24.8556 16.67H27.7778C28.0725 16.67 28.3551 16.553 28.5635 16.3446C28.7719 16.1362 28.8889 15.8536 28.8889 15.5589C28.8889 15.2642 28.7719 14.9816 28.5635 14.7733C28.3551 14.5649 28.0725 14.4478 27.7778 14.4478H24.8556C24.4678 14.4478 24.0167 14.5111 23.5778 14.7256C21.9956 15.4978 21.1 16.8334 20.6078 18.1345C20.4412 18.5734 20.3178 19.0178 20.2267 19.4478H22.5134C22.563 19.27 22.6204 19.0941 22.6856 18.92C23.0434 17.9734 23.6245 17.1756 24.5523 16.7223C24.6483 16.6813 24.7514 16.6634 24.8556 16.67ZM18.3345 20.5589C17.7212 20.5589 17.2089 21.0656 17.3756 21.6567C18.0167 23.9445 20.6267 25.7245 23.89 26.0578V27.7889C23.1178 27.8078 22.3156 27.87 21.6345 28.0678C21.1034 28.2234 20.54 28.4878 20.1089 28.9723C19.6578 29.4789 19.4456 30.1189 19.4456 30.8334C19.4456 31.5478 19.6567 32.1889 20.1078 32.6967C20.5389 33.1823 21.1023 33.4489 21.6345 33.6045C21.99 33.7078 22.3789 33.7745 22.7789 33.8167V31.58C22.6025 31.5561 22.428 31.5197 22.2567 31.4711C21.9567 31.3823 21.8245 31.2845 21.77 31.2223C21.7345 31.1823 21.6678 31.0923 21.6678 30.8334C21.6678 30.5778 21.7345 30.4889 21.7678 30.45C21.8234 30.3878 21.9545 30.2889 22.2567 30.2011C22.6823 30.0778 23.2312 30.0311 23.89 30.0134V36.1145H20.5567V38.3367H29.4456V36.1145H26.1123V29.9623C27.3367 29.8667 28.3289 29.5978 29.0756 29.1167C30.1256 28.4389 30.5567 27.4311 30.5567 26.3611C30.5655 25.7897 30.4237 25.226 30.1456 24.7267C31.3945 23.9378 32.2867 22.8689 32.6267 21.6567C32.7934 21.0656 32.2823 20.5589 31.6678 20.5589H18.3345ZM27.8712 27.2478C27.5567 27.4511 27.0112 27.6445 26.1123 27.7311V26.0578C26.7798 25.9923 27.439 25.8598 28.08 25.6623C28.2634 25.8367 28.3345 26.0489 28.3345 26.3623C28.3345 26.7734 28.21 27.03 27.8712 27.2478Z" fill="currentColor"/>
<path fill-rule="evenodd" clip-rule="evenodd" d="M33.8889 33.8889H45V16.1111H33.8889V5H16.1111V16.1111H5V33.8889H16.1111V45H33.8889V33.8889ZM31.6667 42.7778V31.6667H42.7778V18.3333H31.6667V7.22222H18.3333V18.3333H7.22222V31.6667H18.3333V42.7778H31.6667Z" fill="currentColor"/>
</svg>
