<svg width="50" height="50" viewBox="0 0 50 50" fill="none" xmlns="http://www.w3.org/2000/svg">
<path d="M33 7C33 6.46957 32.7893 5.96086 32.4142 5.58579C32.0391 5.21071 31.5304 5 31 5H19C18.4696 5 17.9609 5.21071 17.5858 5.58579C17.2107 5.96086 17 6.46957 17 7V17H7C6.46957 17 5.96086 17.2107 5.58579 17.5858C5.21071 17.9609 5 18.4696 5 19V31C5 31.5304 5.21071 32.0391 5.58579 32.4142C5.96086 32.7893 6.46957 33 7 33H17V43C17 43.5304 17.2107 44.0391 17.5858 44.4142C17.9609 44.7893 18.4696 45 19 45H31C31.5304 45 32.0391 44.7893 32.4142 44.4142C32.7893 44.0391 33 43.5304 33 43V33H43C43.5304 33 44.0391 32.7893 44.4142 32.4142C44.7893 32.0391 45 31.5304 45 31V19C45 18.4696 44.7893 17.9609 44.4142 17.5858C44.0391 17.2107 43.5304 17 43 17H33V7Z" stroke="currentColor" stroke-width="3" stroke-linecap="round" stroke-linejoin="round"/>
</svg>
