<svg width="50" height="50" viewBox="0 0 50 50" fill="none" xmlns="http://www.w3.org/2000/svg">
<path d="M11.1907 24.622H10.3802L25.2604 39.5022L37.4804 27.2822H41.2421L25.2604 43.2638L7.28362 25.3078C6.7987 24.8229 6.36919 24.3034 5.99511 23.7492C5.62103 23.195 5.29544 22.5992 5.01834 21.9619H10.0685L15.9499 16.1012L25.2604 25.391L31.9108 18.7614L35.132 21.9619H42.5098C42.9531 21.2553 43.2926 20.5071 43.5281 19.7174C43.7637 18.9276 43.8814 18.1171 43.8814 17.2858C43.8814 16.0805 43.6597 14.9582 43.2164 13.9191C42.773 12.88 42.1565 11.9794 41.3667 11.2174C40.577 10.4554 39.6626 9.85266 38.6235 9.4093C37.5844 8.96595 36.4552 8.74427 35.2359 8.74427C34.0721 8.74427 33.0399 8.92438 32.1394 9.28461C31.2388 9.64484 30.4075 10.1298 29.6455 10.7394C28.8835 11.349 28.1561 12.021 27.4633 12.7553C26.7706 13.4896 26.0363 14.2585 25.2604 15.0621C24.5122 14.3139 23.7848 13.5589 23.0782 12.7968C22.3716 12.0348 21.6373 11.349 20.8753 10.7394C20.1133 10.1298 19.2751 9.63098 18.3606 9.24304C17.4462 8.85511 16.4209 8.66114 15.2848 8.66114C14.0933 8.66114 12.978 8.88282 11.9389 9.32617C10.8998 9.76953 9.98533 10.3861 9.1956 11.1758C8.40587 11.9655 7.78932 12.88 7.34597 13.9191C6.90261 14.9582 6.674 16.0805 6.66015 17.2858C6.66015 17.937 6.73635 18.609 6.88875 19.3017H4.16626C4.09698 18.9692 4.05542 18.6367 4.04156 18.3042C4.02771 17.9717 4.01385 17.6391 4 17.3066C4 15.741 4.29095 14.2724 4.87286 12.9007C5.45477 11.5291 6.25835 10.3307 7.28362 9.30539C8.30888 8.28013 9.50733 7.47654 10.879 6.89463C12.2506 6.31273 13.7192 6.01484 15.2848 6.00099C16.4348 6.00099 17.4601 6.13261 18.3606 6.39586C19.2612 6.6591 20.0925 7.01933 20.8545 7.47654C21.6165 7.93375 22.3509 8.49488 23.0575 9.15991C23.7641 9.82495 24.4984 10.5385 25.2604 11.3005C26.0224 10.5246 26.7498 9.8111 27.4425 9.15991C28.1353 8.50873 28.8696 7.95454 29.6455 7.49732C30.4214 7.04011 31.2596 6.67295 32.1601 6.39586C33.0607 6.11876 34.086 5.98713 35.2359 6.00099C36.7877 6.00099 38.2494 6.29194 39.621 6.87385C40.9927 7.45576 42.1842 8.25934 43.1956 9.28461C44.207 10.3099 45.0106 11.5014 45.6064 12.8592C46.2021 14.217 46.5 15.6787 46.5 17.2443C46.5 18.5882 46.2645 19.8906 45.7934 21.1514C45.3223 22.4122 44.6504 23.569 43.7775 24.622H34.0098L31.9108 22.5022L25.2604 29.1734L15.9499 19.8421L11.1907 24.622Z" fill="currentColor"/>
</svg>
