<svg width="50" height="50" viewBox="0 0 50 50" fill="none" xmlns="http://www.w3.org/2000/svg">
<path d="M5.14936 15.5276C6.31662 4.22575 15.6583 3.13659 22.017 7.05985C24.0165 8.29474 25.9799 8.29474 27.983 7.05985C34.3417 3.13659 43.6834 4.22575 44.8506 15.5276C46.0215 26.864 40.0231 38.8601 36.8095 43.4545C36.0782 44.5014 34.9001 45 33.6752 45C32.6964 45 31.7414 44.6784 30.9406 44.0793C30.1398 43.4801 29.5322 42.6324 29.2007 41.652L28.0659 38.3002C27.8378 37.6294 27.4212 37.0496 26.8726 36.6399C26.324 36.2302 25.6701 36.0104 25 36.0104C24.3299 36.0104 23.676 36.2302 23.1274 36.6399C22.5788 37.0496 22.1622 37.6294 21.9341 38.3002L20.7993 41.652C20.4678 42.6324 19.8602 43.4801 19.0594 44.0793C18.2586 44.6784 17.3036 45 16.3248 45C15.0999 45 13.9182 44.5014 13.1905 43.4545C9.97692 38.8601 3.97849 26.864 5.14936 15.5276Z" stroke="currentColor" stroke-width="3" stroke-linecap="round" stroke-linejoin="round"/>
<path d="M29.6507 16.0952C25.8319 17.5755 23.7784 17.5449 20.3486 16.0952" stroke="currentColor" stroke-width="3" stroke-linecap="round" stroke-linejoin="round"/>
</svg>
