<svg width="50" height="50" viewBox="0 0 50 50" fill="none" xmlns="http://www.w3.org/2000/svg">
<path d="M25.0071 37.0857C36.8329 37.0857 45 27.5286 45 24.5429C45 21.5421 36.8186 12 25.0071 12C13.3429 11.9993 5 21.5414 5 24.5421C5 27.5279 13.3279 37.0857 25.0071 37.0857ZM25.0071 34.7721C15.3771 34.7721 7.56143 26.605 7.56143 24.5414C7.56143 22.8 15.3771 14.3114 25.0071 14.3114C34.6086 14.3114 42.4386 22.8 42.4386 24.5414C42.4386 26.6057 34.6086 34.7721 25.0071 34.7721ZM25.0071 32.7379C29.5593 32.7379 33.2179 29.0057 33.2179 24.5414C33.2179 19.9607 29.5593 16.3457 25.0071 16.3457C20.4264 16.3457 16.7529 19.96 16.7821 24.5414C16.7964 29.0057 20.4264 32.7379 25.0071 32.7379ZM25.0071 27.2643C23.4857 27.2643 22.2557 26.0343 22.2557 24.5414C22.2557 23.0343 23.485 21.82 25.0071 21.82C26.5143 21.82 27.7443 23.0343 27.7443 24.5414C27.7443 26.0343 26.515 27.2643 25.0071 27.2643Z" fill="currentColor"/>
</svg>
