<svg width="50" height="50" viewBox="0 0 50 50" fill="none" xmlns="http://www.w3.org/2000/svg">
<path d="M23.0016 5C26.887 4.9994 30.6398 6.41261 33.5597 8.97588C36.4795 11.5391 38.3669 15.0773 38.8696 18.93L43.3696 26.008C43.6656 26.474 43.6056 27.168 42.9196 27.464L39.0016 29.14V35C39.0016 36.0609 38.5802 37.0783 37.83 37.8284C37.0799 38.5786 36.0625 39 35.0016 39H31.0036L31.0016 45H13.0016V37.612C13.0016 35.252 12.1296 33.018 10.5116 31.002C8.62702 28.6489 7.44557 25.8113 7.1034 22.816C6.76123 19.8207 7.27225 16.7897 8.5776 14.0722C9.88294 11.3547 11.9295 9.06132 14.4814 7.45623C17.0334 5.85114 19.9869 4.9997 23.0016 5ZM23.0016 9C20.7408 8.99991 18.5259 9.63849 16.6121 10.8422C14.6984 12.0459 13.1636 13.7657 12.1846 15.8036C11.2056 17.8415 10.8221 20.1145 11.0785 22.3607C11.3349 24.607 12.2206 26.7351 13.6336 28.5C15.8216 31.228 17.0016 34.334 17.0016 37.612V41H27.0016L27.0056 35H35.0016V26.504L38.1016 25.176L35.0156 20.326L34.9016 19.442C34.5234 16.5536 33.1075 13.9015 30.9179 11.9802C28.7283 10.0589 25.9146 8.99962 23.0016 9ZM21.9416 16.526L23.0016 17.586L24.0616 16.526C24.7216 15.8883 25.6056 15.5354 26.5233 15.5431C27.441 15.5509 28.3189 15.9188 28.968 16.5676C29.6171 17.2164 29.9853 18.0942 29.9935 19.0119C30.0016 19.9296 29.649 20.8138 29.0116 21.474L23.0016 27.486L16.9916 21.474C16.6574 21.1511 16.3908 20.7648 16.2075 20.3378C16.0241 19.9107 15.9277 19.4514 15.9237 18.9867C15.9198 18.522 16.0084 18.0611 16.1845 17.631C16.3606 17.2009 16.6206 16.8102 16.9492 16.4816C17.2779 16.1531 17.6688 15.8932 18.0989 15.7174C18.5291 15.5415 18.99 15.453 19.4547 15.4571C19.9195 15.4613 20.3787 15.5579 20.8057 15.7414C21.2327 15.9249 21.6188 16.1916 21.9416 16.526Z" fill="currentColor"/>
</svg>
